%TF.GenerationSoftware,KiCad,Pcbnew,5.1.6*%
%TF.CreationDate,2020-08-11T21:36:28+00:00*%
%TF.ProjectId,SoundCard,536f756e-6443-4617-9264-2e6b69636164,rev?*%
%TF.SameCoordinates,Original*%
%TF.FileFunction,Copper,L2,Bot*%
%TF.FilePolarity,Positive*%
%FSLAX46Y46*%
G04 Gerber Fmt 4.6, Leading zero omitted, Abs format (unit mm)*
G04 Created by KiCad (PCBNEW 5.1.6) date 2020-08-11 21:36:28*
%MOMM*%
%LPD*%
G01*
G04 APERTURE LIST*
%TA.AperFunction,Conductor*%
%ADD10R,2.700000X2.700000*%
%TD*%
%TA.AperFunction,ViaPad*%
%ADD11C,0.500000*%
%TD*%
%TA.AperFunction,ConnectorPad*%
%ADD12R,0.700000X3.200000*%
%TD*%
%TA.AperFunction,ConnectorPad*%
%ADD13R,0.700000X4.300000*%
%TD*%
%TA.AperFunction,ComponentPad*%
%ADD14C,2.050000*%
%TD*%
%TA.AperFunction,ComponentPad*%
%ADD15C,2.250000*%
%TD*%
%TA.AperFunction,ViaPad*%
%ADD16C,0.800000*%
%TD*%
%TA.AperFunction,Conductor*%
%ADD17C,0.750000*%
%TD*%
%TA.AperFunction,Conductor*%
%ADD18C,0.500000*%
%TD*%
%TA.AperFunction,Conductor*%
%ADD19C,0.250000*%
%TD*%
%TA.AperFunction,Conductor*%
%ADD20C,0.254000*%
%TD*%
G04 APERTURE END LIST*
D10*
%TO.N,GND*%
%TO.C,U3*%
X137309460Y-138718120D03*
D11*
X136209460Y-137618120D03*
X137309460Y-137618120D03*
X138409460Y-137618120D03*
X136209460Y-138718120D03*
X137309460Y-138718120D03*
X138409460Y-138718120D03*
X136209460Y-139818120D03*
X137309460Y-139818120D03*
X138409460Y-139818120D03*
%TD*%
D12*
%TO.P,P1,A1*%
%TO.N,/SHDNZ*%
X133451600Y-149818000D03*
D13*
%TO.P,P1,A2*%
%TO.N,/SCL*%
X134451600Y-150368000D03*
%TO.P,P1,A3*%
%TO.N,/SDA*%
X135451600Y-150368000D03*
%TO.P,P1,A4*%
%TO.N,GND*%
X136451600Y-150368000D03*
%TO.P,P1,A5*%
X137451600Y-150368000D03*
%TO.P,P1,A6*%
%TO.N,/PPS*%
X138451600Y-150368000D03*
%TO.P,P1,A7*%
%TO.N,GND*%
X139451600Y-150368000D03*
%TO.P,P1,A8*%
X140451600Y-150368000D03*
%TO.P,P1,A9*%
X141451600Y-150368000D03*
%TO.P,P1,A10*%
X142451600Y-150368000D03*
%TO.P,P1,A11*%
X143451600Y-150368000D03*
%TO.P,P1,A14*%
X148451600Y-150368000D03*
%TO.P,P1,A15*%
X149451600Y-150368000D03*
%TO.P,P1,A16*%
%TO.N,+24V*%
X150451600Y-150368000D03*
%TO.P,P1,A17*%
X151451600Y-150368000D03*
%TO.P,P1,A18*%
X152451600Y-150368000D03*
%TO.P,P1,A12*%
%TO.N,GND*%
X146451600Y-150368000D03*
%TO.P,P1,A13*%
X147451600Y-150368000D03*
%TD*%
D14*
%TO.P,J1,1*%
%TO.N,Net-(C9-Pad1)*%
X137505440Y-113350040D03*
D15*
%TO.P,J1,2*%
%TO.N,GND*%
X140045440Y-115890040D03*
X140045440Y-110810040D03*
X134965440Y-110810040D03*
X134965440Y-115890040D03*
%TD*%
%TO.P,R8,2*%
%TO.N,/PPS_ATT*%
%TA.AperFunction,SMDPad,CuDef*%
G36*
G01*
X146248340Y-134426320D02*
X146593340Y-134426320D01*
G75*
G02*
X146740840Y-134573820I0J-147500D01*
G01*
X146740840Y-134868820D01*
G75*
G02*
X146593340Y-135016320I-147500J0D01*
G01*
X146248340Y-135016320D01*
G75*
G02*
X146100840Y-134868820I0J147500D01*
G01*
X146100840Y-134573820D01*
G75*
G02*
X146248340Y-134426320I147500J0D01*
G01*
G37*
%TD.AperFunction*%
%TO.P,R8,1*%
%TO.N,GND*%
%TA.AperFunction,SMDPad,CuDef*%
G36*
G01*
X146248340Y-133456320D02*
X146593340Y-133456320D01*
G75*
G02*
X146740840Y-133603820I0J-147500D01*
G01*
X146740840Y-133898820D01*
G75*
G02*
X146593340Y-134046320I-147500J0D01*
G01*
X146248340Y-134046320D01*
G75*
G02*
X146100840Y-133898820I0J147500D01*
G01*
X146100840Y-133603820D01*
G75*
G02*
X146248340Y-133456320I147500J0D01*
G01*
G37*
%TD.AperFunction*%
%TD*%
%TO.P,R9,2*%
%TO.N,/PPS*%
%TA.AperFunction,SMDPad,CuDef*%
G36*
G01*
X146268660Y-136438000D02*
X146613660Y-136438000D01*
G75*
G02*
X146761160Y-136585500I0J-147500D01*
G01*
X146761160Y-136880500D01*
G75*
G02*
X146613660Y-137028000I-147500J0D01*
G01*
X146268660Y-137028000D01*
G75*
G02*
X146121160Y-136880500I0J147500D01*
G01*
X146121160Y-136585500D01*
G75*
G02*
X146268660Y-136438000I147500J0D01*
G01*
G37*
%TD.AperFunction*%
%TO.P,R9,1*%
%TO.N,/PPS_ATT*%
%TA.AperFunction,SMDPad,CuDef*%
G36*
G01*
X146268660Y-135468000D02*
X146613660Y-135468000D01*
G75*
G02*
X146761160Y-135615500I0J-147500D01*
G01*
X146761160Y-135910500D01*
G75*
G02*
X146613660Y-136058000I-147500J0D01*
G01*
X146268660Y-136058000D01*
G75*
G02*
X146121160Y-135910500I0J147500D01*
G01*
X146121160Y-135615500D01*
G75*
G02*
X146268660Y-135468000I147500J0D01*
G01*
G37*
%TD.AperFunction*%
%TD*%
D11*
%TO.N,GND*%
X150891240Y-136133840D03*
D16*
%TO.N,+24V*%
X146522440Y-117017800D03*
%TO.N,VDD*%
X144902200Y-140975360D03*
X135788400Y-144922240D03*
%TO.N,/PPS_ATT*%
X141010640Y-134823200D03*
%TO.N,/SDA*%
X135051800Y-140853160D03*
%TO.N,/SCL*%
X134203440Y-139877800D03*
%TO.N,/SHDNZ*%
X133944360Y-137967720D03*
D11*
%TO.N,GND*%
X148031200Y-147335240D03*
X148021040Y-144937480D03*
X143007080Y-144653000D03*
X145120360Y-142214600D03*
X141925040Y-143311880D03*
X140858240Y-142082520D03*
X139313920Y-144886680D03*
X141925040Y-147060920D03*
X136428480Y-146380200D03*
X136428480Y-145633440D03*
D16*
X134518400Y-138709400D03*
X135224520Y-136662160D03*
X139522200Y-140771880D03*
X139552680Y-136621520D03*
D11*
X141152880Y-135849360D03*
X144312640Y-135422640D03*
X145608040Y-135422640D03*
X145597880Y-134223760D03*
X145638520Y-139740640D03*
X141818360Y-134340600D03*
X144983200Y-135412480D03*
X144942560Y-134213600D03*
X144302480Y-134213600D03*
X143687800Y-135427720D03*
X143672560Y-134208520D03*
X141823440Y-135432800D03*
X147314920Y-134604760D03*
X147314920Y-135366760D03*
X147314920Y-136215120D03*
X145602960Y-136204960D03*
X145592800Y-136931400D03*
X145618200Y-137637520D03*
X145613120Y-138374120D03*
X145633440Y-139039600D03*
X147325080Y-133731000D03*
X146441160Y-132821680D03*
X144139920Y-144642840D03*
X142321280Y-145308320D03*
X144256760Y-143017240D03*
X143139160Y-143062960D03*
X140563600Y-144749520D03*
X141051280Y-146624040D03*
X139039600Y-146283680D03*
X139816840Y-147726400D03*
X138160760Y-147299680D03*
X137627360Y-146573240D03*
X136428480Y-147142200D03*
X136799320Y-147706080D03*
X136585960Y-142585440D03*
X136652000Y-134940040D03*
X134040880Y-134960360D03*
X134025640Y-131754880D03*
X134061200Y-129092960D03*
X134045960Y-126608840D03*
X134061200Y-124200920D03*
X134045960Y-122082560D03*
X134061200Y-120106440D03*
X134061200Y-117947440D03*
X135859520Y-125379480D03*
X135834120Y-122925840D03*
X135778240Y-120944640D03*
X135727440Y-118938040D03*
X139385040Y-119430800D03*
X141376400Y-117983000D03*
X141406880Y-120761760D03*
X143337280Y-119425720D03*
X143388080Y-116794280D03*
X143362680Y-114731800D03*
X144851120Y-115564920D03*
X144952720Y-117911880D03*
X148976080Y-111490760D03*
X147721320Y-109529880D03*
X152156160Y-109494320D03*
X149951440Y-109540040D03*
X142539720Y-109519720D03*
X142529560Y-111612680D03*
X149037040Y-115270280D03*
X148930360Y-120782080D03*
X146954240Y-119385080D03*
X151048720Y-119237760D03*
X151104600Y-116575840D03*
X148899880Y-123642120D03*
X146908520Y-122031760D03*
X141142720Y-123169680D03*
X143301720Y-123139200D03*
X144592040Y-124327920D03*
X145775680Y-125562360D03*
X145882360Y-127492760D03*
X145872200Y-129346960D03*
X143764000Y-128036320D03*
X143784320Y-126380240D03*
X142356840Y-125079760D03*
X140533120Y-124952760D03*
X141676120Y-126979680D03*
X140512800Y-126969520D03*
X140512800Y-129387600D03*
X141752320Y-128437640D03*
X141782800Y-130291840D03*
X142758160Y-132511800D03*
X141813280Y-131582160D03*
X138678920Y-129463800D03*
X138663680Y-127838200D03*
X140522960Y-128066800D03*
X137546080Y-127980440D03*
X136550400Y-129219960D03*
X137038080Y-130545840D03*
X137815320Y-131622800D03*
X138242040Y-130520440D03*
X148920200Y-126486920D03*
X148920200Y-129143760D03*
X149433280Y-131521200D03*
X149499320Y-133410960D03*
X149473920Y-135453120D03*
X149407880Y-138729720D03*
X148727160Y-139948920D03*
X148711920Y-143591280D03*
X149407880Y-147335240D03*
X146674840Y-147365720D03*
X147340320Y-146070320D03*
X148757640Y-146055080D03*
X146298920Y-145069560D03*
X150901400Y-125023880D03*
X150881080Y-127741680D03*
X150916640Y-130352800D03*
X150916640Y-134172960D03*
X151155400Y-143885920D03*
X151368760Y-147507960D03*
X151043640Y-145481040D03*
X149179280Y-144592040D03*
X145059400Y-120731280D03*
X149057360Y-117952520D03*
X152318720Y-120416320D03*
X138475720Y-121975880D03*
X137703560Y-129184400D03*
%TD*%
D17*
%TO.N,+24V*%
X150451600Y-150368000D02*
X151451600Y-150368000D01*
X151451600Y-150368000D02*
X152451600Y-150368000D01*
X152400000Y-122956320D02*
X152400000Y-150322280D01*
D18*
X152400000Y-122895360D02*
X152400000Y-122956320D01*
D17*
X146522440Y-117017800D02*
X152400000Y-122895360D01*
D18*
%TO.N,GND*%
X147451600Y-150368000D02*
X148451600Y-150368000D01*
%TO.N,VDD*%
X140741400Y-140980160D02*
X136794520Y-144927040D01*
X144902200Y-140975360D02*
X140741400Y-140954760D01*
X136789720Y-144922240D02*
X136794520Y-144927040D01*
X135788400Y-144922240D02*
X136789720Y-144922240D01*
%TO.N,/PPS_ATT*%
X146441160Y-134741640D02*
X146420840Y-134721320D01*
X146441160Y-135763000D02*
X146441160Y-134741640D01*
D19*
X146360160Y-134660640D02*
X146420840Y-134721320D01*
X141056360Y-134813040D02*
X146344920Y-134813040D01*
D18*
%TO.N,/PPS*%
X138451600Y-148057998D02*
X142618598Y-143891000D01*
X138451600Y-150368000D02*
X138451600Y-148057998D01*
X142618598Y-143891000D02*
X144576800Y-143891000D01*
X146441160Y-142026640D02*
X146441160Y-136733000D01*
X144576800Y-143891000D02*
X146441160Y-142026640D01*
D19*
%TO.N,/SDA*%
X135451600Y-145658442D02*
X135451600Y-150368000D01*
X135051800Y-145258642D02*
X135451600Y-145658442D01*
X135051800Y-140853160D02*
X135051800Y-145258642D01*
%TO.N,/SCL*%
X134228840Y-150145240D02*
X134451600Y-150368000D01*
X134203440Y-139877800D02*
X134203440Y-141208760D01*
X134451600Y-141456920D02*
X134451600Y-150368000D01*
X134203440Y-141208760D02*
X134451600Y-141456920D01*
%TO.N,/SHDNZ*%
X133451600Y-138460480D02*
X133944360Y-137967720D01*
X133451600Y-149818000D02*
X133451600Y-138460480D01*
D17*
%TO.N,GND*%
X142451600Y-150368000D02*
X143376590Y-150368000D01*
X142451600Y-150368000D02*
X141451600Y-150368000D01*
X141451600Y-150368000D02*
X140451600Y-150368000D01*
X140451600Y-150368000D02*
X139451600Y-150368000D01*
X137451600Y-150368000D02*
X136451600Y-150368000D01*
%TD*%
D20*
%TO.N,GND*%
G36*
X152724041Y-122226624D02*
G01*
X147158334Y-116660917D01*
X147087138Y-116554364D01*
X146985876Y-116453102D01*
X146866804Y-116373541D01*
X146734498Y-116318738D01*
X146594043Y-116290800D01*
X146450837Y-116290800D01*
X146310382Y-116318738D01*
X146178076Y-116373541D01*
X146059004Y-116453102D01*
X145957742Y-116554364D01*
X145878181Y-116673436D01*
X145823378Y-116805742D01*
X145795440Y-116946197D01*
X145795440Y-117089403D01*
X145823378Y-117229858D01*
X145878181Y-117362164D01*
X145957742Y-117481236D01*
X146059004Y-117582498D01*
X146165557Y-117653694D01*
X151698000Y-123186137D01*
X151698001Y-147889418D01*
X151101600Y-147889418D01*
X151037497Y-147895732D01*
X150975857Y-147914430D01*
X150951600Y-147927396D01*
X150927343Y-147914430D01*
X150865703Y-147895732D01*
X150801600Y-147889418D01*
X150101600Y-147889418D01*
X150037497Y-147895732D01*
X149975857Y-147914430D01*
X149919050Y-147944794D01*
X149869257Y-147985657D01*
X149828394Y-148035450D01*
X149798030Y-148092257D01*
X149779332Y-148153897D01*
X149773018Y-148218000D01*
X149773018Y-150186672D01*
X149759758Y-150230384D01*
X149746204Y-150368000D01*
X149759758Y-150505616D01*
X149773018Y-150549328D01*
X149773018Y-150586440D01*
X146278600Y-150586440D01*
X146278600Y-146349481D01*
X146276707Y-146330263D01*
X146276707Y-146317947D01*
X146276157Y-146312712D01*
X146255491Y-146128461D01*
X146248384Y-146095028D01*
X146241750Y-146061521D01*
X146240193Y-146056492D01*
X146184132Y-145879763D01*
X146170678Y-145848372D01*
X146157650Y-145816765D01*
X146155147Y-145812134D01*
X146065825Y-145649660D01*
X146046530Y-145621480D01*
X146027611Y-145593005D01*
X146024256Y-145588949D01*
X145905078Y-145446919D01*
X145880651Y-145422999D01*
X145856589Y-145398768D01*
X145852509Y-145395440D01*
X145708015Y-145279264D01*
X145679444Y-145260568D01*
X145651096Y-145241447D01*
X145646448Y-145238976D01*
X145482139Y-145153077D01*
X145450472Y-145140282D01*
X145418957Y-145127035D01*
X145413918Y-145125513D01*
X145236054Y-145073166D01*
X145202506Y-145066766D01*
X145169020Y-145059893D01*
X145163781Y-145059379D01*
X144979137Y-145042575D01*
X144944968Y-145042813D01*
X144910799Y-145042575D01*
X144905560Y-145043088D01*
X144721168Y-145062469D01*
X144687694Y-145069340D01*
X144654135Y-145075742D01*
X144649102Y-145077262D01*
X144649093Y-145077264D01*
X144649085Y-145077268D01*
X144471979Y-145132090D01*
X144440513Y-145145317D01*
X144408798Y-145158131D01*
X144404150Y-145160602D01*
X144241057Y-145248786D01*
X144212746Y-145267882D01*
X144184137Y-145286604D01*
X144180057Y-145289931D01*
X144037198Y-145408115D01*
X144013115Y-145432368D01*
X143988710Y-145456267D01*
X143985354Y-145460322D01*
X143868171Y-145604002D01*
X143849242Y-145632492D01*
X143829958Y-145660656D01*
X143827454Y-145665286D01*
X143740410Y-145828991D01*
X143727378Y-145860610D01*
X143713928Y-145891991D01*
X143712371Y-145897019D01*
X143658783Y-146074513D01*
X143652144Y-146108042D01*
X143645043Y-146141452D01*
X143644492Y-146146687D01*
X143626399Y-146331211D01*
X143626399Y-146331216D01*
X143624600Y-146349482D01*
X143624601Y-150586440D01*
X139130182Y-150586440D01*
X139130182Y-148218000D01*
X139128157Y-148197442D01*
X142857600Y-144468000D01*
X144548469Y-144468000D01*
X144576800Y-144470790D01*
X144605131Y-144468000D01*
X144605136Y-144468000D01*
X144634845Y-144465074D01*
X144689911Y-144459651D01*
X144734570Y-144446103D01*
X144798676Y-144426657D01*
X144898915Y-144373079D01*
X144986774Y-144300974D01*
X145004839Y-144278962D01*
X146829128Y-142454674D01*
X146851134Y-142436614D01*
X146923239Y-142348755D01*
X146976817Y-142248516D01*
X147009810Y-142139752D01*
X147018160Y-142054976D01*
X147018160Y-142054970D01*
X147020950Y-142026641D01*
X147018160Y-141998312D01*
X147018160Y-137128810D01*
X147053502Y-137062689D01*
X147080594Y-136973379D01*
X147089742Y-136880500D01*
X147089742Y-136585500D01*
X147080594Y-136492621D01*
X147053502Y-136403311D01*
X147009508Y-136321003D01*
X146950301Y-136248859D01*
X146949254Y-136248000D01*
X146950301Y-136247141D01*
X147009508Y-136174997D01*
X147053502Y-136092689D01*
X147080594Y-136003379D01*
X147089742Y-135910500D01*
X147089742Y-135615500D01*
X147080594Y-135522621D01*
X147053502Y-135433311D01*
X147018160Y-135367190D01*
X147018160Y-135079114D01*
X147033182Y-135051009D01*
X147060274Y-134961699D01*
X147069422Y-134868820D01*
X147069422Y-134590707D01*
X147095334Y-134576857D01*
X147192025Y-134497505D01*
X147271377Y-134400814D01*
X147330342Y-134290500D01*
X147366652Y-134170802D01*
X147378912Y-134046320D01*
X147375840Y-134037070D01*
X147217090Y-133878320D01*
X146547840Y-133878320D01*
X146547840Y-133898320D01*
X146293840Y-133898320D01*
X146293840Y-133878320D01*
X145624590Y-133878320D01*
X145465840Y-134037070D01*
X145462768Y-134046320D01*
X145475028Y-134170802D01*
X145511338Y-134290500D01*
X145549043Y-134361040D01*
X141576191Y-134361040D01*
X141575338Y-134359764D01*
X141474076Y-134258502D01*
X141355004Y-134178941D01*
X141222698Y-134124138D01*
X141082243Y-134096200D01*
X140939037Y-134096200D01*
X140798582Y-134124138D01*
X140666276Y-134178941D01*
X140547204Y-134258502D01*
X140445942Y-134359764D01*
X140366381Y-134478836D01*
X140311578Y-134611142D01*
X140283640Y-134751597D01*
X140283640Y-134894803D01*
X140311578Y-135035258D01*
X140366381Y-135167564D01*
X140445942Y-135286636D01*
X140547204Y-135387898D01*
X140666276Y-135467459D01*
X140798582Y-135522262D01*
X140939037Y-135550200D01*
X141082243Y-135550200D01*
X141222698Y-135522262D01*
X141355004Y-135467459D01*
X141474076Y-135387898D01*
X141575338Y-135286636D01*
X141589768Y-135265040D01*
X145864160Y-135265040D01*
X145864160Y-135367189D01*
X145828818Y-135433311D01*
X145801726Y-135522621D01*
X145792578Y-135615500D01*
X145792578Y-135910500D01*
X145801726Y-136003379D01*
X145828818Y-136092689D01*
X145872812Y-136174997D01*
X145932019Y-136247141D01*
X145933066Y-136248000D01*
X145932019Y-136248859D01*
X145872812Y-136321003D01*
X145828818Y-136403311D01*
X145801726Y-136492621D01*
X145792578Y-136585500D01*
X145792578Y-136880500D01*
X145801726Y-136973379D01*
X145828818Y-137062689D01*
X145864161Y-137128812D01*
X145864160Y-141787638D01*
X144337799Y-143314000D01*
X142646926Y-143314000D01*
X142618597Y-143311210D01*
X142590268Y-143314000D01*
X142590262Y-143314000D01*
X142505486Y-143322350D01*
X142396722Y-143355343D01*
X142296483Y-143408921D01*
X142250578Y-143446595D01*
X142230633Y-143462963D01*
X142230631Y-143462965D01*
X142208624Y-143481026D01*
X142190563Y-143503033D01*
X138063634Y-147629963D01*
X138041627Y-147648024D01*
X138023566Y-147670031D01*
X138023563Y-147670034D01*
X138000440Y-147698210D01*
X137969522Y-147735883D01*
X137915944Y-147836122D01*
X137882949Y-147944887D01*
X137879785Y-147977017D01*
X137869257Y-147985657D01*
X137828394Y-148035450D01*
X137798030Y-148092257D01*
X137779332Y-148153897D01*
X137773018Y-148218000D01*
X137773018Y-150586440D01*
X136130182Y-150586440D01*
X136130182Y-148218000D01*
X136123868Y-148153897D01*
X136105170Y-148092257D01*
X136074806Y-148035450D01*
X136033943Y-147985657D01*
X135984150Y-147944794D01*
X135927343Y-147914430D01*
X135903600Y-147907228D01*
X135903600Y-145680647D01*
X135905787Y-145658442D01*
X135904018Y-145640485D01*
X136000458Y-145621302D01*
X136132764Y-145566499D01*
X136233425Y-145499240D01*
X136717447Y-145499240D01*
X136784379Y-145505831D01*
X136794519Y-145506830D01*
X136794520Y-145506830D01*
X136907631Y-145495691D01*
X137016396Y-145462696D01*
X137116634Y-145409118D01*
X137182484Y-145355077D01*
X137182493Y-145355068D01*
X137204493Y-145337013D01*
X137222548Y-145315013D01*
X141004493Y-141533069D01*
X144453863Y-141550147D01*
X144557836Y-141619619D01*
X144690142Y-141674422D01*
X144830597Y-141702360D01*
X144973803Y-141702360D01*
X145114258Y-141674422D01*
X145246564Y-141619619D01*
X145365636Y-141540058D01*
X145466898Y-141438796D01*
X145546459Y-141319724D01*
X145601262Y-141187418D01*
X145629200Y-141046963D01*
X145629200Y-140903757D01*
X145601262Y-140763302D01*
X145546459Y-140630996D01*
X145466898Y-140511924D01*
X145365636Y-140410662D01*
X145246564Y-140331101D01*
X145114258Y-140276298D01*
X144973803Y-140248360D01*
X144830597Y-140248360D01*
X144690142Y-140276298D01*
X144557836Y-140331101D01*
X144460458Y-140396166D01*
X140715922Y-140377627D01*
X140631105Y-140385557D01*
X140522179Y-140418012D01*
X140421676Y-140471093D01*
X140333461Y-140542762D01*
X140260922Y-140630263D01*
X140243989Y-140661569D01*
X136560319Y-144345240D01*
X136233425Y-144345240D01*
X136132764Y-144277981D01*
X136000458Y-144223178D01*
X135860003Y-144195240D01*
X135716797Y-144195240D01*
X135576342Y-144223178D01*
X135503800Y-144253226D01*
X135503800Y-141425499D01*
X135515236Y-141417858D01*
X135616498Y-141316596D01*
X135696059Y-141197524D01*
X135750862Y-141065218D01*
X135778800Y-140924763D01*
X135778800Y-140781557D01*
X135756644Y-140670170D01*
X135834978Y-140693932D01*
X135959460Y-140706192D01*
X137023710Y-140703120D01*
X137056566Y-140670264D01*
X137182458Y-140695134D01*
X137182458Y-140703120D01*
X137222886Y-140703120D01*
X137223458Y-140703233D01*
X137309481Y-140703120D01*
X137436462Y-140703120D01*
X137436462Y-140695258D01*
X137562171Y-140670081D01*
X137595210Y-140703120D01*
X138659460Y-140706192D01*
X138783942Y-140693932D01*
X138903640Y-140657622D01*
X139013954Y-140598657D01*
X139110645Y-140519305D01*
X139189997Y-140422614D01*
X139248962Y-140312300D01*
X139285272Y-140192602D01*
X139297532Y-140068120D01*
X139294460Y-139003870D01*
X139261604Y-138971014D01*
X139286474Y-138845122D01*
X139294460Y-138845122D01*
X139294460Y-138804694D01*
X139294573Y-138804122D01*
X139294460Y-138718099D01*
X139294460Y-138591118D01*
X139286598Y-138591118D01*
X139261421Y-138465409D01*
X139294460Y-138432370D01*
X139297532Y-137368120D01*
X139285272Y-137243638D01*
X139248962Y-137123940D01*
X139189997Y-137013626D01*
X139110645Y-136916935D01*
X139013954Y-136837583D01*
X138903640Y-136778618D01*
X138783942Y-136742308D01*
X138659460Y-136730048D01*
X137595210Y-136733120D01*
X137562354Y-136765976D01*
X137436462Y-136741106D01*
X137436462Y-136733120D01*
X137396034Y-136733120D01*
X137395462Y-136733007D01*
X137309439Y-136733120D01*
X137182458Y-136733120D01*
X137182458Y-136740982D01*
X137056749Y-136766159D01*
X137023710Y-136733120D01*
X135959460Y-136730048D01*
X135834978Y-136742308D01*
X135715280Y-136778618D01*
X135604966Y-136837583D01*
X135508275Y-136916935D01*
X135428923Y-137013626D01*
X135369958Y-137123940D01*
X135333648Y-137243638D01*
X135321388Y-137368120D01*
X135324460Y-138432370D01*
X135357316Y-138465226D01*
X135332446Y-138591118D01*
X135324460Y-138591118D01*
X135324460Y-138631546D01*
X135324347Y-138632118D01*
X135324460Y-138718120D01*
X135324460Y-138845122D01*
X135332322Y-138845122D01*
X135357499Y-138970831D01*
X135324460Y-139003870D01*
X135321388Y-140068120D01*
X135332663Y-140182598D01*
X135263858Y-140154098D01*
X135123403Y-140126160D01*
X134980197Y-140126160D01*
X134879139Y-140146262D01*
X134902502Y-140089858D01*
X134930440Y-139949403D01*
X134930440Y-139806197D01*
X134902502Y-139665742D01*
X134847699Y-139533436D01*
X134768138Y-139414364D01*
X134666876Y-139313102D01*
X134547804Y-139233541D01*
X134415498Y-139178738D01*
X134275043Y-139150800D01*
X134131837Y-139150800D01*
X133991382Y-139178738D01*
X133903600Y-139215099D01*
X133903600Y-138694720D01*
X134015963Y-138694720D01*
X134156418Y-138666782D01*
X134288724Y-138611979D01*
X134407796Y-138532418D01*
X134509058Y-138431156D01*
X134588619Y-138312084D01*
X134643422Y-138179778D01*
X134671360Y-138039323D01*
X134671360Y-137896117D01*
X134643422Y-137755662D01*
X134588619Y-137623356D01*
X134509058Y-137504284D01*
X134407796Y-137403022D01*
X134288724Y-137323461D01*
X134156418Y-137268658D01*
X134015963Y-137240720D01*
X133872757Y-137240720D01*
X133732302Y-137268658D01*
X133599996Y-137323461D01*
X133480924Y-137403022D01*
X133379662Y-137504284D01*
X133300101Y-137623356D01*
X133245298Y-137755662D01*
X133217360Y-137896117D01*
X133217360Y-138039323D01*
X133220043Y-138052813D01*
X133178296Y-138094561D01*
X133178256Y-133456320D01*
X145462768Y-133456320D01*
X145465840Y-133465570D01*
X145624590Y-133624320D01*
X146293840Y-133624320D01*
X146293840Y-132980070D01*
X146547840Y-132980070D01*
X146547840Y-133624320D01*
X147217090Y-133624320D01*
X147375840Y-133465570D01*
X147378912Y-133456320D01*
X147366652Y-133331838D01*
X147330342Y-133212140D01*
X147271377Y-133101826D01*
X147192025Y-133005135D01*
X147095334Y-132925783D01*
X146985020Y-132866818D01*
X146865322Y-132830508D01*
X146740840Y-132818248D01*
X146706590Y-132821320D01*
X146547840Y-132980070D01*
X146293840Y-132980070D01*
X146135090Y-132821320D01*
X146100840Y-132818248D01*
X145976358Y-132830508D01*
X145856660Y-132866818D01*
X145746346Y-132925783D01*
X145649655Y-133005135D01*
X145570303Y-133101826D01*
X145511338Y-133212140D01*
X145475028Y-133331838D01*
X145462768Y-133456320D01*
X133178256Y-133456320D01*
X133178114Y-117114571D01*
X133920514Y-117114571D01*
X134031361Y-117391754D01*
X134342280Y-117545129D01*
X134677145Y-117634900D01*
X135023090Y-117657616D01*
X135366820Y-117612406D01*
X135695125Y-117501006D01*
X135899519Y-117391754D01*
X136010366Y-117114571D01*
X139000514Y-117114571D01*
X139111361Y-117391754D01*
X139422280Y-117545129D01*
X139757145Y-117634900D01*
X140103090Y-117657616D01*
X140446820Y-117612406D01*
X140775125Y-117501006D01*
X140979519Y-117391754D01*
X141090366Y-117114571D01*
X140045440Y-116069645D01*
X139000514Y-117114571D01*
X136010366Y-117114571D01*
X134965440Y-116069645D01*
X133920514Y-117114571D01*
X133178114Y-117114571D01*
X133178103Y-115947690D01*
X133197864Y-115947690D01*
X133243074Y-116291420D01*
X133354474Y-116619725D01*
X133463726Y-116824119D01*
X133740909Y-116934966D01*
X134785835Y-115890040D01*
X135145045Y-115890040D01*
X136189971Y-116934966D01*
X136467154Y-116824119D01*
X136620529Y-116513200D01*
X136710300Y-116178335D01*
X136725444Y-115947690D01*
X138277864Y-115947690D01*
X138323074Y-116291420D01*
X138434474Y-116619725D01*
X138543726Y-116824119D01*
X138820909Y-116934966D01*
X139865835Y-115890040D01*
X140225045Y-115890040D01*
X141269971Y-116934966D01*
X141547154Y-116824119D01*
X141700529Y-116513200D01*
X141790300Y-116178335D01*
X141813016Y-115832390D01*
X141767806Y-115488660D01*
X141656406Y-115160355D01*
X141547154Y-114955961D01*
X141269971Y-114845114D01*
X140225045Y-115890040D01*
X139865835Y-115890040D01*
X138820909Y-114845114D01*
X138543726Y-114955961D01*
X138390351Y-115266880D01*
X138300580Y-115601745D01*
X138277864Y-115947690D01*
X136725444Y-115947690D01*
X136733016Y-115832390D01*
X136687806Y-115488660D01*
X136576406Y-115160355D01*
X136467154Y-114955961D01*
X136189971Y-114845114D01*
X135145045Y-115890040D01*
X134785835Y-115890040D01*
X133740909Y-114845114D01*
X133463726Y-114955961D01*
X133310351Y-115266880D01*
X133220580Y-115601745D01*
X133197864Y-115947690D01*
X133178103Y-115947690D01*
X133178092Y-114665509D01*
X133920514Y-114665509D01*
X134965440Y-115710435D01*
X136010366Y-114665509D01*
X135899519Y-114388326D01*
X135588600Y-114234951D01*
X135253735Y-114145180D01*
X134907790Y-114122464D01*
X134564060Y-114167674D01*
X134235755Y-114279074D01*
X134031361Y-114388326D01*
X133920514Y-114665509D01*
X133178092Y-114665509D01*
X133178080Y-113216880D01*
X136153440Y-113216880D01*
X136153440Y-113483200D01*
X136205396Y-113744404D01*
X136307313Y-113990452D01*
X136455273Y-114211890D01*
X136643590Y-114400207D01*
X136865028Y-114548167D01*
X137111076Y-114650084D01*
X137372280Y-114702040D01*
X137638600Y-114702040D01*
X137822256Y-114665509D01*
X139000514Y-114665509D01*
X140045440Y-115710435D01*
X141090366Y-114665509D01*
X140979519Y-114388326D01*
X140668600Y-114234951D01*
X140333735Y-114145180D01*
X139987790Y-114122464D01*
X139644060Y-114167674D01*
X139315755Y-114279074D01*
X139111361Y-114388326D01*
X139000514Y-114665509D01*
X137822256Y-114665509D01*
X137899804Y-114650084D01*
X138145852Y-114548167D01*
X138367290Y-114400207D01*
X138555607Y-114211890D01*
X138703567Y-113990452D01*
X138805484Y-113744404D01*
X138857440Y-113483200D01*
X138857440Y-113216880D01*
X138805484Y-112955676D01*
X138703567Y-112709628D01*
X138555607Y-112488190D01*
X138367290Y-112299873D01*
X138145852Y-112151913D01*
X137899804Y-112049996D01*
X137822257Y-112034571D01*
X139000514Y-112034571D01*
X139111361Y-112311754D01*
X139422280Y-112465129D01*
X139757145Y-112554900D01*
X140103090Y-112577616D01*
X140446820Y-112532406D01*
X140775125Y-112421006D01*
X140979519Y-112311754D01*
X141090366Y-112034571D01*
X140045440Y-110989645D01*
X139000514Y-112034571D01*
X137822257Y-112034571D01*
X137638600Y-111998040D01*
X137372280Y-111998040D01*
X137111076Y-112049996D01*
X136865028Y-112151913D01*
X136643590Y-112299873D01*
X136455273Y-112488190D01*
X136307313Y-112709628D01*
X136205396Y-112955676D01*
X136153440Y-113216880D01*
X133178080Y-113216880D01*
X133178070Y-112034571D01*
X133920514Y-112034571D01*
X134031361Y-112311754D01*
X134342280Y-112465129D01*
X134677145Y-112554900D01*
X135023090Y-112577616D01*
X135366820Y-112532406D01*
X135695125Y-112421006D01*
X135899519Y-112311754D01*
X136010366Y-112034571D01*
X134965440Y-110989645D01*
X133920514Y-112034571D01*
X133178070Y-112034571D01*
X133178059Y-110867690D01*
X133197864Y-110867690D01*
X133243074Y-111211420D01*
X133354474Y-111539725D01*
X133463726Y-111744119D01*
X133740909Y-111854966D01*
X134785835Y-110810040D01*
X135145045Y-110810040D01*
X136189971Y-111854966D01*
X136467154Y-111744119D01*
X136620529Y-111433200D01*
X136710300Y-111098335D01*
X136725444Y-110867690D01*
X138277864Y-110867690D01*
X138323074Y-111211420D01*
X138434474Y-111539725D01*
X138543726Y-111744119D01*
X138820909Y-111854966D01*
X139865835Y-110810040D01*
X140225045Y-110810040D01*
X141269971Y-111854966D01*
X141547154Y-111744119D01*
X141700529Y-111433200D01*
X141790300Y-111098335D01*
X141813016Y-110752390D01*
X141767806Y-110408660D01*
X141656406Y-110080355D01*
X141547154Y-109875961D01*
X141269971Y-109765114D01*
X140225045Y-110810040D01*
X139865835Y-110810040D01*
X138820909Y-109765114D01*
X138543726Y-109875961D01*
X138390351Y-110186880D01*
X138300580Y-110521745D01*
X138277864Y-110867690D01*
X136725444Y-110867690D01*
X136733016Y-110752390D01*
X136687806Y-110408660D01*
X136576406Y-110080355D01*
X136467154Y-109875961D01*
X136189971Y-109765114D01*
X135145045Y-110810040D01*
X134785835Y-110810040D01*
X133740909Y-109765114D01*
X133463726Y-109875961D01*
X133310351Y-110186880D01*
X133220580Y-110521745D01*
X133197864Y-110867690D01*
X133178059Y-110867690D01*
X133178048Y-109585509D01*
X133920514Y-109585509D01*
X134965440Y-110630435D01*
X136010366Y-109585509D01*
X139000514Y-109585509D01*
X140045440Y-110630435D01*
X141090366Y-109585509D01*
X140979519Y-109308326D01*
X140668600Y-109154951D01*
X140333735Y-109065180D01*
X139987790Y-109042464D01*
X139644060Y-109087674D01*
X139315755Y-109199074D01*
X139111361Y-109308326D01*
X139000514Y-109585509D01*
X136010366Y-109585509D01*
X135899519Y-109308326D01*
X135588600Y-109154951D01*
X135253735Y-109065180D01*
X134907790Y-109042464D01*
X134564060Y-109087674D01*
X134235755Y-109199074D01*
X134031361Y-109308326D01*
X133920514Y-109585509D01*
X133178048Y-109585509D01*
X133178042Y-108982320D01*
X152724041Y-108982320D01*
X152724041Y-122226624D01*
G37*
X152724041Y-122226624D02*
X147158334Y-116660917D01*
X147087138Y-116554364D01*
X146985876Y-116453102D01*
X146866804Y-116373541D01*
X146734498Y-116318738D01*
X146594043Y-116290800D01*
X146450837Y-116290800D01*
X146310382Y-116318738D01*
X146178076Y-116373541D01*
X146059004Y-116453102D01*
X145957742Y-116554364D01*
X145878181Y-116673436D01*
X145823378Y-116805742D01*
X145795440Y-116946197D01*
X145795440Y-117089403D01*
X145823378Y-117229858D01*
X145878181Y-117362164D01*
X145957742Y-117481236D01*
X146059004Y-117582498D01*
X146165557Y-117653694D01*
X151698000Y-123186137D01*
X151698001Y-147889418D01*
X151101600Y-147889418D01*
X151037497Y-147895732D01*
X150975857Y-147914430D01*
X150951600Y-147927396D01*
X150927343Y-147914430D01*
X150865703Y-147895732D01*
X150801600Y-147889418D01*
X150101600Y-147889418D01*
X150037497Y-147895732D01*
X149975857Y-147914430D01*
X149919050Y-147944794D01*
X149869257Y-147985657D01*
X149828394Y-148035450D01*
X149798030Y-148092257D01*
X149779332Y-148153897D01*
X149773018Y-148218000D01*
X149773018Y-150186672D01*
X149759758Y-150230384D01*
X149746204Y-150368000D01*
X149759758Y-150505616D01*
X149773018Y-150549328D01*
X149773018Y-150586440D01*
X146278600Y-150586440D01*
X146278600Y-146349481D01*
X146276707Y-146330263D01*
X146276707Y-146317947D01*
X146276157Y-146312712D01*
X146255491Y-146128461D01*
X146248384Y-146095028D01*
X146241750Y-146061521D01*
X146240193Y-146056492D01*
X146184132Y-145879763D01*
X146170678Y-145848372D01*
X146157650Y-145816765D01*
X146155147Y-145812134D01*
X146065825Y-145649660D01*
X146046530Y-145621480D01*
X146027611Y-145593005D01*
X146024256Y-145588949D01*
X145905078Y-145446919D01*
X145880651Y-145422999D01*
X145856589Y-145398768D01*
X145852509Y-145395440D01*
X145708015Y-145279264D01*
X145679444Y-145260568D01*
X145651096Y-145241447D01*
X145646448Y-145238976D01*
X145482139Y-145153077D01*
X145450472Y-145140282D01*
X145418957Y-145127035D01*
X145413918Y-145125513D01*
X145236054Y-145073166D01*
X145202506Y-145066766D01*
X145169020Y-145059893D01*
X145163781Y-145059379D01*
X144979137Y-145042575D01*
X144944968Y-145042813D01*
X144910799Y-145042575D01*
X144905560Y-145043088D01*
X144721168Y-145062469D01*
X144687694Y-145069340D01*
X144654135Y-145075742D01*
X144649102Y-145077262D01*
X144649093Y-145077264D01*
X144649085Y-145077268D01*
X144471979Y-145132090D01*
X144440513Y-145145317D01*
X144408798Y-145158131D01*
X144404150Y-145160602D01*
X144241057Y-145248786D01*
X144212746Y-145267882D01*
X144184137Y-145286604D01*
X144180057Y-145289931D01*
X144037198Y-145408115D01*
X144013115Y-145432368D01*
X143988710Y-145456267D01*
X143985354Y-145460322D01*
X143868171Y-145604002D01*
X143849242Y-145632492D01*
X143829958Y-145660656D01*
X143827454Y-145665286D01*
X143740410Y-145828991D01*
X143727378Y-145860610D01*
X143713928Y-145891991D01*
X143712371Y-145897019D01*
X143658783Y-146074513D01*
X143652144Y-146108042D01*
X143645043Y-146141452D01*
X143644492Y-146146687D01*
X143626399Y-146331211D01*
X143626399Y-146331216D01*
X143624600Y-146349482D01*
X143624601Y-150586440D01*
X139130182Y-150586440D01*
X139130182Y-148218000D01*
X139128157Y-148197442D01*
X142857600Y-144468000D01*
X144548469Y-144468000D01*
X144576800Y-144470790D01*
X144605131Y-144468000D01*
X144605136Y-144468000D01*
X144634845Y-144465074D01*
X144689911Y-144459651D01*
X144734570Y-144446103D01*
X144798676Y-144426657D01*
X144898915Y-144373079D01*
X144986774Y-144300974D01*
X145004839Y-144278962D01*
X146829128Y-142454674D01*
X146851134Y-142436614D01*
X146923239Y-142348755D01*
X146976817Y-142248516D01*
X147009810Y-142139752D01*
X147018160Y-142054976D01*
X147018160Y-142054970D01*
X147020950Y-142026641D01*
X147018160Y-141998312D01*
X147018160Y-137128810D01*
X147053502Y-137062689D01*
X147080594Y-136973379D01*
X147089742Y-136880500D01*
X147089742Y-136585500D01*
X147080594Y-136492621D01*
X147053502Y-136403311D01*
X147009508Y-136321003D01*
X146950301Y-136248859D01*
X146949254Y-136248000D01*
X146950301Y-136247141D01*
X147009508Y-136174997D01*
X147053502Y-136092689D01*
X147080594Y-136003379D01*
X147089742Y-135910500D01*
X147089742Y-135615500D01*
X147080594Y-135522621D01*
X147053502Y-135433311D01*
X147018160Y-135367190D01*
X147018160Y-135079114D01*
X147033182Y-135051009D01*
X147060274Y-134961699D01*
X147069422Y-134868820D01*
X147069422Y-134590707D01*
X147095334Y-134576857D01*
X147192025Y-134497505D01*
X147271377Y-134400814D01*
X147330342Y-134290500D01*
X147366652Y-134170802D01*
X147378912Y-134046320D01*
X147375840Y-134037070D01*
X147217090Y-133878320D01*
X146547840Y-133878320D01*
X146547840Y-133898320D01*
X146293840Y-133898320D01*
X146293840Y-133878320D01*
X145624590Y-133878320D01*
X145465840Y-134037070D01*
X145462768Y-134046320D01*
X145475028Y-134170802D01*
X145511338Y-134290500D01*
X145549043Y-134361040D01*
X141576191Y-134361040D01*
X141575338Y-134359764D01*
X141474076Y-134258502D01*
X141355004Y-134178941D01*
X141222698Y-134124138D01*
X141082243Y-134096200D01*
X140939037Y-134096200D01*
X140798582Y-134124138D01*
X140666276Y-134178941D01*
X140547204Y-134258502D01*
X140445942Y-134359764D01*
X140366381Y-134478836D01*
X140311578Y-134611142D01*
X140283640Y-134751597D01*
X140283640Y-134894803D01*
X140311578Y-135035258D01*
X140366381Y-135167564D01*
X140445942Y-135286636D01*
X140547204Y-135387898D01*
X140666276Y-135467459D01*
X140798582Y-135522262D01*
X140939037Y-135550200D01*
X141082243Y-135550200D01*
X141222698Y-135522262D01*
X141355004Y-135467459D01*
X141474076Y-135387898D01*
X141575338Y-135286636D01*
X141589768Y-135265040D01*
X145864160Y-135265040D01*
X145864160Y-135367189D01*
X145828818Y-135433311D01*
X145801726Y-135522621D01*
X145792578Y-135615500D01*
X145792578Y-135910500D01*
X145801726Y-136003379D01*
X145828818Y-136092689D01*
X145872812Y-136174997D01*
X145932019Y-136247141D01*
X145933066Y-136248000D01*
X145932019Y-136248859D01*
X145872812Y-136321003D01*
X145828818Y-136403311D01*
X145801726Y-136492621D01*
X145792578Y-136585500D01*
X145792578Y-136880500D01*
X145801726Y-136973379D01*
X145828818Y-137062689D01*
X145864161Y-137128812D01*
X145864160Y-141787638D01*
X144337799Y-143314000D01*
X142646926Y-143314000D01*
X142618597Y-143311210D01*
X142590268Y-143314000D01*
X142590262Y-143314000D01*
X142505486Y-143322350D01*
X142396722Y-143355343D01*
X142296483Y-143408921D01*
X142250578Y-143446595D01*
X142230633Y-143462963D01*
X142230631Y-143462965D01*
X142208624Y-143481026D01*
X142190563Y-143503033D01*
X138063634Y-147629963D01*
X138041627Y-147648024D01*
X138023566Y-147670031D01*
X138023563Y-147670034D01*
X138000440Y-147698210D01*
X137969522Y-147735883D01*
X137915944Y-147836122D01*
X137882949Y-147944887D01*
X137879785Y-147977017D01*
X137869257Y-147985657D01*
X137828394Y-148035450D01*
X137798030Y-148092257D01*
X137779332Y-148153897D01*
X137773018Y-148218000D01*
X137773018Y-150586440D01*
X136130182Y-150586440D01*
X136130182Y-148218000D01*
X136123868Y-148153897D01*
X136105170Y-148092257D01*
X136074806Y-148035450D01*
X136033943Y-147985657D01*
X135984150Y-147944794D01*
X135927343Y-147914430D01*
X135903600Y-147907228D01*
X135903600Y-145680647D01*
X135905787Y-145658442D01*
X135904018Y-145640485D01*
X136000458Y-145621302D01*
X136132764Y-145566499D01*
X136233425Y-145499240D01*
X136717447Y-145499240D01*
X136784379Y-145505831D01*
X136794519Y-145506830D01*
X136794520Y-145506830D01*
X136907631Y-145495691D01*
X137016396Y-145462696D01*
X137116634Y-145409118D01*
X137182484Y-145355077D01*
X137182493Y-145355068D01*
X137204493Y-145337013D01*
X137222548Y-145315013D01*
X141004493Y-141533069D01*
X144453863Y-141550147D01*
X144557836Y-141619619D01*
X144690142Y-141674422D01*
X144830597Y-141702360D01*
X144973803Y-141702360D01*
X145114258Y-141674422D01*
X145246564Y-141619619D01*
X145365636Y-141540058D01*
X145466898Y-141438796D01*
X145546459Y-141319724D01*
X145601262Y-141187418D01*
X145629200Y-141046963D01*
X145629200Y-140903757D01*
X145601262Y-140763302D01*
X145546459Y-140630996D01*
X145466898Y-140511924D01*
X145365636Y-140410662D01*
X145246564Y-140331101D01*
X145114258Y-140276298D01*
X144973803Y-140248360D01*
X144830597Y-140248360D01*
X144690142Y-140276298D01*
X144557836Y-140331101D01*
X144460458Y-140396166D01*
X140715922Y-140377627D01*
X140631105Y-140385557D01*
X140522179Y-140418012D01*
X140421676Y-140471093D01*
X140333461Y-140542762D01*
X140260922Y-140630263D01*
X140243989Y-140661569D01*
X136560319Y-144345240D01*
X136233425Y-144345240D01*
X136132764Y-144277981D01*
X136000458Y-144223178D01*
X135860003Y-144195240D01*
X135716797Y-144195240D01*
X135576342Y-144223178D01*
X135503800Y-144253226D01*
X135503800Y-141425499D01*
X135515236Y-141417858D01*
X135616498Y-141316596D01*
X135696059Y-141197524D01*
X135750862Y-141065218D01*
X135778800Y-140924763D01*
X135778800Y-140781557D01*
X135756644Y-140670170D01*
X135834978Y-140693932D01*
X135959460Y-140706192D01*
X137023710Y-140703120D01*
X137056566Y-140670264D01*
X137182458Y-140695134D01*
X137182458Y-140703120D01*
X137222886Y-140703120D01*
X137223458Y-140703233D01*
X137309481Y-140703120D01*
X137436462Y-140703120D01*
X137436462Y-140695258D01*
X137562171Y-140670081D01*
X137595210Y-140703120D01*
X138659460Y-140706192D01*
X138783942Y-140693932D01*
X138903640Y-140657622D01*
X139013954Y-140598657D01*
X139110645Y-140519305D01*
X139189997Y-140422614D01*
X139248962Y-140312300D01*
X139285272Y-140192602D01*
X139297532Y-140068120D01*
X139294460Y-139003870D01*
X139261604Y-138971014D01*
X139286474Y-138845122D01*
X139294460Y-138845122D01*
X139294460Y-138804694D01*
X139294573Y-138804122D01*
X139294460Y-138718099D01*
X139294460Y-138591118D01*
X139286598Y-138591118D01*
X139261421Y-138465409D01*
X139294460Y-138432370D01*
X139297532Y-137368120D01*
X139285272Y-137243638D01*
X139248962Y-137123940D01*
X139189997Y-137013626D01*
X139110645Y-136916935D01*
X139013954Y-136837583D01*
X138903640Y-136778618D01*
X138783942Y-136742308D01*
X138659460Y-136730048D01*
X137595210Y-136733120D01*
X137562354Y-136765976D01*
X137436462Y-136741106D01*
X137436462Y-136733120D01*
X137396034Y-136733120D01*
X137395462Y-136733007D01*
X137309439Y-136733120D01*
X137182458Y-136733120D01*
X137182458Y-136740982D01*
X137056749Y-136766159D01*
X137023710Y-136733120D01*
X135959460Y-136730048D01*
X135834978Y-136742308D01*
X135715280Y-136778618D01*
X135604966Y-136837583D01*
X135508275Y-136916935D01*
X135428923Y-137013626D01*
X135369958Y-137123940D01*
X135333648Y-137243638D01*
X135321388Y-137368120D01*
X135324460Y-138432370D01*
X135357316Y-138465226D01*
X135332446Y-138591118D01*
X135324460Y-138591118D01*
X135324460Y-138631546D01*
X135324347Y-138632118D01*
X135324460Y-138718120D01*
X135324460Y-138845122D01*
X135332322Y-138845122D01*
X135357499Y-138970831D01*
X135324460Y-139003870D01*
X135321388Y-140068120D01*
X135332663Y-140182598D01*
X135263858Y-140154098D01*
X135123403Y-140126160D01*
X134980197Y-140126160D01*
X134879139Y-140146262D01*
X134902502Y-140089858D01*
X134930440Y-139949403D01*
X134930440Y-139806197D01*
X134902502Y-139665742D01*
X134847699Y-139533436D01*
X134768138Y-139414364D01*
X134666876Y-139313102D01*
X134547804Y-139233541D01*
X134415498Y-139178738D01*
X134275043Y-139150800D01*
X134131837Y-139150800D01*
X133991382Y-139178738D01*
X133903600Y-139215099D01*
X133903600Y-138694720D01*
X134015963Y-138694720D01*
X134156418Y-138666782D01*
X134288724Y-138611979D01*
X134407796Y-138532418D01*
X134509058Y-138431156D01*
X134588619Y-138312084D01*
X134643422Y-138179778D01*
X134671360Y-138039323D01*
X134671360Y-137896117D01*
X134643422Y-137755662D01*
X134588619Y-137623356D01*
X134509058Y-137504284D01*
X134407796Y-137403022D01*
X134288724Y-137323461D01*
X134156418Y-137268658D01*
X134015963Y-137240720D01*
X133872757Y-137240720D01*
X133732302Y-137268658D01*
X133599996Y-137323461D01*
X133480924Y-137403022D01*
X133379662Y-137504284D01*
X133300101Y-137623356D01*
X133245298Y-137755662D01*
X133217360Y-137896117D01*
X133217360Y-138039323D01*
X133220043Y-138052813D01*
X133178296Y-138094561D01*
X133178256Y-133456320D01*
X145462768Y-133456320D01*
X145465840Y-133465570D01*
X145624590Y-133624320D01*
X146293840Y-133624320D01*
X146293840Y-132980070D01*
X146547840Y-132980070D01*
X146547840Y-133624320D01*
X147217090Y-133624320D01*
X147375840Y-133465570D01*
X147378912Y-133456320D01*
X147366652Y-133331838D01*
X147330342Y-133212140D01*
X147271377Y-133101826D01*
X147192025Y-133005135D01*
X147095334Y-132925783D01*
X146985020Y-132866818D01*
X146865322Y-132830508D01*
X146740840Y-132818248D01*
X146706590Y-132821320D01*
X146547840Y-132980070D01*
X146293840Y-132980070D01*
X146135090Y-132821320D01*
X146100840Y-132818248D01*
X145976358Y-132830508D01*
X145856660Y-132866818D01*
X145746346Y-132925783D01*
X145649655Y-133005135D01*
X145570303Y-133101826D01*
X145511338Y-133212140D01*
X145475028Y-133331838D01*
X145462768Y-133456320D01*
X133178256Y-133456320D01*
X133178114Y-117114571D01*
X133920514Y-117114571D01*
X134031361Y-117391754D01*
X134342280Y-117545129D01*
X134677145Y-117634900D01*
X135023090Y-117657616D01*
X135366820Y-117612406D01*
X135695125Y-117501006D01*
X135899519Y-117391754D01*
X136010366Y-117114571D01*
X139000514Y-117114571D01*
X139111361Y-117391754D01*
X139422280Y-117545129D01*
X139757145Y-117634900D01*
X140103090Y-117657616D01*
X140446820Y-117612406D01*
X140775125Y-117501006D01*
X140979519Y-117391754D01*
X141090366Y-117114571D01*
X140045440Y-116069645D01*
X139000514Y-117114571D01*
X136010366Y-117114571D01*
X134965440Y-116069645D01*
X133920514Y-117114571D01*
X133178114Y-117114571D01*
X133178103Y-115947690D01*
X133197864Y-115947690D01*
X133243074Y-116291420D01*
X133354474Y-116619725D01*
X133463726Y-116824119D01*
X133740909Y-116934966D01*
X134785835Y-115890040D01*
X135145045Y-115890040D01*
X136189971Y-116934966D01*
X136467154Y-116824119D01*
X136620529Y-116513200D01*
X136710300Y-116178335D01*
X136725444Y-115947690D01*
X138277864Y-115947690D01*
X138323074Y-116291420D01*
X138434474Y-116619725D01*
X138543726Y-116824119D01*
X138820909Y-116934966D01*
X139865835Y-115890040D01*
X140225045Y-115890040D01*
X141269971Y-116934966D01*
X141547154Y-116824119D01*
X141700529Y-116513200D01*
X141790300Y-116178335D01*
X141813016Y-115832390D01*
X141767806Y-115488660D01*
X141656406Y-115160355D01*
X141547154Y-114955961D01*
X141269971Y-114845114D01*
X140225045Y-115890040D01*
X139865835Y-115890040D01*
X138820909Y-114845114D01*
X138543726Y-114955961D01*
X138390351Y-115266880D01*
X138300580Y-115601745D01*
X138277864Y-115947690D01*
X136725444Y-115947690D01*
X136733016Y-115832390D01*
X136687806Y-115488660D01*
X136576406Y-115160355D01*
X136467154Y-114955961D01*
X136189971Y-114845114D01*
X135145045Y-115890040D01*
X134785835Y-115890040D01*
X133740909Y-114845114D01*
X133463726Y-114955961D01*
X133310351Y-115266880D01*
X133220580Y-115601745D01*
X133197864Y-115947690D01*
X133178103Y-115947690D01*
X133178092Y-114665509D01*
X133920514Y-114665509D01*
X134965440Y-115710435D01*
X136010366Y-114665509D01*
X135899519Y-114388326D01*
X135588600Y-114234951D01*
X135253735Y-114145180D01*
X134907790Y-114122464D01*
X134564060Y-114167674D01*
X134235755Y-114279074D01*
X134031361Y-114388326D01*
X133920514Y-114665509D01*
X133178092Y-114665509D01*
X133178080Y-113216880D01*
X136153440Y-113216880D01*
X136153440Y-113483200D01*
X136205396Y-113744404D01*
X136307313Y-113990452D01*
X136455273Y-114211890D01*
X136643590Y-114400207D01*
X136865028Y-114548167D01*
X137111076Y-114650084D01*
X137372280Y-114702040D01*
X137638600Y-114702040D01*
X137822256Y-114665509D01*
X139000514Y-114665509D01*
X140045440Y-115710435D01*
X141090366Y-114665509D01*
X140979519Y-114388326D01*
X140668600Y-114234951D01*
X140333735Y-114145180D01*
X139987790Y-114122464D01*
X139644060Y-114167674D01*
X139315755Y-114279074D01*
X139111361Y-114388326D01*
X139000514Y-114665509D01*
X137822256Y-114665509D01*
X137899804Y-114650084D01*
X138145852Y-114548167D01*
X138367290Y-114400207D01*
X138555607Y-114211890D01*
X138703567Y-113990452D01*
X138805484Y-113744404D01*
X138857440Y-113483200D01*
X138857440Y-113216880D01*
X138805484Y-112955676D01*
X138703567Y-112709628D01*
X138555607Y-112488190D01*
X138367290Y-112299873D01*
X138145852Y-112151913D01*
X137899804Y-112049996D01*
X137822257Y-112034571D01*
X139000514Y-112034571D01*
X139111361Y-112311754D01*
X139422280Y-112465129D01*
X139757145Y-112554900D01*
X140103090Y-112577616D01*
X140446820Y-112532406D01*
X140775125Y-112421006D01*
X140979519Y-112311754D01*
X141090366Y-112034571D01*
X140045440Y-110989645D01*
X139000514Y-112034571D01*
X137822257Y-112034571D01*
X137638600Y-111998040D01*
X137372280Y-111998040D01*
X137111076Y-112049996D01*
X136865028Y-112151913D01*
X136643590Y-112299873D01*
X136455273Y-112488190D01*
X136307313Y-112709628D01*
X136205396Y-112955676D01*
X136153440Y-113216880D01*
X133178080Y-113216880D01*
X133178070Y-112034571D01*
X133920514Y-112034571D01*
X134031361Y-112311754D01*
X134342280Y-112465129D01*
X134677145Y-112554900D01*
X135023090Y-112577616D01*
X135366820Y-112532406D01*
X135695125Y-112421006D01*
X135899519Y-112311754D01*
X136010366Y-112034571D01*
X134965440Y-110989645D01*
X133920514Y-112034571D01*
X133178070Y-112034571D01*
X133178059Y-110867690D01*
X133197864Y-110867690D01*
X133243074Y-111211420D01*
X133354474Y-111539725D01*
X133463726Y-111744119D01*
X133740909Y-111854966D01*
X134785835Y-110810040D01*
X135145045Y-110810040D01*
X136189971Y-111854966D01*
X136467154Y-111744119D01*
X136620529Y-111433200D01*
X136710300Y-111098335D01*
X136725444Y-110867690D01*
X138277864Y-110867690D01*
X138323074Y-111211420D01*
X138434474Y-111539725D01*
X138543726Y-111744119D01*
X138820909Y-111854966D01*
X139865835Y-110810040D01*
X140225045Y-110810040D01*
X141269971Y-111854966D01*
X141547154Y-111744119D01*
X141700529Y-111433200D01*
X141790300Y-111098335D01*
X141813016Y-110752390D01*
X141767806Y-110408660D01*
X141656406Y-110080355D01*
X141547154Y-109875961D01*
X141269971Y-109765114D01*
X140225045Y-110810040D01*
X139865835Y-110810040D01*
X138820909Y-109765114D01*
X138543726Y-109875961D01*
X138390351Y-110186880D01*
X138300580Y-110521745D01*
X138277864Y-110867690D01*
X136725444Y-110867690D01*
X136733016Y-110752390D01*
X136687806Y-110408660D01*
X136576406Y-110080355D01*
X136467154Y-109875961D01*
X136189971Y-109765114D01*
X135145045Y-110810040D01*
X134785835Y-110810040D01*
X133740909Y-109765114D01*
X133463726Y-109875961D01*
X133310351Y-110186880D01*
X133220580Y-110521745D01*
X133197864Y-110867690D01*
X133178059Y-110867690D01*
X133178048Y-109585509D01*
X133920514Y-109585509D01*
X134965440Y-110630435D01*
X136010366Y-109585509D01*
X139000514Y-109585509D01*
X140045440Y-110630435D01*
X141090366Y-109585509D01*
X140979519Y-109308326D01*
X140668600Y-109154951D01*
X140333735Y-109065180D01*
X139987790Y-109042464D01*
X139644060Y-109087674D01*
X139315755Y-109199074D01*
X139111361Y-109308326D01*
X139000514Y-109585509D01*
X136010366Y-109585509D01*
X135899519Y-109308326D01*
X135588600Y-109154951D01*
X135253735Y-109065180D01*
X134907790Y-109042464D01*
X134564060Y-109087674D01*
X134235755Y-109199074D01*
X134031361Y-109308326D01*
X133920514Y-109585509D01*
X133178048Y-109585509D01*
X133178042Y-108982320D01*
X152724041Y-108982320D01*
X152724041Y-122226624D01*
G36*
X137456460Y-138657230D02*
G01*
X137456460Y-138779010D01*
X137370350Y-138865120D01*
X137248570Y-138865120D01*
X137162460Y-138779010D01*
X137162460Y-138657230D01*
X137248570Y-138571120D01*
X137370350Y-138571120D01*
X137456460Y-138657230D01*
G37*
X137456460Y-138657230D02*
X137456460Y-138779010D01*
X137370350Y-138865120D01*
X137248570Y-138865120D01*
X137162460Y-138779010D01*
X137162460Y-138657230D01*
X137248570Y-138571120D01*
X137370350Y-138571120D01*
X137456460Y-138657230D01*
%TD*%
M02*
