%TF.GenerationSoftware,KiCad,Pcbnew,5.1.6*%
%TF.CreationDate,2020-08-11T21:36:28+00:00*%
%TF.ProjectId,SoundCard,536f756e-6443-4617-9264-2e6b69636164,rev?*%
%TF.SameCoordinates,Original*%
%TF.FileFunction,Paste,Top*%
%TF.FilePolarity,Positive*%
%FSLAX46Y46*%
G04 Gerber Fmt 4.6, Leading zero omitted, Abs format (unit mm)*
G04 Created by KiCad (PCBNEW 5.1.6) date 2020-08-11 21:36:28*
%MOMM*%
%LPD*%
G01*
G04 APERTURE LIST*
%ADD10R,0.900000X0.800000*%
G04 APERTURE END LIST*
%TO.C,U3*%
G36*
G01*
X137199460Y-137728120D02*
X137199460Y-138358120D01*
G75*
G02*
X136949460Y-138608120I-250000J0D01*
G01*
X136319460Y-138608120D01*
G75*
G02*
X136069460Y-138358120I0J250000D01*
G01*
X136069460Y-137728120D01*
G75*
G02*
X136319460Y-137478120I250000J0D01*
G01*
X136949460Y-137478120D01*
G75*
G02*
X137199460Y-137728120I0J-250000D01*
G01*
G37*
G36*
G01*
X137199460Y-139078120D02*
X137199460Y-139708120D01*
G75*
G02*
X136949460Y-139958120I-250000J0D01*
G01*
X136319460Y-139958120D01*
G75*
G02*
X136069460Y-139708120I0J250000D01*
G01*
X136069460Y-139078120D01*
G75*
G02*
X136319460Y-138828120I250000J0D01*
G01*
X136949460Y-138828120D01*
G75*
G02*
X137199460Y-139078120I0J-250000D01*
G01*
G37*
G36*
G01*
X138549460Y-137728120D02*
X138549460Y-138358120D01*
G75*
G02*
X138299460Y-138608120I-250000J0D01*
G01*
X137669460Y-138608120D01*
G75*
G02*
X137419460Y-138358120I0J250000D01*
G01*
X137419460Y-137728120D01*
G75*
G02*
X137669460Y-137478120I250000J0D01*
G01*
X138299460Y-137478120D01*
G75*
G02*
X138549460Y-137728120I0J-250000D01*
G01*
G37*
G36*
G01*
X138549460Y-139078120D02*
X138549460Y-139708120D01*
G75*
G02*
X138299460Y-139958120I-250000J0D01*
G01*
X137669460Y-139958120D01*
G75*
G02*
X137419460Y-139708120I0J250000D01*
G01*
X137419460Y-139078120D01*
G75*
G02*
X137669460Y-138828120I250000J0D01*
G01*
X138299460Y-138828120D01*
G75*
G02*
X138549460Y-139078120I0J-250000D01*
G01*
G37*
G36*
G01*
X138684460Y-140330620D02*
X138684460Y-141030620D01*
G75*
G02*
X138621960Y-141093120I-62500J0D01*
G01*
X138496960Y-141093120D01*
G75*
G02*
X138434460Y-141030620I0J62500D01*
G01*
X138434460Y-140330620D01*
G75*
G02*
X138496960Y-140268120I62500J0D01*
G01*
X138621960Y-140268120D01*
G75*
G02*
X138684460Y-140330620I0J-62500D01*
G01*
G37*
G36*
G01*
X138184460Y-140330620D02*
X138184460Y-141030620D01*
G75*
G02*
X138121960Y-141093120I-62500J0D01*
G01*
X137996960Y-141093120D01*
G75*
G02*
X137934460Y-141030620I0J62500D01*
G01*
X137934460Y-140330620D01*
G75*
G02*
X137996960Y-140268120I62500J0D01*
G01*
X138121960Y-140268120D01*
G75*
G02*
X138184460Y-140330620I0J-62500D01*
G01*
G37*
G36*
G01*
X137684460Y-140330620D02*
X137684460Y-141030620D01*
G75*
G02*
X137621960Y-141093120I-62500J0D01*
G01*
X137496960Y-141093120D01*
G75*
G02*
X137434460Y-141030620I0J62500D01*
G01*
X137434460Y-140330620D01*
G75*
G02*
X137496960Y-140268120I62500J0D01*
G01*
X137621960Y-140268120D01*
G75*
G02*
X137684460Y-140330620I0J-62500D01*
G01*
G37*
G36*
G01*
X137184460Y-140330620D02*
X137184460Y-141030620D01*
G75*
G02*
X137121960Y-141093120I-62500J0D01*
G01*
X136996960Y-141093120D01*
G75*
G02*
X136934460Y-141030620I0J62500D01*
G01*
X136934460Y-140330620D01*
G75*
G02*
X136996960Y-140268120I62500J0D01*
G01*
X137121960Y-140268120D01*
G75*
G02*
X137184460Y-140330620I0J-62500D01*
G01*
G37*
G36*
G01*
X136684460Y-140330620D02*
X136684460Y-141030620D01*
G75*
G02*
X136621960Y-141093120I-62500J0D01*
G01*
X136496960Y-141093120D01*
G75*
G02*
X136434460Y-141030620I0J62500D01*
G01*
X136434460Y-140330620D01*
G75*
G02*
X136496960Y-140268120I62500J0D01*
G01*
X136621960Y-140268120D01*
G75*
G02*
X136684460Y-140330620I0J-62500D01*
G01*
G37*
G36*
G01*
X136184460Y-140330620D02*
X136184460Y-141030620D01*
G75*
G02*
X136121960Y-141093120I-62500J0D01*
G01*
X135996960Y-141093120D01*
G75*
G02*
X135934460Y-141030620I0J62500D01*
G01*
X135934460Y-140330620D01*
G75*
G02*
X135996960Y-140268120I62500J0D01*
G01*
X136121960Y-140268120D01*
G75*
G02*
X136184460Y-140330620I0J-62500D01*
G01*
G37*
G36*
G01*
X135759460Y-139905620D02*
X135759460Y-140030620D01*
G75*
G02*
X135696960Y-140093120I-62500J0D01*
G01*
X134996960Y-140093120D01*
G75*
G02*
X134934460Y-140030620I0J62500D01*
G01*
X134934460Y-139905620D01*
G75*
G02*
X134996960Y-139843120I62500J0D01*
G01*
X135696960Y-139843120D01*
G75*
G02*
X135759460Y-139905620I0J-62500D01*
G01*
G37*
G36*
G01*
X135759460Y-139405620D02*
X135759460Y-139530620D01*
G75*
G02*
X135696960Y-139593120I-62500J0D01*
G01*
X134996960Y-139593120D01*
G75*
G02*
X134934460Y-139530620I0J62500D01*
G01*
X134934460Y-139405620D01*
G75*
G02*
X134996960Y-139343120I62500J0D01*
G01*
X135696960Y-139343120D01*
G75*
G02*
X135759460Y-139405620I0J-62500D01*
G01*
G37*
G36*
G01*
X135759460Y-138905620D02*
X135759460Y-139030620D01*
G75*
G02*
X135696960Y-139093120I-62500J0D01*
G01*
X134996960Y-139093120D01*
G75*
G02*
X134934460Y-139030620I0J62500D01*
G01*
X134934460Y-138905620D01*
G75*
G02*
X134996960Y-138843120I62500J0D01*
G01*
X135696960Y-138843120D01*
G75*
G02*
X135759460Y-138905620I0J-62500D01*
G01*
G37*
G36*
G01*
X135759460Y-138405620D02*
X135759460Y-138530620D01*
G75*
G02*
X135696960Y-138593120I-62500J0D01*
G01*
X134996960Y-138593120D01*
G75*
G02*
X134934460Y-138530620I0J62500D01*
G01*
X134934460Y-138405620D01*
G75*
G02*
X134996960Y-138343120I62500J0D01*
G01*
X135696960Y-138343120D01*
G75*
G02*
X135759460Y-138405620I0J-62500D01*
G01*
G37*
G36*
G01*
X135759460Y-137905620D02*
X135759460Y-138030620D01*
G75*
G02*
X135696960Y-138093120I-62500J0D01*
G01*
X134996960Y-138093120D01*
G75*
G02*
X134934460Y-138030620I0J62500D01*
G01*
X134934460Y-137905620D01*
G75*
G02*
X134996960Y-137843120I62500J0D01*
G01*
X135696960Y-137843120D01*
G75*
G02*
X135759460Y-137905620I0J-62500D01*
G01*
G37*
G36*
G01*
X135759460Y-137405620D02*
X135759460Y-137530620D01*
G75*
G02*
X135696960Y-137593120I-62500J0D01*
G01*
X134996960Y-137593120D01*
G75*
G02*
X134934460Y-137530620I0J62500D01*
G01*
X134934460Y-137405620D01*
G75*
G02*
X134996960Y-137343120I62500J0D01*
G01*
X135696960Y-137343120D01*
G75*
G02*
X135759460Y-137405620I0J-62500D01*
G01*
G37*
G36*
G01*
X136184460Y-136405620D02*
X136184460Y-137105620D01*
G75*
G02*
X136121960Y-137168120I-62500J0D01*
G01*
X135996960Y-137168120D01*
G75*
G02*
X135934460Y-137105620I0J62500D01*
G01*
X135934460Y-136405620D01*
G75*
G02*
X135996960Y-136343120I62500J0D01*
G01*
X136121960Y-136343120D01*
G75*
G02*
X136184460Y-136405620I0J-62500D01*
G01*
G37*
G36*
G01*
X136684460Y-136405620D02*
X136684460Y-137105620D01*
G75*
G02*
X136621960Y-137168120I-62500J0D01*
G01*
X136496960Y-137168120D01*
G75*
G02*
X136434460Y-137105620I0J62500D01*
G01*
X136434460Y-136405620D01*
G75*
G02*
X136496960Y-136343120I62500J0D01*
G01*
X136621960Y-136343120D01*
G75*
G02*
X136684460Y-136405620I0J-62500D01*
G01*
G37*
G36*
G01*
X137184460Y-136405620D02*
X137184460Y-137105620D01*
G75*
G02*
X137121960Y-137168120I-62500J0D01*
G01*
X136996960Y-137168120D01*
G75*
G02*
X136934460Y-137105620I0J62500D01*
G01*
X136934460Y-136405620D01*
G75*
G02*
X136996960Y-136343120I62500J0D01*
G01*
X137121960Y-136343120D01*
G75*
G02*
X137184460Y-136405620I0J-62500D01*
G01*
G37*
G36*
G01*
X137684460Y-136405620D02*
X137684460Y-137105620D01*
G75*
G02*
X137621960Y-137168120I-62500J0D01*
G01*
X137496960Y-137168120D01*
G75*
G02*
X137434460Y-137105620I0J62500D01*
G01*
X137434460Y-136405620D01*
G75*
G02*
X137496960Y-136343120I62500J0D01*
G01*
X137621960Y-136343120D01*
G75*
G02*
X137684460Y-136405620I0J-62500D01*
G01*
G37*
G36*
G01*
X138184460Y-136405620D02*
X138184460Y-137105620D01*
G75*
G02*
X138121960Y-137168120I-62500J0D01*
G01*
X137996960Y-137168120D01*
G75*
G02*
X137934460Y-137105620I0J62500D01*
G01*
X137934460Y-136405620D01*
G75*
G02*
X137996960Y-136343120I62500J0D01*
G01*
X138121960Y-136343120D01*
G75*
G02*
X138184460Y-136405620I0J-62500D01*
G01*
G37*
G36*
G01*
X138684460Y-136405620D02*
X138684460Y-137105620D01*
G75*
G02*
X138621960Y-137168120I-62500J0D01*
G01*
X138496960Y-137168120D01*
G75*
G02*
X138434460Y-137105620I0J62500D01*
G01*
X138434460Y-136405620D01*
G75*
G02*
X138496960Y-136343120I62500J0D01*
G01*
X138621960Y-136343120D01*
G75*
G02*
X138684460Y-136405620I0J-62500D01*
G01*
G37*
G36*
G01*
X139684460Y-137405620D02*
X139684460Y-137530620D01*
G75*
G02*
X139621960Y-137593120I-62500J0D01*
G01*
X138921960Y-137593120D01*
G75*
G02*
X138859460Y-137530620I0J62500D01*
G01*
X138859460Y-137405620D01*
G75*
G02*
X138921960Y-137343120I62500J0D01*
G01*
X139621960Y-137343120D01*
G75*
G02*
X139684460Y-137405620I0J-62500D01*
G01*
G37*
G36*
G01*
X139684460Y-137905620D02*
X139684460Y-138030620D01*
G75*
G02*
X139621960Y-138093120I-62500J0D01*
G01*
X138921960Y-138093120D01*
G75*
G02*
X138859460Y-138030620I0J62500D01*
G01*
X138859460Y-137905620D01*
G75*
G02*
X138921960Y-137843120I62500J0D01*
G01*
X139621960Y-137843120D01*
G75*
G02*
X139684460Y-137905620I0J-62500D01*
G01*
G37*
G36*
G01*
X139684460Y-138405620D02*
X139684460Y-138530620D01*
G75*
G02*
X139621960Y-138593120I-62500J0D01*
G01*
X138921960Y-138593120D01*
G75*
G02*
X138859460Y-138530620I0J62500D01*
G01*
X138859460Y-138405620D01*
G75*
G02*
X138921960Y-138343120I62500J0D01*
G01*
X139621960Y-138343120D01*
G75*
G02*
X139684460Y-138405620I0J-62500D01*
G01*
G37*
G36*
G01*
X139684460Y-138905620D02*
X139684460Y-139030620D01*
G75*
G02*
X139621960Y-139093120I-62500J0D01*
G01*
X138921960Y-139093120D01*
G75*
G02*
X138859460Y-139030620I0J62500D01*
G01*
X138859460Y-138905620D01*
G75*
G02*
X138921960Y-138843120I62500J0D01*
G01*
X139621960Y-138843120D01*
G75*
G02*
X139684460Y-138905620I0J-62500D01*
G01*
G37*
G36*
G01*
X139684460Y-139405620D02*
X139684460Y-139530620D01*
G75*
G02*
X139621960Y-139593120I-62500J0D01*
G01*
X138921960Y-139593120D01*
G75*
G02*
X138859460Y-139530620I0J62500D01*
G01*
X138859460Y-139405620D01*
G75*
G02*
X138921960Y-139343120I62500J0D01*
G01*
X139621960Y-139343120D01*
G75*
G02*
X139684460Y-139405620I0J-62500D01*
G01*
G37*
G36*
G01*
X139684460Y-139905620D02*
X139684460Y-140030620D01*
G75*
G02*
X139621960Y-140093120I-62500J0D01*
G01*
X138921960Y-140093120D01*
G75*
G02*
X138859460Y-140030620I0J62500D01*
G01*
X138859460Y-139905620D01*
G75*
G02*
X138921960Y-139843120I62500J0D01*
G01*
X139621960Y-139843120D01*
G75*
G02*
X139684460Y-139905620I0J-62500D01*
G01*
G37*
%TD*%
%TO.C,R1*%
G36*
G01*
X143990350Y-110926260D02*
X144502850Y-110926260D01*
G75*
G02*
X144721600Y-111145010I0J-218750D01*
G01*
X144721600Y-111582510D01*
G75*
G02*
X144502850Y-111801260I-218750J0D01*
G01*
X143990350Y-111801260D01*
G75*
G02*
X143771600Y-111582510I0J218750D01*
G01*
X143771600Y-111145010D01*
G75*
G02*
X143990350Y-110926260I218750J0D01*
G01*
G37*
G36*
G01*
X143990350Y-109351260D02*
X144502850Y-109351260D01*
G75*
G02*
X144721600Y-109570010I0J-218750D01*
G01*
X144721600Y-110007510D01*
G75*
G02*
X144502850Y-110226260I-218750J0D01*
G01*
X143990350Y-110226260D01*
G75*
G02*
X143771600Y-110007510I0J218750D01*
G01*
X143771600Y-109570010D01*
G75*
G02*
X143990350Y-109351260I218750J0D01*
G01*
G37*
%TD*%
%TO.C,U2*%
G36*
G01*
X148738240Y-142501880D02*
X148738240Y-141931880D01*
G75*
G02*
X148858240Y-141811880I120000J0D01*
G01*
X149098240Y-141811880D01*
G75*
G02*
X149218240Y-141931880I0J-120000D01*
G01*
X149218240Y-142501880D01*
G75*
G02*
X149098240Y-142621880I-120000J0D01*
G01*
X148858240Y-142621880D01*
G75*
G02*
X148738240Y-142501880I0J120000D01*
G01*
G37*
G36*
G01*
X148738240Y-141501880D02*
X148738240Y-140931880D01*
G75*
G02*
X148858240Y-140811880I120000J0D01*
G01*
X149098240Y-140811880D01*
G75*
G02*
X149218240Y-140931880I0J-120000D01*
G01*
X149218240Y-141501880D01*
G75*
G02*
X149098240Y-141621880I-120000J0D01*
G01*
X148858240Y-141621880D01*
G75*
G02*
X148738240Y-141501880I0J120000D01*
G01*
G37*
G36*
G01*
X148138240Y-142501880D02*
X148138240Y-141931880D01*
G75*
G02*
X148258240Y-141811880I120000J0D01*
G01*
X148498240Y-141811880D01*
G75*
G02*
X148618240Y-141931880I0J-120000D01*
G01*
X148618240Y-142501880D01*
G75*
G02*
X148498240Y-142621880I-120000J0D01*
G01*
X148258240Y-142621880D01*
G75*
G02*
X148138240Y-142501880I0J120000D01*
G01*
G37*
G36*
G01*
X148138240Y-141501880D02*
X148138240Y-140931880D01*
G75*
G02*
X148258240Y-140811880I120000J0D01*
G01*
X148498240Y-140811880D01*
G75*
G02*
X148618240Y-140931880I0J-120000D01*
G01*
X148618240Y-141501880D01*
G75*
G02*
X148498240Y-141621880I-120000J0D01*
G01*
X148258240Y-141621880D01*
G75*
G02*
X148138240Y-141501880I0J120000D01*
G01*
G37*
G36*
G01*
X149478240Y-140779380D02*
X149478240Y-140654380D01*
G75*
G02*
X149540740Y-140591880I62500J0D01*
G01*
X150240740Y-140591880D01*
G75*
G02*
X150303240Y-140654380I0J-62500D01*
G01*
X150303240Y-140779380D01*
G75*
G02*
X150240740Y-140841880I-62500J0D01*
G01*
X149540740Y-140841880D01*
G75*
G02*
X149478240Y-140779380I0J62500D01*
G01*
G37*
G36*
G01*
X149478240Y-141279380D02*
X149478240Y-141154380D01*
G75*
G02*
X149540740Y-141091880I62500J0D01*
G01*
X150240740Y-141091880D01*
G75*
G02*
X150303240Y-141154380I0J-62500D01*
G01*
X150303240Y-141279380D01*
G75*
G02*
X150240740Y-141341880I-62500J0D01*
G01*
X149540740Y-141341880D01*
G75*
G02*
X149478240Y-141279380I0J62500D01*
G01*
G37*
G36*
G01*
X149478240Y-141779380D02*
X149478240Y-141654380D01*
G75*
G02*
X149540740Y-141591880I62500J0D01*
G01*
X150240740Y-141591880D01*
G75*
G02*
X150303240Y-141654380I0J-62500D01*
G01*
X150303240Y-141779380D01*
G75*
G02*
X150240740Y-141841880I-62500J0D01*
G01*
X149540740Y-141841880D01*
G75*
G02*
X149478240Y-141779380I0J62500D01*
G01*
G37*
G36*
G01*
X149478240Y-142279380D02*
X149478240Y-142154380D01*
G75*
G02*
X149540740Y-142091880I62500J0D01*
G01*
X150240740Y-142091880D01*
G75*
G02*
X150303240Y-142154380I0J-62500D01*
G01*
X150303240Y-142279380D01*
G75*
G02*
X150240740Y-142341880I-62500J0D01*
G01*
X149540740Y-142341880D01*
G75*
G02*
X149478240Y-142279380I0J62500D01*
G01*
G37*
G36*
G01*
X149478240Y-142779380D02*
X149478240Y-142654380D01*
G75*
G02*
X149540740Y-142591880I62500J0D01*
G01*
X150240740Y-142591880D01*
G75*
G02*
X150303240Y-142654380I0J-62500D01*
G01*
X150303240Y-142779380D01*
G75*
G02*
X150240740Y-142841880I-62500J0D01*
G01*
X149540740Y-142841880D01*
G75*
G02*
X149478240Y-142779380I0J62500D01*
G01*
G37*
G36*
G01*
X147053240Y-142779380D02*
X147053240Y-142654380D01*
G75*
G02*
X147115740Y-142591880I62500J0D01*
G01*
X147815740Y-142591880D01*
G75*
G02*
X147878240Y-142654380I0J-62500D01*
G01*
X147878240Y-142779380D01*
G75*
G02*
X147815740Y-142841880I-62500J0D01*
G01*
X147115740Y-142841880D01*
G75*
G02*
X147053240Y-142779380I0J62500D01*
G01*
G37*
G36*
G01*
X147053240Y-142279380D02*
X147053240Y-142154380D01*
G75*
G02*
X147115740Y-142091880I62500J0D01*
G01*
X147815740Y-142091880D01*
G75*
G02*
X147878240Y-142154380I0J-62500D01*
G01*
X147878240Y-142279380D01*
G75*
G02*
X147815740Y-142341880I-62500J0D01*
G01*
X147115740Y-142341880D01*
G75*
G02*
X147053240Y-142279380I0J62500D01*
G01*
G37*
G36*
G01*
X147053240Y-141779380D02*
X147053240Y-141654380D01*
G75*
G02*
X147115740Y-141591880I62500J0D01*
G01*
X147815740Y-141591880D01*
G75*
G02*
X147878240Y-141654380I0J-62500D01*
G01*
X147878240Y-141779380D01*
G75*
G02*
X147815740Y-141841880I-62500J0D01*
G01*
X147115740Y-141841880D01*
G75*
G02*
X147053240Y-141779380I0J62500D01*
G01*
G37*
G36*
G01*
X147053240Y-141279380D02*
X147053240Y-141154380D01*
G75*
G02*
X147115740Y-141091880I62500J0D01*
G01*
X147815740Y-141091880D01*
G75*
G02*
X147878240Y-141154380I0J-62500D01*
G01*
X147878240Y-141279380D01*
G75*
G02*
X147815740Y-141341880I-62500J0D01*
G01*
X147115740Y-141341880D01*
G75*
G02*
X147053240Y-141279380I0J62500D01*
G01*
G37*
G36*
G01*
X147053240Y-140779380D02*
X147053240Y-140654380D01*
G75*
G02*
X147115740Y-140591880I62500J0D01*
G01*
X147815740Y-140591880D01*
G75*
G02*
X147878240Y-140654380I0J-62500D01*
G01*
X147878240Y-140779380D01*
G75*
G02*
X147815740Y-140841880I-62500J0D01*
G01*
X147115740Y-140841880D01*
G75*
G02*
X147053240Y-140779380I0J62500D01*
G01*
G37*
%TD*%
%TO.C,R6*%
G36*
G01*
X143870460Y-132832200D02*
X143525460Y-132832200D01*
G75*
G02*
X143377960Y-132684700I0J147500D01*
G01*
X143377960Y-132389700D01*
G75*
G02*
X143525460Y-132242200I147500J0D01*
G01*
X143870460Y-132242200D01*
G75*
G02*
X144017960Y-132389700I0J-147500D01*
G01*
X144017960Y-132684700D01*
G75*
G02*
X143870460Y-132832200I-147500J0D01*
G01*
G37*
G36*
G01*
X143870460Y-133802200D02*
X143525460Y-133802200D01*
G75*
G02*
X143377960Y-133654700I0J147500D01*
G01*
X143377960Y-133359700D01*
G75*
G02*
X143525460Y-133212200I147500J0D01*
G01*
X143870460Y-133212200D01*
G75*
G02*
X144017960Y-133359700I0J-147500D01*
G01*
X144017960Y-133654700D01*
G75*
G02*
X143870460Y-133802200I-147500J0D01*
G01*
G37*
%TD*%
%TO.C,R5*%
G36*
G01*
X146176780Y-141270360D02*
X145831780Y-141270360D01*
G75*
G02*
X145684280Y-141122860I0J147500D01*
G01*
X145684280Y-140827860D01*
G75*
G02*
X145831780Y-140680360I147500J0D01*
G01*
X146176780Y-140680360D01*
G75*
G02*
X146324280Y-140827860I0J-147500D01*
G01*
X146324280Y-141122860D01*
G75*
G02*
X146176780Y-141270360I-147500J0D01*
G01*
G37*
G36*
G01*
X146176780Y-142240360D02*
X145831780Y-142240360D01*
G75*
G02*
X145684280Y-142092860I0J147500D01*
G01*
X145684280Y-141797860D01*
G75*
G02*
X145831780Y-141650360I147500J0D01*
G01*
X146176780Y-141650360D01*
G75*
G02*
X146324280Y-141797860I0J-147500D01*
G01*
X146324280Y-142092860D01*
G75*
G02*
X146176780Y-142240360I-147500J0D01*
G01*
G37*
%TD*%
%TO.C,R4*%
G36*
G01*
X145831780Y-143621120D02*
X146176780Y-143621120D01*
G75*
G02*
X146324280Y-143768620I0J-147500D01*
G01*
X146324280Y-144063620D01*
G75*
G02*
X146176780Y-144211120I-147500J0D01*
G01*
X145831780Y-144211120D01*
G75*
G02*
X145684280Y-144063620I0J147500D01*
G01*
X145684280Y-143768620D01*
G75*
G02*
X145831780Y-143621120I147500J0D01*
G01*
G37*
G36*
G01*
X145831780Y-142651120D02*
X146176780Y-142651120D01*
G75*
G02*
X146324280Y-142798620I0J-147500D01*
G01*
X146324280Y-143093620D01*
G75*
G02*
X146176780Y-143241120I-147500J0D01*
G01*
X145831780Y-143241120D01*
G75*
G02*
X145684280Y-143093620I0J147500D01*
G01*
X145684280Y-142798620D01*
G75*
G02*
X145831780Y-142651120I147500J0D01*
G01*
G37*
%TD*%
%TO.C,R3*%
G36*
G01*
X143525460Y-129999240D02*
X143870460Y-129999240D01*
G75*
G02*
X144017960Y-130146740I0J-147500D01*
G01*
X144017960Y-130441740D01*
G75*
G02*
X143870460Y-130589240I-147500J0D01*
G01*
X143525460Y-130589240D01*
G75*
G02*
X143377960Y-130441740I0J147500D01*
G01*
X143377960Y-130146740D01*
G75*
G02*
X143525460Y-129999240I147500J0D01*
G01*
G37*
G36*
G01*
X143525460Y-129029240D02*
X143870460Y-129029240D01*
G75*
G02*
X144017960Y-129176740I0J-147500D01*
G01*
X144017960Y-129471740D01*
G75*
G02*
X143870460Y-129619240I-147500J0D01*
G01*
X143525460Y-129619240D01*
G75*
G02*
X143377960Y-129471740I0J147500D01*
G01*
X143377960Y-129176740D01*
G75*
G02*
X143525460Y-129029240I147500J0D01*
G01*
G37*
%TD*%
%TO.C,R2*%
G36*
G01*
X143022960Y-131323300D02*
X143022960Y-131668300D01*
G75*
G02*
X142875460Y-131815800I-147500J0D01*
G01*
X142580460Y-131815800D01*
G75*
G02*
X142432960Y-131668300I0J147500D01*
G01*
X142432960Y-131323300D01*
G75*
G02*
X142580460Y-131175800I147500J0D01*
G01*
X142875460Y-131175800D01*
G75*
G02*
X143022960Y-131323300I0J-147500D01*
G01*
G37*
G36*
G01*
X143992960Y-131323300D02*
X143992960Y-131668300D01*
G75*
G02*
X143845460Y-131815800I-147500J0D01*
G01*
X143550460Y-131815800D01*
G75*
G02*
X143402960Y-131668300I0J147500D01*
G01*
X143402960Y-131323300D01*
G75*
G02*
X143550460Y-131175800I147500J0D01*
G01*
X143845460Y-131175800D01*
G75*
G02*
X143992960Y-131323300I0J-147500D01*
G01*
G37*
%TD*%
%TO.C,C15*%
G36*
G01*
X141986640Y-133329900D02*
X141986640Y-133674900D01*
G75*
G02*
X141839140Y-133822400I-147500J0D01*
G01*
X141544140Y-133822400D01*
G75*
G02*
X141396640Y-133674900I0J147500D01*
G01*
X141396640Y-133329900D01*
G75*
G02*
X141544140Y-133182400I147500J0D01*
G01*
X141839140Y-133182400D01*
G75*
G02*
X141986640Y-133329900I0J-147500D01*
G01*
G37*
G36*
G01*
X142956640Y-133329900D02*
X142956640Y-133674900D01*
G75*
G02*
X142809140Y-133822400I-147500J0D01*
G01*
X142514140Y-133822400D01*
G75*
G02*
X142366640Y-133674900I0J147500D01*
G01*
X142366640Y-133329900D01*
G75*
G02*
X142514140Y-133182400I147500J0D01*
G01*
X142809140Y-133182400D01*
G75*
G02*
X142956640Y-133329900I0J-147500D01*
G01*
G37*
%TD*%
%TO.C,C13*%
G36*
G01*
X147405410Y-137952300D02*
X146492910Y-137952300D01*
G75*
G02*
X146249160Y-137708550I0J243750D01*
G01*
X146249160Y-137221050D01*
G75*
G02*
X146492910Y-136977300I243750J0D01*
G01*
X147405410Y-136977300D01*
G75*
G02*
X147649160Y-137221050I0J-243750D01*
G01*
X147649160Y-137708550D01*
G75*
G02*
X147405410Y-137952300I-243750J0D01*
G01*
G37*
G36*
G01*
X147405410Y-139827300D02*
X146492910Y-139827300D01*
G75*
G02*
X146249160Y-139583550I0J243750D01*
G01*
X146249160Y-139096050D01*
G75*
G02*
X146492910Y-138852300I243750J0D01*
G01*
X147405410Y-138852300D01*
G75*
G02*
X147649160Y-139096050I0J-243750D01*
G01*
X147649160Y-139583550D01*
G75*
G02*
X147405410Y-139827300I-243750J0D01*
G01*
G37*
%TD*%
%TO.C,C9*%
G36*
G01*
X137049190Y-119949520D02*
X137961690Y-119949520D01*
G75*
G02*
X138205440Y-120193270I0J-243750D01*
G01*
X138205440Y-120680770D01*
G75*
G02*
X137961690Y-120924520I-243750J0D01*
G01*
X137049190Y-120924520D01*
G75*
G02*
X136805440Y-120680770I0J243750D01*
G01*
X136805440Y-120193270D01*
G75*
G02*
X137049190Y-119949520I243750J0D01*
G01*
G37*
G36*
G01*
X137049190Y-118074520D02*
X137961690Y-118074520D01*
G75*
G02*
X138205440Y-118318270I0J-243750D01*
G01*
X138205440Y-118805770D01*
G75*
G02*
X137961690Y-119049520I-243750J0D01*
G01*
X137049190Y-119049520D01*
G75*
G02*
X136805440Y-118805770I0J243750D01*
G01*
X136805440Y-118318270D01*
G75*
G02*
X137049190Y-118074520I243750J0D01*
G01*
G37*
%TD*%
%TO.C,C6*%
G36*
G01*
X151302500Y-142225400D02*
X150957500Y-142225400D01*
G75*
G02*
X150810000Y-142077900I0J147500D01*
G01*
X150810000Y-141782900D01*
G75*
G02*
X150957500Y-141635400I147500J0D01*
G01*
X151302500Y-141635400D01*
G75*
G02*
X151450000Y-141782900I0J-147500D01*
G01*
X151450000Y-142077900D01*
G75*
G02*
X151302500Y-142225400I-147500J0D01*
G01*
G37*
G36*
G01*
X151302500Y-143195400D02*
X150957500Y-143195400D01*
G75*
G02*
X150810000Y-143047900I0J147500D01*
G01*
X150810000Y-142752900D01*
G75*
G02*
X150957500Y-142605400I147500J0D01*
G01*
X151302500Y-142605400D01*
G75*
G02*
X151450000Y-142752900I0J-147500D01*
G01*
X151450000Y-143047900D01*
G75*
G02*
X151302500Y-143195400I-147500J0D01*
G01*
G37*
%TD*%
%TO.C,C1*%
G36*
G01*
X151083330Y-137992460D02*
X150170830Y-137992460D01*
G75*
G02*
X149927080Y-137748710I0J243750D01*
G01*
X149927080Y-137261210D01*
G75*
G02*
X150170830Y-137017460I243750J0D01*
G01*
X151083330Y-137017460D01*
G75*
G02*
X151327080Y-137261210I0J-243750D01*
G01*
X151327080Y-137748710D01*
G75*
G02*
X151083330Y-137992460I-243750J0D01*
G01*
G37*
G36*
G01*
X151083330Y-139867460D02*
X150170830Y-139867460D01*
G75*
G02*
X149927080Y-139623710I0J243750D01*
G01*
X149927080Y-139136210D01*
G75*
G02*
X150170830Y-138892460I243750J0D01*
G01*
X151083330Y-138892460D01*
G75*
G02*
X151327080Y-139136210I0J-243750D01*
G01*
X151327080Y-139623710D01*
G75*
G02*
X151083330Y-139867460I-243750J0D01*
G01*
G37*
%TD*%
D10*
%TO.C,D1*%
X137490200Y-123007120D03*
X139490200Y-122057120D03*
X139490200Y-123957120D03*
%TD*%
%TO.C,C2*%
G36*
G01*
X135625200Y-142168660D02*
X135625200Y-141823660D01*
G75*
G02*
X135772700Y-141676160I147500J0D01*
G01*
X136067700Y-141676160D01*
G75*
G02*
X136215200Y-141823660I0J-147500D01*
G01*
X136215200Y-142168660D01*
G75*
G02*
X136067700Y-142316160I-147500J0D01*
G01*
X135772700Y-142316160D01*
G75*
G02*
X135625200Y-142168660I0J147500D01*
G01*
G37*
G36*
G01*
X134655200Y-142168660D02*
X134655200Y-141823660D01*
G75*
G02*
X134802700Y-141676160I147500J0D01*
G01*
X135097700Y-141676160D01*
G75*
G02*
X135245200Y-141823660I0J-147500D01*
G01*
X135245200Y-142168660D01*
G75*
G02*
X135097700Y-142316160I-147500J0D01*
G01*
X134802700Y-142316160D01*
G75*
G02*
X134655200Y-142168660I0J147500D01*
G01*
G37*
%TD*%
%TO.C,C3*%
G36*
G01*
X139055200Y-141823660D02*
X139055200Y-142168660D01*
G75*
G02*
X138907700Y-142316160I-147500J0D01*
G01*
X138612700Y-142316160D01*
G75*
G02*
X138465200Y-142168660I0J147500D01*
G01*
X138465200Y-141823660D01*
G75*
G02*
X138612700Y-141676160I147500J0D01*
G01*
X138907700Y-141676160D01*
G75*
G02*
X139055200Y-141823660I0J-147500D01*
G01*
G37*
G36*
G01*
X140025200Y-141823660D02*
X140025200Y-142168660D01*
G75*
G02*
X139877700Y-142316160I-147500J0D01*
G01*
X139582700Y-142316160D01*
G75*
G02*
X139435200Y-142168660I0J147500D01*
G01*
X139435200Y-141823660D01*
G75*
G02*
X139582700Y-141676160I147500J0D01*
G01*
X139877700Y-141676160D01*
G75*
G02*
X140025200Y-141823660I0J-147500D01*
G01*
G37*
%TD*%
%TO.C,C4*%
G36*
G01*
X134400900Y-143089310D02*
X134400900Y-144001810D01*
G75*
G02*
X134157150Y-144245560I-243750J0D01*
G01*
X133669650Y-144245560D01*
G75*
G02*
X133425900Y-144001810I0J243750D01*
G01*
X133425900Y-143089310D01*
G75*
G02*
X133669650Y-142845560I243750J0D01*
G01*
X134157150Y-142845560D01*
G75*
G02*
X134400900Y-143089310I0J-243750D01*
G01*
G37*
G36*
G01*
X136275900Y-143089310D02*
X136275900Y-144001810D01*
G75*
G02*
X136032150Y-144245560I-243750J0D01*
G01*
X135544650Y-144245560D01*
G75*
G02*
X135300900Y-144001810I0J243750D01*
G01*
X135300900Y-143089310D01*
G75*
G02*
X135544650Y-142845560I243750J0D01*
G01*
X136032150Y-142845560D01*
G75*
G02*
X136275900Y-143089310I0J-243750D01*
G01*
G37*
%TD*%
%TO.C,C5*%
G36*
G01*
X140300100Y-144001810D02*
X140300100Y-143089310D01*
G75*
G02*
X140543850Y-142845560I243750J0D01*
G01*
X141031350Y-142845560D01*
G75*
G02*
X141275100Y-143089310I0J-243750D01*
G01*
X141275100Y-144001810D01*
G75*
G02*
X141031350Y-144245560I-243750J0D01*
G01*
X140543850Y-144245560D01*
G75*
G02*
X140300100Y-144001810I0J243750D01*
G01*
G37*
G36*
G01*
X138425100Y-144001810D02*
X138425100Y-143089310D01*
G75*
G02*
X138668850Y-142845560I243750J0D01*
G01*
X139156350Y-142845560D01*
G75*
G02*
X139400100Y-143089310I0J-243750D01*
G01*
X139400100Y-144001810D01*
G75*
G02*
X139156350Y-144245560I-243750J0D01*
G01*
X138668850Y-144245560D01*
G75*
G02*
X138425100Y-144001810I0J243750D01*
G01*
G37*
%TD*%
%TO.C,C7*%
G36*
G01*
X141091700Y-140482960D02*
X140746700Y-140482960D01*
G75*
G02*
X140599200Y-140335460I0J147500D01*
G01*
X140599200Y-140040460D01*
G75*
G02*
X140746700Y-139892960I147500J0D01*
G01*
X141091700Y-139892960D01*
G75*
G02*
X141239200Y-140040460I0J-147500D01*
G01*
X141239200Y-140335460D01*
G75*
G02*
X141091700Y-140482960I-147500J0D01*
G01*
G37*
G36*
G01*
X141091700Y-141452960D02*
X140746700Y-141452960D01*
G75*
G02*
X140599200Y-141305460I0J147500D01*
G01*
X140599200Y-141010460D01*
G75*
G02*
X140746700Y-140862960I147500J0D01*
G01*
X141091700Y-140862960D01*
G75*
G02*
X141239200Y-141010460I0J-147500D01*
G01*
X141239200Y-141305460D01*
G75*
G02*
X141091700Y-141452960I-147500J0D01*
G01*
G37*
%TD*%
%TO.C,C8*%
G36*
G01*
X142194500Y-138576960D02*
X142539500Y-138576960D01*
G75*
G02*
X142687000Y-138724460I0J-147500D01*
G01*
X142687000Y-139019460D01*
G75*
G02*
X142539500Y-139166960I-147500J0D01*
G01*
X142194500Y-139166960D01*
G75*
G02*
X142047000Y-139019460I0J147500D01*
G01*
X142047000Y-138724460D01*
G75*
G02*
X142194500Y-138576960I147500J0D01*
G01*
G37*
G36*
G01*
X142194500Y-137606960D02*
X142539500Y-137606960D01*
G75*
G02*
X142687000Y-137754460I0J-147500D01*
G01*
X142687000Y-138049460D01*
G75*
G02*
X142539500Y-138196960I-147500J0D01*
G01*
X142194500Y-138196960D01*
G75*
G02*
X142047000Y-138049460I0J147500D01*
G01*
X142047000Y-137754460D01*
G75*
G02*
X142194500Y-137606960I147500J0D01*
G01*
G37*
%TD*%
%TO.C,C10*%
G36*
G01*
X142393350Y-141758060D02*
X143305850Y-141758060D01*
G75*
G02*
X143549600Y-142001810I0J-243750D01*
G01*
X143549600Y-142489310D01*
G75*
G02*
X143305850Y-142733060I-243750J0D01*
G01*
X142393350Y-142733060D01*
G75*
G02*
X142149600Y-142489310I0J243750D01*
G01*
X142149600Y-142001810D01*
G75*
G02*
X142393350Y-141758060I243750J0D01*
G01*
G37*
G36*
G01*
X142393350Y-139883060D02*
X143305850Y-139883060D01*
G75*
G02*
X143549600Y-140126810I0J-243750D01*
G01*
X143549600Y-140614310D01*
G75*
G02*
X143305850Y-140858060I-243750J0D01*
G01*
X142393350Y-140858060D01*
G75*
G02*
X142149600Y-140614310I0J243750D01*
G01*
X142149600Y-140126810D01*
G75*
G02*
X142393350Y-139883060I243750J0D01*
G01*
G37*
%TD*%
%TO.C,C14*%
G36*
G01*
X137780120Y-126736060D02*
X137780120Y-127081060D01*
G75*
G02*
X137632620Y-127228560I-147500J0D01*
G01*
X137337620Y-127228560D01*
G75*
G02*
X137190120Y-127081060I0J147500D01*
G01*
X137190120Y-126736060D01*
G75*
G02*
X137337620Y-126588560I147500J0D01*
G01*
X137632620Y-126588560D01*
G75*
G02*
X137780120Y-126736060I0J-147500D01*
G01*
G37*
G36*
G01*
X138750120Y-126736060D02*
X138750120Y-127081060D01*
G75*
G02*
X138602620Y-127228560I-147500J0D01*
G01*
X138307620Y-127228560D01*
G75*
G02*
X138160120Y-127081060I0J147500D01*
G01*
X138160120Y-126736060D01*
G75*
G02*
X138307620Y-126588560I147500J0D01*
G01*
X138602620Y-126588560D01*
G75*
G02*
X138750120Y-126736060I0J-147500D01*
G01*
G37*
%TD*%
%TO.C,C11*%
G36*
G01*
X144448850Y-137332060D02*
X143536350Y-137332060D01*
G75*
G02*
X143292600Y-137088310I0J243750D01*
G01*
X143292600Y-136600810D01*
G75*
G02*
X143536350Y-136357060I243750J0D01*
G01*
X144448850Y-136357060D01*
G75*
G02*
X144692600Y-136600810I0J-243750D01*
G01*
X144692600Y-137088310D01*
G75*
G02*
X144448850Y-137332060I-243750J0D01*
G01*
G37*
G36*
G01*
X144448850Y-139207060D02*
X143536350Y-139207060D01*
G75*
G02*
X143292600Y-138963310I0J243750D01*
G01*
X143292600Y-138475810D01*
G75*
G02*
X143536350Y-138232060I243750J0D01*
G01*
X144448850Y-138232060D01*
G75*
G02*
X144692600Y-138475810I0J-243750D01*
G01*
X144692600Y-138963310D01*
G75*
G02*
X144448850Y-139207060I-243750J0D01*
G01*
G37*
%TD*%
%TO.C,C12*%
G36*
G01*
X140746700Y-138480160D02*
X141091700Y-138480160D01*
G75*
G02*
X141239200Y-138627660I0J-147500D01*
G01*
X141239200Y-138922660D01*
G75*
G02*
X141091700Y-139070160I-147500J0D01*
G01*
X140746700Y-139070160D01*
G75*
G02*
X140599200Y-138922660I0J147500D01*
G01*
X140599200Y-138627660D01*
G75*
G02*
X140746700Y-138480160I147500J0D01*
G01*
G37*
G36*
G01*
X140746700Y-137510160D02*
X141091700Y-137510160D01*
G75*
G02*
X141239200Y-137657660I0J-147500D01*
G01*
X141239200Y-137952660D01*
G75*
G02*
X141091700Y-138100160I-147500J0D01*
G01*
X140746700Y-138100160D01*
G75*
G02*
X140599200Y-137952660I0J147500D01*
G01*
X140599200Y-137657660D01*
G75*
G02*
X140746700Y-137510160I147500J0D01*
G01*
G37*
%TD*%
%TO.C,C18*%
G36*
G01*
X139432800Y-135564660D02*
X139432800Y-135219660D01*
G75*
G02*
X139580300Y-135072160I147500J0D01*
G01*
X139875300Y-135072160D01*
G75*
G02*
X140022800Y-135219660I0J-147500D01*
G01*
X140022800Y-135564660D01*
G75*
G02*
X139875300Y-135712160I-147500J0D01*
G01*
X139580300Y-135712160D01*
G75*
G02*
X139432800Y-135564660I0J147500D01*
G01*
G37*
G36*
G01*
X138462800Y-135564660D02*
X138462800Y-135219660D01*
G75*
G02*
X138610300Y-135072160I147500J0D01*
G01*
X138905300Y-135072160D01*
G75*
G02*
X139052800Y-135219660I0J-147500D01*
G01*
X139052800Y-135564660D01*
G75*
G02*
X138905300Y-135712160I-147500J0D01*
G01*
X138610300Y-135712160D01*
G75*
G02*
X138462800Y-135564660I0J147500D01*
G01*
G37*
%TD*%
%TO.C,R7*%
G36*
G01*
X139755660Y-126238360D02*
X139410660Y-126238360D01*
G75*
G02*
X139263160Y-126090860I0J147500D01*
G01*
X139263160Y-125795860D01*
G75*
G02*
X139410660Y-125648360I147500J0D01*
G01*
X139755660Y-125648360D01*
G75*
G02*
X139903160Y-125795860I0J-147500D01*
G01*
X139903160Y-126090860D01*
G75*
G02*
X139755660Y-126238360I-147500J0D01*
G01*
G37*
G36*
G01*
X139755660Y-127208360D02*
X139410660Y-127208360D01*
G75*
G02*
X139263160Y-127060860I0J147500D01*
G01*
X139263160Y-126765860D01*
G75*
G02*
X139410660Y-126618360I147500J0D01*
G01*
X139755660Y-126618360D01*
G75*
G02*
X139903160Y-126765860I0J-147500D01*
G01*
X139903160Y-127060860D01*
G75*
G02*
X139755660Y-127208360I-147500J0D01*
G01*
G37*
%TD*%
%TO.C,U1*%
G36*
G01*
X145565460Y-111633600D02*
X145565460Y-111333600D01*
G75*
G02*
X145715460Y-111183600I150000J0D01*
G01*
X147365460Y-111183600D01*
G75*
G02*
X147515460Y-111333600I0J-150000D01*
G01*
X147515460Y-111633600D01*
G75*
G02*
X147365460Y-111783600I-150000J0D01*
G01*
X145715460Y-111783600D01*
G75*
G02*
X145565460Y-111633600I0J150000D01*
G01*
G37*
G36*
G01*
X145565460Y-112903600D02*
X145565460Y-112603600D01*
G75*
G02*
X145715460Y-112453600I150000J0D01*
G01*
X147365460Y-112453600D01*
G75*
G02*
X147515460Y-112603600I0J-150000D01*
G01*
X147515460Y-112903600D01*
G75*
G02*
X147365460Y-113053600I-150000J0D01*
G01*
X145715460Y-113053600D01*
G75*
G02*
X145565460Y-112903600I0J150000D01*
G01*
G37*
G36*
G01*
X145565460Y-114173600D02*
X145565460Y-113873600D01*
G75*
G02*
X145715460Y-113723600I150000J0D01*
G01*
X147365460Y-113723600D01*
G75*
G02*
X147515460Y-113873600I0J-150000D01*
G01*
X147515460Y-114173600D01*
G75*
G02*
X147365460Y-114323600I-150000J0D01*
G01*
X145715460Y-114323600D01*
G75*
G02*
X145565460Y-114173600I0J150000D01*
G01*
G37*
G36*
G01*
X145565460Y-115443600D02*
X145565460Y-115143600D01*
G75*
G02*
X145715460Y-114993600I150000J0D01*
G01*
X147365460Y-114993600D01*
G75*
G02*
X147515460Y-115143600I0J-150000D01*
G01*
X147515460Y-115443600D01*
G75*
G02*
X147365460Y-115593600I-150000J0D01*
G01*
X145715460Y-115593600D01*
G75*
G02*
X145565460Y-115443600I0J150000D01*
G01*
G37*
G36*
G01*
X150515460Y-115443600D02*
X150515460Y-115143600D01*
G75*
G02*
X150665460Y-114993600I150000J0D01*
G01*
X152315460Y-114993600D01*
G75*
G02*
X152465460Y-115143600I0J-150000D01*
G01*
X152465460Y-115443600D01*
G75*
G02*
X152315460Y-115593600I-150000J0D01*
G01*
X150665460Y-115593600D01*
G75*
G02*
X150515460Y-115443600I0J150000D01*
G01*
G37*
G36*
G01*
X150515460Y-114173600D02*
X150515460Y-113873600D01*
G75*
G02*
X150665460Y-113723600I150000J0D01*
G01*
X152315460Y-113723600D01*
G75*
G02*
X152465460Y-113873600I0J-150000D01*
G01*
X152465460Y-114173600D01*
G75*
G02*
X152315460Y-114323600I-150000J0D01*
G01*
X150665460Y-114323600D01*
G75*
G02*
X150515460Y-114173600I0J150000D01*
G01*
G37*
G36*
G01*
X150515460Y-112903600D02*
X150515460Y-112603600D01*
G75*
G02*
X150665460Y-112453600I150000J0D01*
G01*
X152315460Y-112453600D01*
G75*
G02*
X152465460Y-112603600I0J-150000D01*
G01*
X152465460Y-112903600D01*
G75*
G02*
X152315460Y-113053600I-150000J0D01*
G01*
X150665460Y-113053600D01*
G75*
G02*
X150515460Y-112903600I0J150000D01*
G01*
G37*
G36*
G01*
X150515460Y-111633600D02*
X150515460Y-111333600D01*
G75*
G02*
X150665460Y-111183600I150000J0D01*
G01*
X152315460Y-111183600D01*
G75*
G02*
X152465460Y-111333600I0J-150000D01*
G01*
X152465460Y-111633600D01*
G75*
G02*
X152315460Y-111783600I-150000J0D01*
G01*
X150665460Y-111783600D01*
G75*
G02*
X150515460Y-111633600I0J150000D01*
G01*
G37*
%TD*%
%TO.C,C16*%
G36*
G01*
X142230060Y-136484000D02*
X142575060Y-136484000D01*
G75*
G02*
X142722560Y-136631500I0J-147500D01*
G01*
X142722560Y-136926500D01*
G75*
G02*
X142575060Y-137074000I-147500J0D01*
G01*
X142230060Y-137074000D01*
G75*
G02*
X142082560Y-136926500I0J147500D01*
G01*
X142082560Y-136631500D01*
G75*
G02*
X142230060Y-136484000I147500J0D01*
G01*
G37*
G36*
G01*
X142230060Y-135514000D02*
X142575060Y-135514000D01*
G75*
G02*
X142722560Y-135661500I0J-147500D01*
G01*
X142722560Y-135956500D01*
G75*
G02*
X142575060Y-136104000I-147500J0D01*
G01*
X142230060Y-136104000D01*
G75*
G02*
X142082560Y-135956500I0J147500D01*
G01*
X142082560Y-135661500D01*
G75*
G02*
X142230060Y-135514000I147500J0D01*
G01*
G37*
%TD*%
%TO.C,D2*%
X144979640Y-131495760D03*
X146979640Y-130545760D03*
X146979640Y-132445760D03*
%TD*%
%TO.C,C17*%
G36*
G01*
X139405580Y-128640200D02*
X139750580Y-128640200D01*
G75*
G02*
X139898080Y-128787700I0J-147500D01*
G01*
X139898080Y-129082700D01*
G75*
G02*
X139750580Y-129230200I-147500J0D01*
G01*
X139405580Y-129230200D01*
G75*
G02*
X139258080Y-129082700I0J147500D01*
G01*
X139258080Y-128787700D01*
G75*
G02*
X139405580Y-128640200I147500J0D01*
G01*
G37*
G36*
G01*
X139405580Y-127670200D02*
X139750580Y-127670200D01*
G75*
G02*
X139898080Y-127817700I0J-147500D01*
G01*
X139898080Y-128112700D01*
G75*
G02*
X139750580Y-128260200I-147500J0D01*
G01*
X139405580Y-128260200D01*
G75*
G02*
X139258080Y-128112700I0J147500D01*
G01*
X139258080Y-127817700D01*
G75*
G02*
X139405580Y-127670200I147500J0D01*
G01*
G37*
%TD*%
%TO.C,C19*%
G36*
G01*
X135783100Y-128351920D02*
X135438100Y-128351920D01*
G75*
G02*
X135290600Y-128204420I0J147500D01*
G01*
X135290600Y-127909420D01*
G75*
G02*
X135438100Y-127761920I147500J0D01*
G01*
X135783100Y-127761920D01*
G75*
G02*
X135930600Y-127909420I0J-147500D01*
G01*
X135930600Y-128204420D01*
G75*
G02*
X135783100Y-128351920I-147500J0D01*
G01*
G37*
G36*
G01*
X135783100Y-129321920D02*
X135438100Y-129321920D01*
G75*
G02*
X135290600Y-129174420I0J147500D01*
G01*
X135290600Y-128879420D01*
G75*
G02*
X135438100Y-128731920I147500J0D01*
G01*
X135783100Y-128731920D01*
G75*
G02*
X135930600Y-128879420I0J-147500D01*
G01*
X135930600Y-129174420D01*
G75*
G02*
X135783100Y-129321920I-147500J0D01*
G01*
G37*
%TD*%
M02*
