%TF.GenerationSoftware,KiCad,Pcbnew,5.1.6*%
%TF.CreationDate,2020-07-27T19:16:26+00:00*%
%TF.ProjectId,SoundCard,536f756e-6443-4617-9264-2e6b69636164,rev?*%
%TF.SameCoordinates,Original*%
%TF.FileFunction,Legend,Top*%
%TF.FilePolarity,Positive*%
%FSLAX46Y46*%
G04 Gerber Fmt 4.6, Leading zero omitted, Abs format (unit mm)*
G04 Created by KiCad (PCBNEW 5.1.6) date 2020-07-27 19:16:26*
%MOMM*%
%LPD*%
G01*
G04 APERTURE LIST*
%ADD10C,0.120000*%
%ADD11C,0.150000*%
G04 APERTURE END LIST*
D10*
%TO.C,D1*%
X139545600Y-120604400D02*
X139545600Y-119674400D01*
X139545600Y-117444400D02*
X139545600Y-118374400D01*
X139545600Y-117444400D02*
X137385600Y-117444400D01*
X139545600Y-120604400D02*
X138085600Y-120604400D01*
%TO.C,J1*%
X135659200Y-94638200D02*
X138559200Y-94638200D01*
X135659200Y-101348200D02*
X138559200Y-101348200D01*
X140464200Y-96543200D02*
X140464200Y-99443200D01*
X133754200Y-96543200D02*
X133754200Y-99443200D01*
%TO.C,U4*%
X141789260Y-138481160D02*
X142264260Y-138481160D01*
X138044260Y-134261160D02*
X138044260Y-134736160D01*
X138519260Y-134261160D02*
X138044260Y-134261160D01*
X142264260Y-134261160D02*
X142264260Y-134736160D01*
X141789260Y-134261160D02*
X142264260Y-134261160D01*
X138044260Y-138481160D02*
X138044260Y-138006160D01*
X138519260Y-138481160D02*
X138044260Y-138481160D01*
%TO.C,C3*%
X137954278Y-141908600D02*
X137437122Y-141908600D01*
X137954278Y-140488600D02*
X137437122Y-140488600D01*
%TO.C,C4*%
X142436322Y-140488600D02*
X142953478Y-140488600D01*
X142436322Y-141908600D02*
X142953478Y-141908600D01*
%TO.C,C8*%
X146404400Y-138702522D02*
X146404400Y-139219678D01*
X144984400Y-138702522D02*
X144984400Y-139219678D01*
%TO.C,C10*%
X146127400Y-135693678D02*
X146127400Y-135176522D01*
X147547400Y-135693678D02*
X147547400Y-135176522D01*
%TO.C,R1*%
X152068600Y-97482922D02*
X152068600Y-98000078D01*
X150648600Y-97482922D02*
X150648600Y-98000078D01*
%TO.C,U1*%
X146170660Y-95497160D02*
X142720660Y-95497160D01*
X146170660Y-95497160D02*
X148120660Y-95497160D01*
X146170660Y-100617160D02*
X144220660Y-100617160D01*
X146170660Y-100617160D02*
X148120660Y-100617160D01*
%TO.C,U2*%
X145464000Y-116288800D02*
X149324000Y-116288800D01*
X149324000Y-116288800D02*
X149324000Y-116053800D01*
X145464000Y-116288800D02*
X141604000Y-116288800D01*
X141604000Y-116288800D02*
X141604000Y-116053800D01*
X145464000Y-103268800D02*
X149324000Y-103268800D01*
X149324000Y-103268800D02*
X149324000Y-103503800D01*
X145464000Y-103268800D02*
X141604000Y-103268800D01*
X141604000Y-103268800D02*
X141604000Y-103503800D01*
X141604000Y-103503800D02*
X139789000Y-103503800D01*
%TO.C,J2*%
X144484400Y-127705000D02*
X144184400Y-127405000D01*
X144784400Y-127405000D02*
X144184400Y-127405000D01*
X144484400Y-127705000D02*
X144784400Y-127405000D01*
X145234400Y-127905000D02*
X145234400Y-129905000D01*
X141134400Y-127905000D02*
X145234400Y-127905000D01*
X141134400Y-129905000D02*
X141134400Y-127905000D01*
X145234400Y-129905000D02*
X141134400Y-129905000D01*
%TO.C,U3*%
X146252800Y-122925200D02*
X144252800Y-122925200D01*
X145252800Y-119685200D02*
X142252800Y-119685200D01*
%TO.C,D2*%
X152202000Y-117883400D02*
X151272000Y-117883400D01*
X149042000Y-117883400D02*
X149972000Y-117883400D01*
X149042000Y-117883400D02*
X149042000Y-120043400D01*
X152202000Y-117883400D02*
X152202000Y-119343400D01*
%TO.C,J3*%
X137255400Y-128219200D02*
X136955400Y-128519200D01*
X136955400Y-127919200D02*
X136955400Y-128519200D01*
X137255400Y-128219200D02*
X136955400Y-127919200D01*
X137455400Y-127469200D02*
X139455400Y-127469200D01*
X137455400Y-131569200D02*
X137455400Y-127469200D01*
X139455400Y-131569200D02*
X137455400Y-131569200D01*
X139455400Y-127469200D02*
X139455400Y-131569200D01*
%TO.C,D1*%
D11*
X137742704Y-117114580D02*
X137742704Y-116114580D01*
X137980800Y-116114580D01*
X138123657Y-116162200D01*
X138218895Y-116257438D01*
X138266514Y-116352676D01*
X138314133Y-116543152D01*
X138314133Y-116686009D01*
X138266514Y-116876485D01*
X138218895Y-116971723D01*
X138123657Y-117066961D01*
X137980800Y-117114580D01*
X137742704Y-117114580D01*
X139266514Y-117114580D02*
X138695085Y-117114580D01*
X138980800Y-117114580D02*
X138980800Y-116114580D01*
X138885561Y-116257438D01*
X138790323Y-116352676D01*
X138695085Y-116400295D01*
%TO.C,J1*%
X136699666Y-101890580D02*
X136699666Y-102604866D01*
X136652047Y-102747723D01*
X136556809Y-102842961D01*
X136413952Y-102890580D01*
X136318714Y-102890580D01*
X137699666Y-102890580D02*
X137128238Y-102890580D01*
X137413952Y-102890580D02*
X137413952Y-101890580D01*
X137318714Y-102033438D01*
X137223476Y-102128676D01*
X137128238Y-102176295D01*
%TO.C,R4*%
X149947333Y-124074180D02*
X149614000Y-123597990D01*
X149375904Y-124074180D02*
X149375904Y-123074180D01*
X149756857Y-123074180D01*
X149852095Y-123121800D01*
X149899714Y-123169419D01*
X149947333Y-123264657D01*
X149947333Y-123407514D01*
X149899714Y-123502752D01*
X149852095Y-123550371D01*
X149756857Y-123597990D01*
X149375904Y-123597990D01*
X150804476Y-123407514D02*
X150804476Y-124074180D01*
X150566380Y-123026561D02*
X150328285Y-123740847D01*
X150947333Y-123740847D01*
%TO.C,C16*%
X149928342Y-125248942D02*
X149880723Y-125296561D01*
X149737866Y-125344180D01*
X149642628Y-125344180D01*
X149499771Y-125296561D01*
X149404533Y-125201323D01*
X149356914Y-125106085D01*
X149309295Y-124915609D01*
X149309295Y-124772752D01*
X149356914Y-124582276D01*
X149404533Y-124487038D01*
X149499771Y-124391800D01*
X149642628Y-124344180D01*
X149737866Y-124344180D01*
X149880723Y-124391800D01*
X149928342Y-124439419D01*
X150880723Y-125344180D02*
X150309295Y-125344180D01*
X150595009Y-125344180D02*
X150595009Y-124344180D01*
X150499771Y-124487038D01*
X150404533Y-124582276D01*
X150309295Y-124629895D01*
X151737866Y-124344180D02*
X151547390Y-124344180D01*
X151452152Y-124391800D01*
X151404533Y-124439419D01*
X151309295Y-124582276D01*
X151261676Y-124772752D01*
X151261676Y-125153704D01*
X151309295Y-125248942D01*
X151356914Y-125296561D01*
X151452152Y-125344180D01*
X151642628Y-125344180D01*
X151737866Y-125296561D01*
X151785485Y-125248942D01*
X151833104Y-125153704D01*
X151833104Y-124915609D01*
X151785485Y-124820371D01*
X151737866Y-124772752D01*
X151642628Y-124725133D01*
X151452152Y-124725133D01*
X151356914Y-124772752D01*
X151309295Y-124820371D01*
X151261676Y-124915609D01*
%TO.C,U4*%
X139392355Y-139143540D02*
X139392355Y-139953064D01*
X139439974Y-140048302D01*
X139487593Y-140095921D01*
X139582831Y-140143540D01*
X139773307Y-140143540D01*
X139868545Y-140095921D01*
X139916164Y-140048302D01*
X139963783Y-139953064D01*
X139963783Y-139143540D01*
X140868545Y-139476874D02*
X140868545Y-140143540D01*
X140630450Y-139095921D02*
X140392355Y-139810207D01*
X141011402Y-139810207D01*
%TO.C,P1*%
X133399304Y-144419580D02*
X133399304Y-143419580D01*
X133780257Y-143419580D01*
X133875495Y-143467200D01*
X133923114Y-143514819D01*
X133970733Y-143610057D01*
X133970733Y-143752914D01*
X133923114Y-143848152D01*
X133875495Y-143895771D01*
X133780257Y-143943390D01*
X133399304Y-143943390D01*
X134923114Y-144419580D02*
X134351685Y-144419580D01*
X134637400Y-144419580D02*
X134637400Y-143419580D01*
X134542161Y-143562438D01*
X134446923Y-143657676D01*
X134351685Y-143705295D01*
%TO.C,C1*%
X138466533Y-143359142D02*
X138418914Y-143406761D01*
X138276057Y-143454380D01*
X138180819Y-143454380D01*
X138037961Y-143406761D01*
X137942723Y-143311523D01*
X137895104Y-143216285D01*
X137847485Y-143025809D01*
X137847485Y-142882952D01*
X137895104Y-142692476D01*
X137942723Y-142597238D01*
X138037961Y-142502000D01*
X138180819Y-142454380D01*
X138276057Y-142454380D01*
X138418914Y-142502000D01*
X138466533Y-142549619D01*
X139418914Y-143454380D02*
X138847485Y-143454380D01*
X139133200Y-143454380D02*
X139133200Y-142454380D01*
X139037961Y-142597238D01*
X138942723Y-142692476D01*
X138847485Y-142740095D01*
%TO.C,C2*%
X141666933Y-143333742D02*
X141619314Y-143381361D01*
X141476457Y-143428980D01*
X141381219Y-143428980D01*
X141238361Y-143381361D01*
X141143123Y-143286123D01*
X141095504Y-143190885D01*
X141047885Y-143000409D01*
X141047885Y-142857552D01*
X141095504Y-142667076D01*
X141143123Y-142571838D01*
X141238361Y-142476600D01*
X141381219Y-142428980D01*
X141476457Y-142428980D01*
X141619314Y-142476600D01*
X141666933Y-142524219D01*
X142047885Y-142524219D02*
X142095504Y-142476600D01*
X142190742Y-142428980D01*
X142428838Y-142428980D01*
X142524076Y-142476600D01*
X142571695Y-142524219D01*
X142619314Y-142619457D01*
X142619314Y-142714695D01*
X142571695Y-142857552D01*
X142000266Y-143428980D01*
X142619314Y-143428980D01*
%TO.C,C3*%
X138441133Y-144781542D02*
X138393514Y-144829161D01*
X138250657Y-144876780D01*
X138155419Y-144876780D01*
X138012561Y-144829161D01*
X137917323Y-144733923D01*
X137869704Y-144638685D01*
X137822085Y-144448209D01*
X137822085Y-144305352D01*
X137869704Y-144114876D01*
X137917323Y-144019638D01*
X138012561Y-143924400D01*
X138155419Y-143876780D01*
X138250657Y-143876780D01*
X138393514Y-143924400D01*
X138441133Y-143972019D01*
X138774466Y-143876780D02*
X139393514Y-143876780D01*
X139060180Y-144257733D01*
X139203038Y-144257733D01*
X139298276Y-144305352D01*
X139345895Y-144352971D01*
X139393514Y-144448209D01*
X139393514Y-144686304D01*
X139345895Y-144781542D01*
X139298276Y-144829161D01*
X139203038Y-144876780D01*
X138917323Y-144876780D01*
X138822085Y-144829161D01*
X138774466Y-144781542D01*
%TO.C,C4*%
X141641533Y-144705342D02*
X141593914Y-144752961D01*
X141451057Y-144800580D01*
X141355819Y-144800580D01*
X141212961Y-144752961D01*
X141117723Y-144657723D01*
X141070104Y-144562485D01*
X141022485Y-144372009D01*
X141022485Y-144229152D01*
X141070104Y-144038676D01*
X141117723Y-143943438D01*
X141212961Y-143848200D01*
X141355819Y-143800580D01*
X141451057Y-143800580D01*
X141593914Y-143848200D01*
X141641533Y-143895819D01*
X142498676Y-144133914D02*
X142498676Y-144800580D01*
X142260580Y-143752961D02*
X142022485Y-144467247D01*
X142641533Y-144467247D01*
%TO.C,C5*%
X147804142Y-138723666D02*
X147851761Y-138771285D01*
X147899380Y-138914142D01*
X147899380Y-139009380D01*
X147851761Y-139152238D01*
X147756523Y-139247476D01*
X147661285Y-139295095D01*
X147470809Y-139342714D01*
X147327952Y-139342714D01*
X147137476Y-139295095D01*
X147042238Y-139247476D01*
X146947000Y-139152238D01*
X146899380Y-139009380D01*
X146899380Y-138914142D01*
X146947000Y-138771285D01*
X146994619Y-138723666D01*
X146899380Y-137818904D02*
X146899380Y-138295095D01*
X147375571Y-138342714D01*
X147327952Y-138295095D01*
X147280333Y-138199857D01*
X147280333Y-137961761D01*
X147327952Y-137866523D01*
X147375571Y-137818904D01*
X147470809Y-137771285D01*
X147708904Y-137771285D01*
X147804142Y-137818904D01*
X147851761Y-137866523D01*
X147899380Y-137961761D01*
X147899380Y-138199857D01*
X147851761Y-138295095D01*
X147804142Y-138342714D01*
%TO.C,C6*%
X138812542Y-105548866D02*
X138860161Y-105596485D01*
X138907780Y-105739342D01*
X138907780Y-105834580D01*
X138860161Y-105977438D01*
X138764923Y-106072676D01*
X138669685Y-106120295D01*
X138479209Y-106167914D01*
X138336352Y-106167914D01*
X138145876Y-106120295D01*
X138050638Y-106072676D01*
X137955400Y-105977438D01*
X137907780Y-105834580D01*
X137907780Y-105739342D01*
X137955400Y-105596485D01*
X138003019Y-105548866D01*
X137907780Y-104691723D02*
X137907780Y-104882200D01*
X137955400Y-104977438D01*
X138003019Y-105025057D01*
X138145876Y-105120295D01*
X138336352Y-105167914D01*
X138717304Y-105167914D01*
X138812542Y-105120295D01*
X138860161Y-105072676D01*
X138907780Y-104977438D01*
X138907780Y-104786961D01*
X138860161Y-104691723D01*
X138812542Y-104644104D01*
X138717304Y-104596485D01*
X138479209Y-104596485D01*
X138383971Y-104644104D01*
X138336352Y-104691723D01*
X138288733Y-104786961D01*
X138288733Y-104977438D01*
X138336352Y-105072676D01*
X138383971Y-105120295D01*
X138479209Y-105167914D01*
%TO.C,C7*%
X145594342Y-134227866D02*
X145641961Y-134275485D01*
X145689580Y-134418342D01*
X145689580Y-134513580D01*
X145641961Y-134656438D01*
X145546723Y-134751676D01*
X145451485Y-134799295D01*
X145261009Y-134846914D01*
X145118152Y-134846914D01*
X144927676Y-134799295D01*
X144832438Y-134751676D01*
X144737200Y-134656438D01*
X144689580Y-134513580D01*
X144689580Y-134418342D01*
X144737200Y-134275485D01*
X144784819Y-134227866D01*
X144689580Y-133894533D02*
X144689580Y-133227866D01*
X145689580Y-133656438D01*
%TO.C,C8*%
X149124942Y-138749066D02*
X149172561Y-138796685D01*
X149220180Y-138939542D01*
X149220180Y-139034780D01*
X149172561Y-139177638D01*
X149077323Y-139272876D01*
X148982085Y-139320495D01*
X148791609Y-139368114D01*
X148648752Y-139368114D01*
X148458276Y-139320495D01*
X148363038Y-139272876D01*
X148267800Y-139177638D01*
X148220180Y-139034780D01*
X148220180Y-138939542D01*
X148267800Y-138796685D01*
X148315419Y-138749066D01*
X148648752Y-138177638D02*
X148601133Y-138272876D01*
X148553514Y-138320495D01*
X148458276Y-138368114D01*
X148410657Y-138368114D01*
X148315419Y-138320495D01*
X148267800Y-138272876D01*
X148220180Y-138177638D01*
X148220180Y-137987161D01*
X148267800Y-137891923D01*
X148315419Y-137844304D01*
X148410657Y-137796685D01*
X148458276Y-137796685D01*
X148553514Y-137844304D01*
X148601133Y-137891923D01*
X148648752Y-137987161D01*
X148648752Y-138177638D01*
X148696371Y-138272876D01*
X148743990Y-138320495D01*
X148839228Y-138368114D01*
X149029704Y-138368114D01*
X149124942Y-138320495D01*
X149172561Y-138272876D01*
X149220180Y-138177638D01*
X149220180Y-137987161D01*
X149172561Y-137891923D01*
X149124942Y-137844304D01*
X149029704Y-137796685D01*
X148839228Y-137796685D01*
X148743990Y-137844304D01*
X148696371Y-137891923D01*
X148648752Y-137987161D01*
%TO.C,C9*%
X135365333Y-109477142D02*
X135317714Y-109524761D01*
X135174857Y-109572380D01*
X135079619Y-109572380D01*
X134936761Y-109524761D01*
X134841523Y-109429523D01*
X134793904Y-109334285D01*
X134746285Y-109143809D01*
X134746285Y-109000952D01*
X134793904Y-108810476D01*
X134841523Y-108715238D01*
X134936761Y-108620000D01*
X135079619Y-108572380D01*
X135174857Y-108572380D01*
X135317714Y-108620000D01*
X135365333Y-108667619D01*
X135841523Y-109572380D02*
X136032000Y-109572380D01*
X136127238Y-109524761D01*
X136174857Y-109477142D01*
X136270095Y-109334285D01*
X136317714Y-109143809D01*
X136317714Y-108762857D01*
X136270095Y-108667619D01*
X136222476Y-108620000D01*
X136127238Y-108572380D01*
X135936761Y-108572380D01*
X135841523Y-108620000D01*
X135793904Y-108667619D01*
X135746285Y-108762857D01*
X135746285Y-109000952D01*
X135793904Y-109096190D01*
X135841523Y-109143809D01*
X135936761Y-109191428D01*
X136127238Y-109191428D01*
X136222476Y-109143809D01*
X136270095Y-109096190D01*
X136317714Y-109000952D01*
%TO.C,C10*%
X147219942Y-132773657D02*
X147267561Y-132821276D01*
X147315180Y-132964133D01*
X147315180Y-133059371D01*
X147267561Y-133202228D01*
X147172323Y-133297466D01*
X147077085Y-133345085D01*
X146886609Y-133392704D01*
X146743752Y-133392704D01*
X146553276Y-133345085D01*
X146458038Y-133297466D01*
X146362800Y-133202228D01*
X146315180Y-133059371D01*
X146315180Y-132964133D01*
X146362800Y-132821276D01*
X146410419Y-132773657D01*
X147315180Y-131821276D02*
X147315180Y-132392704D01*
X147315180Y-132106990D02*
X146315180Y-132106990D01*
X146458038Y-132202228D01*
X146553276Y-132297466D01*
X146600895Y-132392704D01*
X146315180Y-131202228D02*
X146315180Y-131106990D01*
X146362800Y-131011752D01*
X146410419Y-130964133D01*
X146505657Y-130916514D01*
X146696133Y-130868895D01*
X146934228Y-130868895D01*
X147124704Y-130916514D01*
X147219942Y-130964133D01*
X147267561Y-131011752D01*
X147315180Y-131106990D01*
X147315180Y-131202228D01*
X147267561Y-131297466D01*
X147219942Y-131345085D01*
X147124704Y-131392704D01*
X146934228Y-131440323D01*
X146696133Y-131440323D01*
X146505657Y-131392704D01*
X146410419Y-131345085D01*
X146362800Y-131297466D01*
X146315180Y-131202228D01*
%TO.C,C13*%
X144197342Y-134043657D02*
X144244961Y-134091276D01*
X144292580Y-134234133D01*
X144292580Y-134329371D01*
X144244961Y-134472228D01*
X144149723Y-134567466D01*
X144054485Y-134615085D01*
X143864009Y-134662704D01*
X143721152Y-134662704D01*
X143530676Y-134615085D01*
X143435438Y-134567466D01*
X143340200Y-134472228D01*
X143292580Y-134329371D01*
X143292580Y-134234133D01*
X143340200Y-134091276D01*
X143387819Y-134043657D01*
X144292580Y-133091276D02*
X144292580Y-133662704D01*
X144292580Y-133376990D02*
X143292580Y-133376990D01*
X143435438Y-133472228D01*
X143530676Y-133567466D01*
X143578295Y-133662704D01*
X143292580Y-132757942D02*
X143292580Y-132138895D01*
X143673533Y-132472228D01*
X143673533Y-132329371D01*
X143721152Y-132234133D01*
X143768771Y-132186514D01*
X143864009Y-132138895D01*
X144102104Y-132138895D01*
X144197342Y-132186514D01*
X144244961Y-132234133D01*
X144292580Y-132329371D01*
X144292580Y-132615085D01*
X144244961Y-132710323D01*
X144197342Y-132757942D01*
%TO.C,C19*%
X141061342Y-132106942D02*
X141013723Y-132154561D01*
X140870866Y-132202180D01*
X140775628Y-132202180D01*
X140632771Y-132154561D01*
X140537533Y-132059323D01*
X140489914Y-131964085D01*
X140442295Y-131773609D01*
X140442295Y-131630752D01*
X140489914Y-131440276D01*
X140537533Y-131345038D01*
X140632771Y-131249800D01*
X140775628Y-131202180D01*
X140870866Y-131202180D01*
X141013723Y-131249800D01*
X141061342Y-131297419D01*
X142013723Y-132202180D02*
X141442295Y-132202180D01*
X141728009Y-132202180D02*
X141728009Y-131202180D01*
X141632771Y-131345038D01*
X141537533Y-131440276D01*
X141442295Y-131487895D01*
X142489914Y-132202180D02*
X142680390Y-132202180D01*
X142775628Y-132154561D01*
X142823247Y-132106942D01*
X142918485Y-131964085D01*
X142966104Y-131773609D01*
X142966104Y-131392657D01*
X142918485Y-131297419D01*
X142870866Y-131249800D01*
X142775628Y-131202180D01*
X142585152Y-131202180D01*
X142489914Y-131249800D01*
X142442295Y-131297419D01*
X142394676Y-131392657D01*
X142394676Y-131630752D01*
X142442295Y-131725990D01*
X142489914Y-131773609D01*
X142585152Y-131821228D01*
X142775628Y-131821228D01*
X142870866Y-131773609D01*
X142918485Y-131725990D01*
X142966104Y-131630752D01*
%TO.C,R1*%
X151760180Y-100496666D02*
X151283990Y-100830000D01*
X151760180Y-101068095D02*
X150760180Y-101068095D01*
X150760180Y-100687142D01*
X150807800Y-100591904D01*
X150855419Y-100544285D01*
X150950657Y-100496666D01*
X151093514Y-100496666D01*
X151188752Y-100544285D01*
X151236371Y-100591904D01*
X151283990Y-100687142D01*
X151283990Y-101068095D01*
X151760180Y-99544285D02*
X151760180Y-100115714D01*
X151760180Y-99830000D02*
X150760180Y-99830000D01*
X150903038Y-99925238D01*
X150998276Y-100020476D01*
X151045895Y-100115714D01*
%TO.C,R2*%
X138882380Y-107761066D02*
X138406190Y-108094400D01*
X138882380Y-108332495D02*
X137882380Y-108332495D01*
X137882380Y-107951542D01*
X137930000Y-107856304D01*
X137977619Y-107808685D01*
X138072857Y-107761066D01*
X138215714Y-107761066D01*
X138310952Y-107808685D01*
X138358571Y-107856304D01*
X138406190Y-107951542D01*
X138406190Y-108332495D01*
X137977619Y-107380114D02*
X137930000Y-107332495D01*
X137882380Y-107237257D01*
X137882380Y-106999161D01*
X137930000Y-106903923D01*
X137977619Y-106856304D01*
X138072857Y-106808685D01*
X138168095Y-106808685D01*
X138310952Y-106856304D01*
X138882380Y-107427733D01*
X138882380Y-106808685D01*
%TO.C,U1*%
X145408755Y-94109540D02*
X145408755Y-94919064D01*
X145456374Y-95014302D01*
X145503993Y-95061921D01*
X145599231Y-95109540D01*
X145789707Y-95109540D01*
X145884945Y-95061921D01*
X145932564Y-95014302D01*
X145980183Y-94919064D01*
X145980183Y-94109540D01*
X146980183Y-95109540D02*
X146408755Y-95109540D01*
X146694469Y-95109540D02*
X146694469Y-94109540D01*
X146599231Y-94252398D01*
X146503993Y-94347636D01*
X146408755Y-94395255D01*
%TO.C,U2*%
X144702095Y-101881180D02*
X144702095Y-102690704D01*
X144749714Y-102785942D01*
X144797333Y-102833561D01*
X144892571Y-102881180D01*
X145083047Y-102881180D01*
X145178285Y-102833561D01*
X145225904Y-102785942D01*
X145273523Y-102690704D01*
X145273523Y-101881180D01*
X145702095Y-101976419D02*
X145749714Y-101928800D01*
X145844952Y-101881180D01*
X146083047Y-101881180D01*
X146178285Y-101928800D01*
X146225904Y-101976419D01*
X146273523Y-102071657D01*
X146273523Y-102166895D01*
X146225904Y-102309752D01*
X145654476Y-102881180D01*
X146273523Y-102881180D01*
%TO.C,J2*%
X146021466Y-128306580D02*
X146021466Y-129020866D01*
X145973847Y-129163723D01*
X145878609Y-129258961D01*
X145735752Y-129306580D01*
X145640514Y-129306580D01*
X146450038Y-128401819D02*
X146497657Y-128354200D01*
X146592895Y-128306580D01*
X146830990Y-128306580D01*
X146926228Y-128354200D01*
X146973847Y-128401819D01*
X147021466Y-128497057D01*
X147021466Y-128592295D01*
X146973847Y-128735152D01*
X146402419Y-129306580D01*
X147021466Y-129306580D01*
%TO.C,U3*%
X142214695Y-118375180D02*
X142214695Y-119184704D01*
X142262314Y-119279942D01*
X142309933Y-119327561D01*
X142405171Y-119375180D01*
X142595647Y-119375180D01*
X142690885Y-119327561D01*
X142738504Y-119279942D01*
X142786123Y-119184704D01*
X142786123Y-118375180D01*
X143167076Y-118375180D02*
X143786123Y-118375180D01*
X143452790Y-118756133D01*
X143595647Y-118756133D01*
X143690885Y-118803752D01*
X143738504Y-118851371D01*
X143786123Y-118946609D01*
X143786123Y-119184704D01*
X143738504Y-119279942D01*
X143690885Y-119327561D01*
X143595647Y-119375180D01*
X143309933Y-119375180D01*
X143214695Y-119327561D01*
X143167076Y-119279942D01*
%TO.C,R7*%
X137993380Y-122442266D02*
X137517190Y-122775600D01*
X137993380Y-123013695D02*
X136993380Y-123013695D01*
X136993380Y-122632742D01*
X137041000Y-122537504D01*
X137088619Y-122489885D01*
X137183857Y-122442266D01*
X137326714Y-122442266D01*
X137421952Y-122489885D01*
X137469571Y-122537504D01*
X137517190Y-122632742D01*
X137517190Y-123013695D01*
X136993380Y-122108933D02*
X136993380Y-121442266D01*
X137993380Y-121870838D01*
%TO.C,C24*%
X150029942Y-122532742D02*
X149982323Y-122580361D01*
X149839466Y-122627980D01*
X149744228Y-122627980D01*
X149601371Y-122580361D01*
X149506133Y-122485123D01*
X149458514Y-122389885D01*
X149410895Y-122199409D01*
X149410895Y-122056552D01*
X149458514Y-121866076D01*
X149506133Y-121770838D01*
X149601371Y-121675600D01*
X149744228Y-121627980D01*
X149839466Y-121627980D01*
X149982323Y-121675600D01*
X150029942Y-121723219D01*
X150410895Y-121723219D02*
X150458514Y-121675600D01*
X150553752Y-121627980D01*
X150791847Y-121627980D01*
X150887085Y-121675600D01*
X150934704Y-121723219D01*
X150982323Y-121818457D01*
X150982323Y-121913695D01*
X150934704Y-122056552D01*
X150363276Y-122627980D01*
X150982323Y-122627980D01*
X151839466Y-121961314D02*
X151839466Y-122627980D01*
X151601371Y-121580361D02*
X151363276Y-122294647D01*
X151982323Y-122294647D01*
%TO.C,R3*%
X135250180Y-122391466D02*
X134773990Y-122724800D01*
X135250180Y-122962895D02*
X134250180Y-122962895D01*
X134250180Y-122581942D01*
X134297800Y-122486704D01*
X134345419Y-122439085D01*
X134440657Y-122391466D01*
X134583514Y-122391466D01*
X134678752Y-122439085D01*
X134726371Y-122486704D01*
X134773990Y-122581942D01*
X134773990Y-122962895D01*
X134250180Y-122058133D02*
X134250180Y-121439085D01*
X134631133Y-121772419D01*
X134631133Y-121629561D01*
X134678752Y-121534323D01*
X134726371Y-121486704D01*
X134821609Y-121439085D01*
X135059704Y-121439085D01*
X135154942Y-121486704D01*
X135202561Y-121534323D01*
X135250180Y-121629561D01*
X135250180Y-121915276D01*
X135202561Y-122010514D01*
X135154942Y-122058133D01*
%TO.C,C18*%
X149293342Y-129363742D02*
X149245723Y-129411361D01*
X149102866Y-129458980D01*
X149007628Y-129458980D01*
X148864771Y-129411361D01*
X148769533Y-129316123D01*
X148721914Y-129220885D01*
X148674295Y-129030409D01*
X148674295Y-128887552D01*
X148721914Y-128697076D01*
X148769533Y-128601838D01*
X148864771Y-128506600D01*
X149007628Y-128458980D01*
X149102866Y-128458980D01*
X149245723Y-128506600D01*
X149293342Y-128554219D01*
X150245723Y-129458980D02*
X149674295Y-129458980D01*
X149960009Y-129458980D02*
X149960009Y-128458980D01*
X149864771Y-128601838D01*
X149769533Y-128697076D01*
X149674295Y-128744695D01*
X150817152Y-128887552D02*
X150721914Y-128839933D01*
X150674295Y-128792314D01*
X150626676Y-128697076D01*
X150626676Y-128649457D01*
X150674295Y-128554219D01*
X150721914Y-128506600D01*
X150817152Y-128458980D01*
X151007628Y-128458980D01*
X151102866Y-128506600D01*
X151150485Y-128554219D01*
X151198104Y-128649457D01*
X151198104Y-128697076D01*
X151150485Y-128792314D01*
X151102866Y-128839933D01*
X151007628Y-128887552D01*
X150817152Y-128887552D01*
X150721914Y-128935171D01*
X150674295Y-128982790D01*
X150626676Y-129078028D01*
X150626676Y-129268504D01*
X150674295Y-129363742D01*
X150721914Y-129411361D01*
X150817152Y-129458980D01*
X151007628Y-129458980D01*
X151102866Y-129411361D01*
X151150485Y-129363742D01*
X151198104Y-129268504D01*
X151198104Y-129078028D01*
X151150485Y-128982790D01*
X151102866Y-128935171D01*
X151007628Y-128887552D01*
%TO.C,C15*%
X136501142Y-122410457D02*
X136548761Y-122458076D01*
X136596380Y-122600933D01*
X136596380Y-122696171D01*
X136548761Y-122839028D01*
X136453523Y-122934266D01*
X136358285Y-122981885D01*
X136167809Y-123029504D01*
X136024952Y-123029504D01*
X135834476Y-122981885D01*
X135739238Y-122934266D01*
X135644000Y-122839028D01*
X135596380Y-122696171D01*
X135596380Y-122600933D01*
X135644000Y-122458076D01*
X135691619Y-122410457D01*
X136596380Y-121458076D02*
X136596380Y-122029504D01*
X136596380Y-121743790D02*
X135596380Y-121743790D01*
X135739238Y-121839028D01*
X135834476Y-121934266D01*
X135882095Y-122029504D01*
X135596380Y-120553314D02*
X135596380Y-121029504D01*
X136072571Y-121077123D01*
X136024952Y-121029504D01*
X135977333Y-120934266D01*
X135977333Y-120696171D01*
X136024952Y-120600933D01*
X136072571Y-120553314D01*
X136167809Y-120505695D01*
X136405904Y-120505695D01*
X136501142Y-120553314D01*
X136548761Y-120600933D01*
X136596380Y-120696171D01*
X136596380Y-120934266D01*
X136548761Y-121029504D01*
X136501142Y-121077123D01*
%TO.C,R8*%
X146772333Y-118232180D02*
X146439000Y-117755990D01*
X146200904Y-118232180D02*
X146200904Y-117232180D01*
X146581857Y-117232180D01*
X146677095Y-117279800D01*
X146724714Y-117327419D01*
X146772333Y-117422657D01*
X146772333Y-117565514D01*
X146724714Y-117660752D01*
X146677095Y-117708371D01*
X146581857Y-117755990D01*
X146200904Y-117755990D01*
X147343761Y-117660752D02*
X147248523Y-117613133D01*
X147200904Y-117565514D01*
X147153285Y-117470276D01*
X147153285Y-117422657D01*
X147200904Y-117327419D01*
X147248523Y-117279800D01*
X147343761Y-117232180D01*
X147534238Y-117232180D01*
X147629476Y-117279800D01*
X147677095Y-117327419D01*
X147724714Y-117422657D01*
X147724714Y-117470276D01*
X147677095Y-117565514D01*
X147629476Y-117613133D01*
X147534238Y-117660752D01*
X147343761Y-117660752D01*
X147248523Y-117708371D01*
X147200904Y-117755990D01*
X147153285Y-117851228D01*
X147153285Y-118041704D01*
X147200904Y-118136942D01*
X147248523Y-118184561D01*
X147343761Y-118232180D01*
X147534238Y-118232180D01*
X147629476Y-118184561D01*
X147677095Y-118136942D01*
X147724714Y-118041704D01*
X147724714Y-117851228D01*
X147677095Y-117755990D01*
X147629476Y-117708371D01*
X147534238Y-117660752D01*
%TO.C,D2*%
X148309104Y-117622580D02*
X148309104Y-116622580D01*
X148547200Y-116622580D01*
X148690057Y-116670200D01*
X148785295Y-116765438D01*
X148832914Y-116860676D01*
X148880533Y-117051152D01*
X148880533Y-117194009D01*
X148832914Y-117384485D01*
X148785295Y-117479723D01*
X148690057Y-117574961D01*
X148547200Y-117622580D01*
X148309104Y-117622580D01*
X149261485Y-116717819D02*
X149309104Y-116670200D01*
X149404342Y-116622580D01*
X149642438Y-116622580D01*
X149737676Y-116670200D01*
X149785295Y-116717819D01*
X149832914Y-116813057D01*
X149832914Y-116908295D01*
X149785295Y-117051152D01*
X149213866Y-117622580D01*
X149832914Y-117622580D01*
%TO.C,C17*%
X143613142Y-126830057D02*
X143660761Y-126877676D01*
X143708380Y-127020533D01*
X143708380Y-127115771D01*
X143660761Y-127258628D01*
X143565523Y-127353866D01*
X143470285Y-127401485D01*
X143279809Y-127449104D01*
X143136952Y-127449104D01*
X142946476Y-127401485D01*
X142851238Y-127353866D01*
X142756000Y-127258628D01*
X142708380Y-127115771D01*
X142708380Y-127020533D01*
X142756000Y-126877676D01*
X142803619Y-126830057D01*
X143708380Y-125877676D02*
X143708380Y-126449104D01*
X143708380Y-126163390D02*
X142708380Y-126163390D01*
X142851238Y-126258628D01*
X142946476Y-126353866D01*
X142994095Y-126449104D01*
X142708380Y-125544342D02*
X142708380Y-124877676D01*
X143708380Y-125306247D01*
%TO.C,C20*%
X137567942Y-126372857D02*
X137615561Y-126420476D01*
X137663180Y-126563333D01*
X137663180Y-126658571D01*
X137615561Y-126801428D01*
X137520323Y-126896666D01*
X137425085Y-126944285D01*
X137234609Y-126991904D01*
X137091752Y-126991904D01*
X136901276Y-126944285D01*
X136806038Y-126896666D01*
X136710800Y-126801428D01*
X136663180Y-126658571D01*
X136663180Y-126563333D01*
X136710800Y-126420476D01*
X136758419Y-126372857D01*
X136758419Y-125991904D02*
X136710800Y-125944285D01*
X136663180Y-125849047D01*
X136663180Y-125610952D01*
X136710800Y-125515714D01*
X136758419Y-125468095D01*
X136853657Y-125420476D01*
X136948895Y-125420476D01*
X137091752Y-125468095D01*
X137663180Y-126039523D01*
X137663180Y-125420476D01*
X136663180Y-124801428D02*
X136663180Y-124706190D01*
X136710800Y-124610952D01*
X136758419Y-124563333D01*
X136853657Y-124515714D01*
X137044133Y-124468095D01*
X137282228Y-124468095D01*
X137472704Y-124515714D01*
X137567942Y-124563333D01*
X137615561Y-124610952D01*
X137663180Y-124706190D01*
X137663180Y-124801428D01*
X137615561Y-124896666D01*
X137567942Y-124944285D01*
X137472704Y-124991904D01*
X137282228Y-125039523D01*
X137044133Y-125039523D01*
X136853657Y-124991904D01*
X136758419Y-124944285D01*
X136710800Y-124896666D01*
X136663180Y-124801428D01*
%TO.C,J3*%
X138020466Y-132116580D02*
X138020466Y-132830866D01*
X137972847Y-132973723D01*
X137877609Y-133068961D01*
X137734752Y-133116580D01*
X137639514Y-133116580D01*
X138401419Y-132116580D02*
X139020466Y-132116580D01*
X138687133Y-132497533D01*
X138829990Y-132497533D01*
X138925228Y-132545152D01*
X138972847Y-132592771D01*
X139020466Y-132688009D01*
X139020466Y-132926104D01*
X138972847Y-133021342D01*
X138925228Y-133068961D01*
X138829990Y-133116580D01*
X138544276Y-133116580D01*
X138449038Y-133068961D01*
X138401419Y-133021342D01*
%TD*%
M02*
