%TF.GenerationSoftware,KiCad,Pcbnew,5.1.6*%
%TF.CreationDate,2020-07-27T19:16:26+00:00*%
%TF.ProjectId,SoundCard,536f756e-6443-4617-9264-2e6b69636164,rev?*%
%TF.SameCoordinates,Original*%
%TF.FileFunction,Copper,L2,Bot*%
%TF.FilePolarity,Positive*%
%FSLAX46Y46*%
G04 Gerber Fmt 4.6, Leading zero omitted, Abs format (unit mm)*
G04 Created by KiCad (PCBNEW 5.1.6) date 2020-07-27 19:16:26*
%MOMM*%
%LPD*%
G01*
G04 APERTURE LIST*
%TA.AperFunction,ComponentPad*%
%ADD10C,2.050000*%
%TD*%
%TA.AperFunction,ComponentPad*%
%ADD11C,2.250000*%
%TD*%
%TA.AperFunction,ConnectorPad*%
%ADD12R,0.700000X3.200000*%
%TD*%
%TA.AperFunction,ConnectorPad*%
%ADD13R,0.700000X4.300000*%
%TD*%
%TA.AperFunction,ViaPad*%
%ADD14C,0.800000*%
%TD*%
%TA.AperFunction,Conductor*%
%ADD15C,0.750000*%
%TD*%
%TA.AperFunction,Conductor*%
%ADD16C,0.250000*%
%TD*%
%TA.AperFunction,Conductor*%
%ADD17C,0.500000*%
%TD*%
%TA.AperFunction,Conductor*%
%ADD18C,0.127000*%
%TD*%
G04 APERTURE END LIST*
D10*
%TO.P,J1,1*%
%TO.N,Net-(C6-Pad1)*%
X137109200Y-97993200D03*
D11*
%TO.P,J1,2*%
%TO.N,GNDA*%
X139649200Y-100533200D03*
X139649200Y-95453200D03*
X134569200Y-95453200D03*
X134569200Y-100533200D03*
%TD*%
D12*
%TO.P,P1,A1*%
%TO.N,/ATT_CLOCK*%
X133451600Y-149818000D03*
D13*
%TO.P,P1,A2*%
%TO.N,/ATT_~CS~*%
X134451600Y-150368000D03*
%TO.P,P1,A3*%
%TO.N,/ATT_DATA_IN*%
X135451600Y-150368000D03*
%TO.P,P1,A4*%
%TO.N,N/C*%
X136451600Y-150368000D03*
%TO.P,P1,A5*%
X137451600Y-150368000D03*
%TO.P,P1,A6*%
%TO.N,/PPS*%
X138451600Y-150368000D03*
%TO.P,P1,A7*%
%TO.N,N/C*%
X139451600Y-150368000D03*
%TO.P,P1,A8*%
X140451600Y-150368000D03*
%TO.P,P1,A9*%
%TO.N,/SDA*%
X141451600Y-150368000D03*
%TO.P,P1,A10*%
%TO.N,/SCL*%
X142451600Y-150368000D03*
%TO.P,P1,A11*%
%TO.N,/SHDNZ*%
X143451600Y-150368000D03*
%TO.P,P1,A14*%
%TO.N,VCC*%
X148451600Y-150368000D03*
%TO.P,P1,A15*%
%TO.N,GNDD*%
X149451600Y-150368000D03*
%TO.P,P1,A16*%
X150451600Y-150368000D03*
%TO.P,P1,A17*%
%TO.N,+24V*%
X151451600Y-150368000D03*
%TO.P,P1,A18*%
X152451600Y-150368000D03*
%TO.P,P1,A12*%
%TO.N,N/C*%
X146451600Y-150368000D03*
%TO.P,P1,A13*%
%TO.N,VCC*%
X147451600Y-150368000D03*
%TD*%
%TO.P,R9,2*%
%TO.N,/PPS_ATT*%
%TA.AperFunction,SMDPad,CuDef*%
G36*
G01*
X139766400Y-133228300D02*
X139766400Y-133573300D01*
G75*
G02*
X139618900Y-133720800I-147500J0D01*
G01*
X139323900Y-133720800D01*
G75*
G02*
X139176400Y-133573300I0J147500D01*
G01*
X139176400Y-133228300D01*
G75*
G02*
X139323900Y-133080800I147500J0D01*
G01*
X139618900Y-133080800D01*
G75*
G02*
X139766400Y-133228300I0J-147500D01*
G01*
G37*
%TD.AperFunction*%
%TO.P,R9,1*%
%TO.N,GNDD*%
%TA.AperFunction,SMDPad,CuDef*%
G36*
G01*
X140736400Y-133228300D02*
X140736400Y-133573300D01*
G75*
G02*
X140588900Y-133720800I-147500J0D01*
G01*
X140293900Y-133720800D01*
G75*
G02*
X140146400Y-133573300I0J147500D01*
G01*
X140146400Y-133228300D01*
G75*
G02*
X140293900Y-133080800I147500J0D01*
G01*
X140588900Y-133080800D01*
G75*
G02*
X140736400Y-133228300I0J-147500D01*
G01*
G37*
%TD.AperFunction*%
%TD*%
%TO.P,R10,2*%
%TO.N,/PPS*%
%TA.AperFunction,SMDPad,CuDef*%
G36*
G01*
X137780400Y-133228300D02*
X137780400Y-133573300D01*
G75*
G02*
X137632900Y-133720800I-147500J0D01*
G01*
X137337900Y-133720800D01*
G75*
G02*
X137190400Y-133573300I0J147500D01*
G01*
X137190400Y-133228300D01*
G75*
G02*
X137337900Y-133080800I147500J0D01*
G01*
X137632900Y-133080800D01*
G75*
G02*
X137780400Y-133228300I0J-147500D01*
G01*
G37*
%TD.AperFunction*%
%TO.P,R10,1*%
%TO.N,/PPS_ATT*%
%TA.AperFunction,SMDPad,CuDef*%
G36*
G01*
X138750400Y-133228300D02*
X138750400Y-133573300D01*
G75*
G02*
X138602900Y-133720800I-147500J0D01*
G01*
X138307900Y-133720800D01*
G75*
G02*
X138160400Y-133573300I0J147500D01*
G01*
X138160400Y-133228300D01*
G75*
G02*
X138307900Y-133080800I147500J0D01*
G01*
X138602900Y-133080800D01*
G75*
G02*
X138750400Y-133228300I0J-147500D01*
G01*
G37*
%TD.AperFunction*%
%TD*%
%TO.P,C23,2*%
%TO.N,GNDD*%
%TA.AperFunction,SMDPad,CuDef*%
G36*
G01*
X145701600Y-108408150D02*
X145701600Y-109320650D01*
G75*
G02*
X145457850Y-109564400I-243750J0D01*
G01*
X144970350Y-109564400D01*
G75*
G02*
X144726600Y-109320650I0J243750D01*
G01*
X144726600Y-108408150D01*
G75*
G02*
X144970350Y-108164400I243750J0D01*
G01*
X145457850Y-108164400D01*
G75*
G02*
X145701600Y-108408150I0J-243750D01*
G01*
G37*
%TD.AperFunction*%
%TO.P,C23,1*%
%TO.N,VCC*%
%TA.AperFunction,SMDPad,CuDef*%
G36*
G01*
X147576600Y-108408150D02*
X147576600Y-109320650D01*
G75*
G02*
X147332850Y-109564400I-243750J0D01*
G01*
X146845350Y-109564400D01*
G75*
G02*
X146601600Y-109320650I0J243750D01*
G01*
X146601600Y-108408150D01*
G75*
G02*
X146845350Y-108164400I243750J0D01*
G01*
X147332850Y-108164400D01*
G75*
G02*
X147576600Y-108408150I0J-243750D01*
G01*
G37*
%TD.AperFunction*%
%TD*%
%TO.P,C22,2*%
%TO.N,VCC*%
%TA.AperFunction,SMDPad,CuDef*%
G36*
G01*
X146872600Y-110611700D02*
X146872600Y-110266700D01*
G75*
G02*
X147020100Y-110119200I147500J0D01*
G01*
X147315100Y-110119200D01*
G75*
G02*
X147462600Y-110266700I0J-147500D01*
G01*
X147462600Y-110611700D01*
G75*
G02*
X147315100Y-110759200I-147500J0D01*
G01*
X147020100Y-110759200D01*
G75*
G02*
X146872600Y-110611700I0J147500D01*
G01*
G37*
%TD.AperFunction*%
%TO.P,C22,1*%
%TO.N,GNDD*%
%TA.AperFunction,SMDPad,CuDef*%
G36*
G01*
X145902600Y-110611700D02*
X145902600Y-110266700D01*
G75*
G02*
X146050100Y-110119200I147500J0D01*
G01*
X146345100Y-110119200D01*
G75*
G02*
X146492600Y-110266700I0J-147500D01*
G01*
X146492600Y-110611700D01*
G75*
G02*
X146345100Y-110759200I-147500J0D01*
G01*
X146050100Y-110759200D01*
G75*
G02*
X145902600Y-110611700I0J147500D01*
G01*
G37*
%TD.AperFunction*%
%TD*%
D14*
%TO.N,VCC*%
X148259800Y-110439200D03*
%TO.N,+24V*%
X146202400Y-100838000D03*
%TO.N,/PPS_ATT*%
X141884400Y-130276600D03*
%TO.N,/SDA*%
X137515600Y-138557000D03*
%TO.N,/SCL*%
X137185400Y-137566400D03*
%TO.N,/SHDNZ*%
X136956800Y-135610600D03*
%TO.N,/ATT_DATA_IN*%
X148361400Y-115519200D03*
%TO.N,/ATT_~CS~*%
X137668000Y-115493800D03*
%TO.N,/ATT_CLOCK*%
X135890000Y-114223800D03*
%TO.N,GNDD*%
X139141200Y-112979200D03*
X151663401Y-106603800D03*
X151663401Y-114198400D03*
X143611600Y-144678400D03*
X141909800Y-142798800D03*
X143611600Y-142849600D03*
X139166600Y-147066000D03*
X137439400Y-145592800D03*
X136702800Y-142875000D03*
X136728200Y-139471400D03*
X136702800Y-136652000D03*
X142189200Y-138684000D03*
X138430000Y-131927600D03*
%TD*%
D15*
%TO.N,VCC*%
X147091400Y-110358200D02*
X147091400Y-108737400D01*
D16*
X148234400Y-110413800D02*
X148259800Y-110439200D01*
D17*
X147091400Y-110413800D02*
X148234400Y-110413800D01*
D15*
X147096200Y-110418600D02*
X147091400Y-110413800D01*
D17*
X148451600Y-150368000D02*
X148451600Y-145705800D01*
X148451600Y-145705800D02*
X150190200Y-143967200D01*
X150190200Y-112369600D02*
X148259800Y-110439200D01*
X150190200Y-143967200D02*
X150190200Y-112369600D01*
X147451600Y-150368000D02*
X148451600Y-150368000D01*
%TO.N,+24V*%
X146202400Y-100838000D02*
X151282400Y-100838000D01*
X152513401Y-150306199D02*
X152451600Y-150368000D01*
X151282400Y-100838000D02*
X152513401Y-102069001D01*
X151451600Y-147912800D02*
X152513401Y-146850999D01*
X151451600Y-150368000D02*
X151451600Y-147912800D01*
X152513401Y-146850999D02*
X152513401Y-150306199D01*
X152513401Y-102069001D02*
X152513401Y-146850999D01*
D16*
%TO.N,/PPS_ATT*%
X139471400Y-133400800D02*
X138455400Y-133400800D01*
X139471400Y-132689600D02*
X139471400Y-133400800D01*
X141884400Y-130276600D02*
X139471400Y-132689600D01*
%TO.N,/PPS*%
X136231799Y-146036199D02*
X135901610Y-145706010D01*
X135901610Y-133871790D02*
X136372600Y-133400800D01*
X138451600Y-148282998D02*
X138451600Y-150368000D01*
X136231799Y-146063197D02*
X138451600Y-148282998D01*
X136372600Y-133400800D02*
X137485400Y-133400800D01*
X135901610Y-145706010D02*
X135901610Y-133871790D01*
X136231799Y-146063197D02*
X136231799Y-146036199D01*
%TO.N,/SDA*%
X137515600Y-138557000D02*
X137515600Y-143611600D01*
X141451600Y-147547600D02*
X141451600Y-150368000D01*
X137515600Y-143611600D02*
X141451600Y-147547600D01*
%TO.N,/SCL*%
X137185400Y-137566400D02*
X137922000Y-137566400D01*
X137751085Y-137566400D02*
X138353800Y-138169115D01*
X137185400Y-137566400D02*
X137751085Y-137566400D01*
X138353800Y-138169115D02*
X138353800Y-143408400D01*
X142451600Y-147506200D02*
X142451600Y-150368000D01*
X138353800Y-143408400D02*
X142451600Y-147506200D01*
%TO.N,/SHDNZ*%
X136956800Y-135610600D02*
X138963400Y-137617200D01*
X138963400Y-137617200D02*
X138963400Y-142976600D01*
X143451600Y-147464800D02*
X143451600Y-150368000D01*
X138963400Y-142976600D02*
X143451600Y-147464800D01*
%TO.N,/ATT_DATA_IN*%
X148361400Y-115519200D02*
X146837400Y-115519200D01*
X135451600Y-126905000D02*
X135451600Y-150368000D01*
X146837400Y-115519200D02*
X135451600Y-126905000D01*
%TO.N,/ATT_~CS~*%
X137668000Y-115493800D02*
X134543800Y-118618000D01*
X134543800Y-150275800D02*
X134451600Y-150368000D01*
X134543800Y-118618000D02*
X134543800Y-150275800D01*
%TO.N,/ATT_CLOCK*%
X133451600Y-116662200D02*
X135890000Y-114223800D01*
X133451600Y-149818000D02*
X133451600Y-116662200D01*
%TD*%
D18*
%TO.N,GNDD*%
G36*
X151999902Y-146638300D02*
G01*
X151106340Y-147531863D01*
X151086745Y-147547944D01*
X151059283Y-147581407D01*
X151022575Y-147626134D01*
X150974893Y-147715342D01*
X150945531Y-147812137D01*
X150935616Y-147912800D01*
X150937365Y-147930559D01*
X150923690Y-147923249D01*
X150863841Y-147905094D01*
X150801600Y-147898964D01*
X150594475Y-147900500D01*
X150515100Y-147979875D01*
X150515100Y-150304500D01*
X150535100Y-150304500D01*
X150535100Y-150431500D01*
X150515100Y-150431500D01*
X150515100Y-150451500D01*
X150388100Y-150451500D01*
X150388100Y-150431500D01*
X149515100Y-150431500D01*
X149515100Y-150451500D01*
X149388100Y-150451500D01*
X149388100Y-150431500D01*
X149368100Y-150431500D01*
X149368100Y-150304500D01*
X149388100Y-150304500D01*
X149388100Y-147979875D01*
X149515100Y-147979875D01*
X149515100Y-150304500D01*
X150388100Y-150304500D01*
X150388100Y-147979875D01*
X150308725Y-147900500D01*
X150101600Y-147898964D01*
X150039359Y-147905094D01*
X149979510Y-147923249D01*
X149951600Y-147938167D01*
X149923690Y-147923249D01*
X149863841Y-147905094D01*
X149801600Y-147898964D01*
X149594475Y-147900500D01*
X149515100Y-147979875D01*
X149388100Y-147979875D01*
X149308725Y-147900500D01*
X149101600Y-147898964D01*
X149039359Y-147905094D01*
X148979510Y-147923249D01*
X148965100Y-147930951D01*
X148965100Y-145918497D01*
X150535466Y-144348133D01*
X150555056Y-144332056D01*
X150571134Y-144312465D01*
X150619225Y-144253866D01*
X150643066Y-144209262D01*
X150666907Y-144164659D01*
X150696270Y-144067863D01*
X150703700Y-143992422D01*
X150703700Y-143992419D01*
X150706184Y-143967200D01*
X150703700Y-143941981D01*
X150703700Y-112394819D01*
X150706184Y-112369600D01*
X150703700Y-112344378D01*
X150696270Y-112268937D01*
X150666907Y-112172141D01*
X150619225Y-112082934D01*
X150571134Y-112024335D01*
X150571133Y-112024334D01*
X150555056Y-112004744D01*
X150535466Y-111988667D01*
X148923300Y-110376503D01*
X148923300Y-110373851D01*
X148897802Y-110245664D01*
X148847786Y-110124915D01*
X148775174Y-110016244D01*
X148682756Y-109923826D01*
X148574085Y-109851214D01*
X148453336Y-109801198D01*
X148325149Y-109775700D01*
X148194451Y-109775700D01*
X148066264Y-109801198D01*
X147945515Y-109851214D01*
X147872053Y-109900300D01*
X147729900Y-109900300D01*
X147729900Y-109634575D01*
X147755672Y-109603171D01*
X147802665Y-109515254D01*
X147831603Y-109419858D01*
X147841374Y-109320650D01*
X147841374Y-108408150D01*
X147831603Y-108308942D01*
X147802665Y-108213546D01*
X147755672Y-108125629D01*
X147692431Y-108048569D01*
X147615371Y-107985328D01*
X147527454Y-107938335D01*
X147432058Y-107909397D01*
X147332850Y-107899626D01*
X146845350Y-107899626D01*
X146746142Y-107909397D01*
X146650746Y-107938335D01*
X146562829Y-107985328D01*
X146485769Y-108048569D01*
X146422528Y-108125629D01*
X146375535Y-108213546D01*
X146346597Y-108308942D01*
X146336826Y-108408150D01*
X146336826Y-109320650D01*
X146346597Y-109419858D01*
X146375535Y-109515254D01*
X146422528Y-109603171D01*
X146452900Y-109640180D01*
X146452900Y-109800565D01*
X146340475Y-109801700D01*
X146261100Y-109881075D01*
X146261100Y-110375700D01*
X146281100Y-110375700D01*
X146281100Y-110502700D01*
X146261100Y-110502700D01*
X146261100Y-110997325D01*
X146340475Y-111076700D01*
X146492600Y-111078236D01*
X146554841Y-111072106D01*
X146614690Y-111053951D01*
X146669847Y-111024469D01*
X146718193Y-110984793D01*
X146743438Y-110954031D01*
X146850674Y-111011350D01*
X146971033Y-111047861D01*
X147096199Y-111060188D01*
X147221367Y-111047861D01*
X147300110Y-111023974D01*
X147315100Y-111023974D01*
X147395531Y-111016052D01*
X147472870Y-110992592D01*
X147544147Y-110954493D01*
X147577282Y-110927300D01*
X147809570Y-110927300D01*
X147836844Y-110954574D01*
X147945515Y-111027186D01*
X148066264Y-111077202D01*
X148194451Y-111102700D01*
X148197103Y-111102700D01*
X149676701Y-112582300D01*
X149676700Y-143754501D01*
X148106340Y-145324863D01*
X148086745Y-145340944D01*
X148059283Y-145374407D01*
X148022575Y-145419134D01*
X147974893Y-145508342D01*
X147945531Y-145605137D01*
X147935616Y-145705800D01*
X147938101Y-145731029D01*
X147938101Y-147992182D01*
X147902925Y-147973381D01*
X147853255Y-147958314D01*
X147801600Y-147953226D01*
X147101600Y-147953226D01*
X147049945Y-147958314D01*
X147000275Y-147973381D01*
X146954499Y-147997848D01*
X146951600Y-148000227D01*
X146948701Y-147997848D01*
X146902925Y-147973381D01*
X146853255Y-147958314D01*
X146801600Y-147953226D01*
X146215100Y-147953226D01*
X146215100Y-146352608D01*
X146213510Y-146336464D01*
X146213510Y-146324144D01*
X146213053Y-146319790D01*
X146192386Y-146135539D01*
X146186484Y-146107774D01*
X146180960Y-146079874D01*
X146179666Y-146075693D01*
X146123605Y-145898963D01*
X146112409Y-145872842D01*
X146101583Y-145846576D01*
X146099501Y-145842725D01*
X146010180Y-145680251D01*
X145994126Y-145656805D01*
X145978402Y-145633139D01*
X145975612Y-145629766D01*
X145856434Y-145487736D01*
X145836115Y-145467839D01*
X145816112Y-145447695D01*
X145812720Y-145444928D01*
X145668225Y-145328752D01*
X145644437Y-145313186D01*
X145620893Y-145297305D01*
X145617029Y-145295249D01*
X145452720Y-145209350D01*
X145426353Y-145198697D01*
X145400179Y-145187695D01*
X145395989Y-145186430D01*
X145218126Y-145134082D01*
X145190192Y-145128754D01*
X145162382Y-145123045D01*
X145158025Y-145122617D01*
X144973381Y-145105813D01*
X144944929Y-145106012D01*
X144916554Y-145105814D01*
X144912198Y-145106240D01*
X144727805Y-145125621D01*
X144699964Y-145131336D01*
X144672063Y-145136659D01*
X144667873Y-145137924D01*
X144490756Y-145192750D01*
X144464540Y-145203770D01*
X144438217Y-145214406D01*
X144434352Y-145216460D01*
X144271259Y-145304644D01*
X144247671Y-145320555D01*
X144223926Y-145336093D01*
X144220534Y-145338859D01*
X144077675Y-145457043D01*
X144057653Y-145477205D01*
X144037354Y-145497084D01*
X144034563Y-145500456D01*
X143917380Y-145644136D01*
X143901627Y-145667847D01*
X143885604Y-145691248D01*
X143883521Y-145695098D01*
X143796477Y-145858803D01*
X143785632Y-145885116D01*
X143774456Y-145911191D01*
X143773161Y-145915373D01*
X143719573Y-146092866D01*
X143714055Y-146120734D01*
X143708147Y-146148531D01*
X143707689Y-146152884D01*
X143689596Y-146337407D01*
X143689596Y-146337420D01*
X143688100Y-146352609D01*
X143688100Y-147151878D01*
X139351900Y-142815679D01*
X139351900Y-137636275D01*
X139353779Y-137617200D01*
X139351900Y-137598122D01*
X139346278Y-137541041D01*
X139324063Y-137467808D01*
X139287988Y-137400316D01*
X139251601Y-137355979D01*
X139239440Y-137341160D01*
X139224620Y-137328998D01*
X137612215Y-135716594D01*
X137620300Y-135675949D01*
X137620300Y-135545251D01*
X137594802Y-135417064D01*
X137544786Y-135296315D01*
X137472174Y-135187644D01*
X137379756Y-135095226D01*
X137271085Y-135022614D01*
X137150336Y-134972598D01*
X137022149Y-134947100D01*
X136891451Y-134947100D01*
X136763264Y-134972598D01*
X136642515Y-135022614D01*
X136533844Y-135095226D01*
X136441426Y-135187644D01*
X136368814Y-135296315D01*
X136318798Y-135417064D01*
X136293300Y-135545251D01*
X136293300Y-135675949D01*
X136318798Y-135804136D01*
X136368814Y-135924885D01*
X136441426Y-136033556D01*
X136533844Y-136125974D01*
X136642515Y-136198586D01*
X136763264Y-136248602D01*
X136891451Y-136274100D01*
X137022149Y-136274100D01*
X137062794Y-136266015D01*
X137978349Y-137181571D01*
X137941078Y-137177900D01*
X137770160Y-137177900D01*
X137751085Y-137176021D01*
X137732010Y-137177900D01*
X137723797Y-137177900D01*
X137700774Y-137143444D01*
X137608356Y-137051026D01*
X137499685Y-136978414D01*
X137378936Y-136928398D01*
X137250749Y-136902900D01*
X137120051Y-136902900D01*
X136991864Y-136928398D01*
X136871115Y-136978414D01*
X136762444Y-137051026D01*
X136670026Y-137143444D01*
X136597414Y-137252115D01*
X136547398Y-137372864D01*
X136521900Y-137501051D01*
X136521900Y-137631749D01*
X136547398Y-137759936D01*
X136597414Y-137880685D01*
X136670026Y-137989356D01*
X136762444Y-138081774D01*
X136871115Y-138154386D01*
X136961592Y-138191863D01*
X136927614Y-138242715D01*
X136877598Y-138363464D01*
X136852100Y-138491651D01*
X136852100Y-138622349D01*
X136877598Y-138750536D01*
X136927614Y-138871285D01*
X137000226Y-138979956D01*
X137092644Y-139072374D01*
X137127100Y-139095397D01*
X137127101Y-143592515D01*
X137125221Y-143611600D01*
X137132723Y-143687758D01*
X137154937Y-143760991D01*
X137191012Y-143828483D01*
X137220465Y-143864372D01*
X137239561Y-143887640D01*
X137254382Y-143899803D01*
X141063100Y-147708522D01*
X141063100Y-147957018D01*
X141049945Y-147958314D01*
X141000275Y-147973381D01*
X140954499Y-147997848D01*
X140951600Y-148000227D01*
X140948701Y-147997848D01*
X140902925Y-147973381D01*
X140853255Y-147958314D01*
X140801600Y-147953226D01*
X140101600Y-147953226D01*
X140049945Y-147958314D01*
X140000275Y-147973381D01*
X139954499Y-147997848D01*
X139951600Y-148000227D01*
X139948701Y-147997848D01*
X139902925Y-147973381D01*
X139853255Y-147958314D01*
X139801600Y-147953226D01*
X139101600Y-147953226D01*
X139049945Y-147958314D01*
X139000275Y-147973381D01*
X138954499Y-147997848D01*
X138951600Y-148000227D01*
X138948701Y-147997848D01*
X138902925Y-147973381D01*
X138853255Y-147958314D01*
X138801600Y-147953226D01*
X138671250Y-147953226D01*
X136578259Y-145860236D01*
X136556387Y-145819316D01*
X136527391Y-145783984D01*
X136507839Y-145760159D01*
X136493017Y-145747995D01*
X136290110Y-145545089D01*
X136290110Y-134032711D01*
X136533522Y-133789300D01*
X136988133Y-133789300D01*
X136995107Y-133802347D01*
X137046378Y-133864822D01*
X137108853Y-133916093D01*
X137180130Y-133954192D01*
X137257469Y-133977652D01*
X137337900Y-133985574D01*
X137632900Y-133985574D01*
X137713331Y-133977652D01*
X137790670Y-133954192D01*
X137861947Y-133916093D01*
X137924422Y-133864822D01*
X137970400Y-133808797D01*
X138016378Y-133864822D01*
X138078853Y-133916093D01*
X138150130Y-133954192D01*
X138227469Y-133977652D01*
X138307900Y-133985574D01*
X138602900Y-133985574D01*
X138683331Y-133977652D01*
X138760670Y-133954192D01*
X138831947Y-133916093D01*
X138894422Y-133864822D01*
X138945693Y-133802347D01*
X138952667Y-133789300D01*
X138974133Y-133789300D01*
X138981107Y-133802347D01*
X139032378Y-133864822D01*
X139094853Y-133916093D01*
X139166130Y-133954192D01*
X139243469Y-133977652D01*
X139323900Y-133985574D01*
X139618900Y-133985574D01*
X139699331Y-133977652D01*
X139776670Y-133954192D01*
X139847947Y-133916093D01*
X139877718Y-133891661D01*
X139881131Y-133898047D01*
X139920807Y-133946393D01*
X139969153Y-133986069D01*
X140024310Y-134015551D01*
X140084159Y-134033706D01*
X140146400Y-134039836D01*
X140298525Y-134038300D01*
X140377900Y-133958925D01*
X140377900Y-133464300D01*
X140504900Y-133464300D01*
X140504900Y-133958925D01*
X140584275Y-134038300D01*
X140736400Y-134039836D01*
X140798641Y-134033706D01*
X140858490Y-134015551D01*
X140913647Y-133986069D01*
X140961993Y-133946393D01*
X141001669Y-133898047D01*
X141031151Y-133842890D01*
X141049306Y-133783041D01*
X141055436Y-133720800D01*
X141053900Y-133543675D01*
X140974525Y-133464300D01*
X140504900Y-133464300D01*
X140377900Y-133464300D01*
X140357900Y-133464300D01*
X140357900Y-133337300D01*
X140377900Y-133337300D01*
X140377900Y-132842675D01*
X140504900Y-132842675D01*
X140504900Y-133337300D01*
X140974525Y-133337300D01*
X141053900Y-133257925D01*
X141055436Y-133080800D01*
X141049306Y-133018559D01*
X141031151Y-132958710D01*
X141001669Y-132903553D01*
X140961993Y-132855207D01*
X140913647Y-132815531D01*
X140858490Y-132786049D01*
X140798641Y-132767894D01*
X140736400Y-132761764D01*
X140584275Y-132763300D01*
X140504900Y-132842675D01*
X140377900Y-132842675D01*
X140298525Y-132763300D01*
X140146400Y-132761764D01*
X140084159Y-132767894D01*
X140024310Y-132786049D01*
X139969153Y-132815531D01*
X139920807Y-132855207D01*
X139881131Y-132903553D01*
X139877718Y-132909939D01*
X139859900Y-132895316D01*
X139859900Y-132850521D01*
X141778407Y-130932015D01*
X141819051Y-130940100D01*
X141949749Y-130940100D01*
X142077936Y-130914602D01*
X142198685Y-130864586D01*
X142307356Y-130791974D01*
X142399774Y-130699556D01*
X142472386Y-130590885D01*
X142522402Y-130470136D01*
X142547900Y-130341949D01*
X142547900Y-130211251D01*
X142522402Y-130083064D01*
X142472386Y-129962315D01*
X142399774Y-129853644D01*
X142307356Y-129761226D01*
X142198685Y-129688614D01*
X142077936Y-129638598D01*
X141949749Y-129613100D01*
X141819051Y-129613100D01*
X141690864Y-129638598D01*
X141570115Y-129688614D01*
X141461444Y-129761226D01*
X141369026Y-129853644D01*
X141296414Y-129962315D01*
X141246398Y-130083064D01*
X141220900Y-130211251D01*
X141220900Y-130341949D01*
X141228985Y-130382593D01*
X139210187Y-132401392D01*
X139195360Y-132413560D01*
X139162949Y-132453054D01*
X139146812Y-132472717D01*
X139110738Y-132540208D01*
X139110737Y-132540209D01*
X139088522Y-132613442D01*
X139082900Y-132670522D01*
X139081021Y-132689600D01*
X139082900Y-132708676D01*
X139082900Y-132895316D01*
X139032378Y-132936778D01*
X138981107Y-132999253D01*
X138974133Y-133012300D01*
X138952667Y-133012300D01*
X138945693Y-132999253D01*
X138894422Y-132936778D01*
X138831947Y-132885507D01*
X138760670Y-132847408D01*
X138683331Y-132823948D01*
X138602900Y-132816026D01*
X138307900Y-132816026D01*
X138227469Y-132823948D01*
X138150130Y-132847408D01*
X138078853Y-132885507D01*
X138016378Y-132936778D01*
X137970400Y-132992803D01*
X137924422Y-132936778D01*
X137861947Y-132885507D01*
X137790670Y-132847408D01*
X137713331Y-132823948D01*
X137632900Y-132816026D01*
X137337900Y-132816026D01*
X137257469Y-132823948D01*
X137180130Y-132847408D01*
X137108853Y-132885507D01*
X137046378Y-132936778D01*
X136995107Y-132999253D01*
X136988133Y-133012300D01*
X136391674Y-133012300D01*
X136372599Y-133010421D01*
X136353524Y-133012300D01*
X136353522Y-133012300D01*
X136296441Y-133017922D01*
X136223208Y-133040137D01*
X136155717Y-133076212D01*
X136096560Y-133124760D01*
X136084396Y-133139582D01*
X135840100Y-133383879D01*
X135840100Y-127065921D01*
X146998322Y-115907700D01*
X147823003Y-115907700D01*
X147846026Y-115942156D01*
X147938444Y-116034574D01*
X148047115Y-116107186D01*
X148167864Y-116157202D01*
X148296051Y-116182700D01*
X148426749Y-116182700D01*
X148554936Y-116157202D01*
X148675685Y-116107186D01*
X148784356Y-116034574D01*
X148876774Y-115942156D01*
X148949386Y-115833485D01*
X148999402Y-115712736D01*
X149024900Y-115584549D01*
X149024900Y-115453851D01*
X148999402Y-115325664D01*
X148949386Y-115204915D01*
X148876774Y-115096244D01*
X148784356Y-115003826D01*
X148675685Y-114931214D01*
X148554936Y-114881198D01*
X148426749Y-114855700D01*
X148296051Y-114855700D01*
X148167864Y-114881198D01*
X148047115Y-114931214D01*
X147938444Y-115003826D01*
X147846026Y-115096244D01*
X147823003Y-115130700D01*
X146856475Y-115130700D01*
X146837400Y-115128821D01*
X146818325Y-115130700D01*
X146818322Y-115130700D01*
X146761241Y-115136322D01*
X146688008Y-115158537D01*
X146620517Y-115194612D01*
X146561360Y-115243160D01*
X146549197Y-115257981D01*
X135190387Y-126616792D01*
X135175560Y-126628960D01*
X135143149Y-126668454D01*
X135127012Y-126688117D01*
X135090938Y-126755608D01*
X135090937Y-126755609D01*
X135068722Y-126828842D01*
X135063100Y-126885922D01*
X135061221Y-126905000D01*
X135063100Y-126924075D01*
X135063101Y-147957018D01*
X135049945Y-147958314D01*
X135000275Y-147973381D01*
X134954499Y-147997848D01*
X134951600Y-148000227D01*
X134948701Y-147997848D01*
X134932300Y-147989082D01*
X134932300Y-118778921D01*
X137562007Y-116149215D01*
X137602651Y-116157300D01*
X137733349Y-116157300D01*
X137861536Y-116131802D01*
X137982285Y-116081786D01*
X138090956Y-116009174D01*
X138183374Y-115916756D01*
X138255986Y-115808085D01*
X138306002Y-115687336D01*
X138331500Y-115559149D01*
X138331500Y-115428451D01*
X138306002Y-115300264D01*
X138255986Y-115179515D01*
X138183374Y-115070844D01*
X138090956Y-114978426D01*
X137982285Y-114905814D01*
X137861536Y-114855798D01*
X137733349Y-114830300D01*
X137602651Y-114830300D01*
X137474464Y-114855798D01*
X137353715Y-114905814D01*
X137245044Y-114978426D01*
X137152626Y-115070844D01*
X137080014Y-115179515D01*
X137029998Y-115300264D01*
X137004500Y-115428451D01*
X137004500Y-115559149D01*
X137012585Y-115599793D01*
X134282587Y-118329792D01*
X134267760Y-118341960D01*
X134235349Y-118381454D01*
X134219212Y-118401117D01*
X134183138Y-118468608D01*
X134183137Y-118468609D01*
X134160922Y-118541842D01*
X134155300Y-118598922D01*
X134153421Y-118618000D01*
X134155300Y-118637075D01*
X134155301Y-147953226D01*
X134101600Y-147953226D01*
X134049945Y-147958314D01*
X134000275Y-147973381D01*
X133954499Y-147997848D01*
X133951600Y-148000227D01*
X133948701Y-147997848D01*
X133902925Y-147973381D01*
X133853255Y-147958314D01*
X133840100Y-147957018D01*
X133840100Y-116823121D01*
X135784007Y-114879215D01*
X135824651Y-114887300D01*
X135955349Y-114887300D01*
X136083536Y-114861802D01*
X136204285Y-114811786D01*
X136312956Y-114739174D01*
X136405374Y-114646756D01*
X136477986Y-114538085D01*
X136528002Y-114417336D01*
X136553500Y-114289149D01*
X136553500Y-114158451D01*
X136528002Y-114030264D01*
X136477986Y-113909515D01*
X136405374Y-113800844D01*
X136312956Y-113708426D01*
X136204285Y-113635814D01*
X136083536Y-113585798D01*
X135955349Y-113560300D01*
X135824651Y-113560300D01*
X135696464Y-113585798D01*
X135575715Y-113635814D01*
X135467044Y-113708426D01*
X135374626Y-113800844D01*
X135302014Y-113909515D01*
X135251998Y-114030264D01*
X135226500Y-114158451D01*
X135226500Y-114289149D01*
X135234585Y-114329793D01*
X133190382Y-116373997D01*
X133175561Y-116386160D01*
X133163399Y-116400980D01*
X133127012Y-116445317D01*
X133113569Y-116470468D01*
X133113315Y-110759200D01*
X145583564Y-110759200D01*
X145589694Y-110821441D01*
X145607849Y-110881290D01*
X145637331Y-110936447D01*
X145677007Y-110984793D01*
X145725353Y-111024469D01*
X145780510Y-111053951D01*
X145840359Y-111072106D01*
X145902600Y-111078236D01*
X146054725Y-111076700D01*
X146134100Y-110997325D01*
X146134100Y-110502700D01*
X145664475Y-110502700D01*
X145585100Y-110582075D01*
X145583564Y-110759200D01*
X133113315Y-110759200D01*
X133113261Y-109564400D01*
X144407564Y-109564400D01*
X144413694Y-109626641D01*
X144431849Y-109686490D01*
X144461331Y-109741647D01*
X144501007Y-109789993D01*
X144549353Y-109829669D01*
X144604510Y-109859151D01*
X144664359Y-109877306D01*
X144726600Y-109883436D01*
X145071225Y-109881900D01*
X145150600Y-109802525D01*
X145150600Y-108927900D01*
X145277600Y-108927900D01*
X145277600Y-109802525D01*
X145356975Y-109881900D01*
X145689466Y-109883382D01*
X145677007Y-109893607D01*
X145637331Y-109941953D01*
X145607849Y-109997110D01*
X145589694Y-110056959D01*
X145583564Y-110119200D01*
X145585100Y-110296325D01*
X145664475Y-110375700D01*
X146134100Y-110375700D01*
X146134100Y-109881075D01*
X146054725Y-109801700D01*
X145914651Y-109800286D01*
X145927193Y-109789993D01*
X145966869Y-109741647D01*
X145996351Y-109686490D01*
X146014506Y-109626641D01*
X146020636Y-109564400D01*
X146019100Y-109007275D01*
X145939725Y-108927900D01*
X145277600Y-108927900D01*
X145150600Y-108927900D01*
X144488475Y-108927900D01*
X144409100Y-109007275D01*
X144407564Y-109564400D01*
X133113261Y-109564400D01*
X133113199Y-108164400D01*
X144407564Y-108164400D01*
X144409100Y-108721525D01*
X144488475Y-108800900D01*
X145150600Y-108800900D01*
X145150600Y-107926275D01*
X145277600Y-107926275D01*
X145277600Y-108800900D01*
X145939725Y-108800900D01*
X146019100Y-108721525D01*
X146020636Y-108164400D01*
X146014506Y-108102159D01*
X145996351Y-108042310D01*
X145966869Y-107987153D01*
X145927193Y-107938807D01*
X145878847Y-107899131D01*
X145823690Y-107869649D01*
X145763841Y-107851494D01*
X145701600Y-107845364D01*
X145356975Y-107846900D01*
X145277600Y-107926275D01*
X145150600Y-107926275D01*
X145071225Y-107846900D01*
X144726600Y-107845364D01*
X144664359Y-107851494D01*
X144604510Y-107869649D01*
X144549353Y-107899131D01*
X144501007Y-107938807D01*
X144461331Y-107987153D01*
X144431849Y-108042310D01*
X144413694Y-108102159D01*
X144407564Y-108164400D01*
X133113199Y-108164400D01*
X133113016Y-104076500D01*
X151999901Y-104076500D01*
X151999902Y-146638300D01*
G37*
X151999902Y-146638300D02*
X151106340Y-147531863D01*
X151086745Y-147547944D01*
X151059283Y-147581407D01*
X151022575Y-147626134D01*
X150974893Y-147715342D01*
X150945531Y-147812137D01*
X150935616Y-147912800D01*
X150937365Y-147930559D01*
X150923690Y-147923249D01*
X150863841Y-147905094D01*
X150801600Y-147898964D01*
X150594475Y-147900500D01*
X150515100Y-147979875D01*
X150515100Y-150304500D01*
X150535100Y-150304500D01*
X150535100Y-150431500D01*
X150515100Y-150431500D01*
X150515100Y-150451500D01*
X150388100Y-150451500D01*
X150388100Y-150431500D01*
X149515100Y-150431500D01*
X149515100Y-150451500D01*
X149388100Y-150451500D01*
X149388100Y-150431500D01*
X149368100Y-150431500D01*
X149368100Y-150304500D01*
X149388100Y-150304500D01*
X149388100Y-147979875D01*
X149515100Y-147979875D01*
X149515100Y-150304500D01*
X150388100Y-150304500D01*
X150388100Y-147979875D01*
X150308725Y-147900500D01*
X150101600Y-147898964D01*
X150039359Y-147905094D01*
X149979510Y-147923249D01*
X149951600Y-147938167D01*
X149923690Y-147923249D01*
X149863841Y-147905094D01*
X149801600Y-147898964D01*
X149594475Y-147900500D01*
X149515100Y-147979875D01*
X149388100Y-147979875D01*
X149308725Y-147900500D01*
X149101600Y-147898964D01*
X149039359Y-147905094D01*
X148979510Y-147923249D01*
X148965100Y-147930951D01*
X148965100Y-145918497D01*
X150535466Y-144348133D01*
X150555056Y-144332056D01*
X150571134Y-144312465D01*
X150619225Y-144253866D01*
X150643066Y-144209262D01*
X150666907Y-144164659D01*
X150696270Y-144067863D01*
X150703700Y-143992422D01*
X150703700Y-143992419D01*
X150706184Y-143967200D01*
X150703700Y-143941981D01*
X150703700Y-112394819D01*
X150706184Y-112369600D01*
X150703700Y-112344378D01*
X150696270Y-112268937D01*
X150666907Y-112172141D01*
X150619225Y-112082934D01*
X150571134Y-112024335D01*
X150571133Y-112024334D01*
X150555056Y-112004744D01*
X150535466Y-111988667D01*
X148923300Y-110376503D01*
X148923300Y-110373851D01*
X148897802Y-110245664D01*
X148847786Y-110124915D01*
X148775174Y-110016244D01*
X148682756Y-109923826D01*
X148574085Y-109851214D01*
X148453336Y-109801198D01*
X148325149Y-109775700D01*
X148194451Y-109775700D01*
X148066264Y-109801198D01*
X147945515Y-109851214D01*
X147872053Y-109900300D01*
X147729900Y-109900300D01*
X147729900Y-109634575D01*
X147755672Y-109603171D01*
X147802665Y-109515254D01*
X147831603Y-109419858D01*
X147841374Y-109320650D01*
X147841374Y-108408150D01*
X147831603Y-108308942D01*
X147802665Y-108213546D01*
X147755672Y-108125629D01*
X147692431Y-108048569D01*
X147615371Y-107985328D01*
X147527454Y-107938335D01*
X147432058Y-107909397D01*
X147332850Y-107899626D01*
X146845350Y-107899626D01*
X146746142Y-107909397D01*
X146650746Y-107938335D01*
X146562829Y-107985328D01*
X146485769Y-108048569D01*
X146422528Y-108125629D01*
X146375535Y-108213546D01*
X146346597Y-108308942D01*
X146336826Y-108408150D01*
X146336826Y-109320650D01*
X146346597Y-109419858D01*
X146375535Y-109515254D01*
X146422528Y-109603171D01*
X146452900Y-109640180D01*
X146452900Y-109800565D01*
X146340475Y-109801700D01*
X146261100Y-109881075D01*
X146261100Y-110375700D01*
X146281100Y-110375700D01*
X146281100Y-110502700D01*
X146261100Y-110502700D01*
X146261100Y-110997325D01*
X146340475Y-111076700D01*
X146492600Y-111078236D01*
X146554841Y-111072106D01*
X146614690Y-111053951D01*
X146669847Y-111024469D01*
X146718193Y-110984793D01*
X146743438Y-110954031D01*
X146850674Y-111011350D01*
X146971033Y-111047861D01*
X147096199Y-111060188D01*
X147221367Y-111047861D01*
X147300110Y-111023974D01*
X147315100Y-111023974D01*
X147395531Y-111016052D01*
X147472870Y-110992592D01*
X147544147Y-110954493D01*
X147577282Y-110927300D01*
X147809570Y-110927300D01*
X147836844Y-110954574D01*
X147945515Y-111027186D01*
X148066264Y-111077202D01*
X148194451Y-111102700D01*
X148197103Y-111102700D01*
X149676701Y-112582300D01*
X149676700Y-143754501D01*
X148106340Y-145324863D01*
X148086745Y-145340944D01*
X148059283Y-145374407D01*
X148022575Y-145419134D01*
X147974893Y-145508342D01*
X147945531Y-145605137D01*
X147935616Y-145705800D01*
X147938101Y-145731029D01*
X147938101Y-147992182D01*
X147902925Y-147973381D01*
X147853255Y-147958314D01*
X147801600Y-147953226D01*
X147101600Y-147953226D01*
X147049945Y-147958314D01*
X147000275Y-147973381D01*
X146954499Y-147997848D01*
X146951600Y-148000227D01*
X146948701Y-147997848D01*
X146902925Y-147973381D01*
X146853255Y-147958314D01*
X146801600Y-147953226D01*
X146215100Y-147953226D01*
X146215100Y-146352608D01*
X146213510Y-146336464D01*
X146213510Y-146324144D01*
X146213053Y-146319790D01*
X146192386Y-146135539D01*
X146186484Y-146107774D01*
X146180960Y-146079874D01*
X146179666Y-146075693D01*
X146123605Y-145898963D01*
X146112409Y-145872842D01*
X146101583Y-145846576D01*
X146099501Y-145842725D01*
X146010180Y-145680251D01*
X145994126Y-145656805D01*
X145978402Y-145633139D01*
X145975612Y-145629766D01*
X145856434Y-145487736D01*
X145836115Y-145467839D01*
X145816112Y-145447695D01*
X145812720Y-145444928D01*
X145668225Y-145328752D01*
X145644437Y-145313186D01*
X145620893Y-145297305D01*
X145617029Y-145295249D01*
X145452720Y-145209350D01*
X145426353Y-145198697D01*
X145400179Y-145187695D01*
X145395989Y-145186430D01*
X145218126Y-145134082D01*
X145190192Y-145128754D01*
X145162382Y-145123045D01*
X145158025Y-145122617D01*
X144973381Y-145105813D01*
X144944929Y-145106012D01*
X144916554Y-145105814D01*
X144912198Y-145106240D01*
X144727805Y-145125621D01*
X144699964Y-145131336D01*
X144672063Y-145136659D01*
X144667873Y-145137924D01*
X144490756Y-145192750D01*
X144464540Y-145203770D01*
X144438217Y-145214406D01*
X144434352Y-145216460D01*
X144271259Y-145304644D01*
X144247671Y-145320555D01*
X144223926Y-145336093D01*
X144220534Y-145338859D01*
X144077675Y-145457043D01*
X144057653Y-145477205D01*
X144037354Y-145497084D01*
X144034563Y-145500456D01*
X143917380Y-145644136D01*
X143901627Y-145667847D01*
X143885604Y-145691248D01*
X143883521Y-145695098D01*
X143796477Y-145858803D01*
X143785632Y-145885116D01*
X143774456Y-145911191D01*
X143773161Y-145915373D01*
X143719573Y-146092866D01*
X143714055Y-146120734D01*
X143708147Y-146148531D01*
X143707689Y-146152884D01*
X143689596Y-146337407D01*
X143689596Y-146337420D01*
X143688100Y-146352609D01*
X143688100Y-147151878D01*
X139351900Y-142815679D01*
X139351900Y-137636275D01*
X139353779Y-137617200D01*
X139351900Y-137598122D01*
X139346278Y-137541041D01*
X139324063Y-137467808D01*
X139287988Y-137400316D01*
X139251601Y-137355979D01*
X139239440Y-137341160D01*
X139224620Y-137328998D01*
X137612215Y-135716594D01*
X137620300Y-135675949D01*
X137620300Y-135545251D01*
X137594802Y-135417064D01*
X137544786Y-135296315D01*
X137472174Y-135187644D01*
X137379756Y-135095226D01*
X137271085Y-135022614D01*
X137150336Y-134972598D01*
X137022149Y-134947100D01*
X136891451Y-134947100D01*
X136763264Y-134972598D01*
X136642515Y-135022614D01*
X136533844Y-135095226D01*
X136441426Y-135187644D01*
X136368814Y-135296315D01*
X136318798Y-135417064D01*
X136293300Y-135545251D01*
X136293300Y-135675949D01*
X136318798Y-135804136D01*
X136368814Y-135924885D01*
X136441426Y-136033556D01*
X136533844Y-136125974D01*
X136642515Y-136198586D01*
X136763264Y-136248602D01*
X136891451Y-136274100D01*
X137022149Y-136274100D01*
X137062794Y-136266015D01*
X137978349Y-137181571D01*
X137941078Y-137177900D01*
X137770160Y-137177900D01*
X137751085Y-137176021D01*
X137732010Y-137177900D01*
X137723797Y-137177900D01*
X137700774Y-137143444D01*
X137608356Y-137051026D01*
X137499685Y-136978414D01*
X137378936Y-136928398D01*
X137250749Y-136902900D01*
X137120051Y-136902900D01*
X136991864Y-136928398D01*
X136871115Y-136978414D01*
X136762444Y-137051026D01*
X136670026Y-137143444D01*
X136597414Y-137252115D01*
X136547398Y-137372864D01*
X136521900Y-137501051D01*
X136521900Y-137631749D01*
X136547398Y-137759936D01*
X136597414Y-137880685D01*
X136670026Y-137989356D01*
X136762444Y-138081774D01*
X136871115Y-138154386D01*
X136961592Y-138191863D01*
X136927614Y-138242715D01*
X136877598Y-138363464D01*
X136852100Y-138491651D01*
X136852100Y-138622349D01*
X136877598Y-138750536D01*
X136927614Y-138871285D01*
X137000226Y-138979956D01*
X137092644Y-139072374D01*
X137127100Y-139095397D01*
X137127101Y-143592515D01*
X137125221Y-143611600D01*
X137132723Y-143687758D01*
X137154937Y-143760991D01*
X137191012Y-143828483D01*
X137220465Y-143864372D01*
X137239561Y-143887640D01*
X137254382Y-143899803D01*
X141063100Y-147708522D01*
X141063100Y-147957018D01*
X141049945Y-147958314D01*
X141000275Y-147973381D01*
X140954499Y-147997848D01*
X140951600Y-148000227D01*
X140948701Y-147997848D01*
X140902925Y-147973381D01*
X140853255Y-147958314D01*
X140801600Y-147953226D01*
X140101600Y-147953226D01*
X140049945Y-147958314D01*
X140000275Y-147973381D01*
X139954499Y-147997848D01*
X139951600Y-148000227D01*
X139948701Y-147997848D01*
X139902925Y-147973381D01*
X139853255Y-147958314D01*
X139801600Y-147953226D01*
X139101600Y-147953226D01*
X139049945Y-147958314D01*
X139000275Y-147973381D01*
X138954499Y-147997848D01*
X138951600Y-148000227D01*
X138948701Y-147997848D01*
X138902925Y-147973381D01*
X138853255Y-147958314D01*
X138801600Y-147953226D01*
X138671250Y-147953226D01*
X136578259Y-145860236D01*
X136556387Y-145819316D01*
X136527391Y-145783984D01*
X136507839Y-145760159D01*
X136493017Y-145747995D01*
X136290110Y-145545089D01*
X136290110Y-134032711D01*
X136533522Y-133789300D01*
X136988133Y-133789300D01*
X136995107Y-133802347D01*
X137046378Y-133864822D01*
X137108853Y-133916093D01*
X137180130Y-133954192D01*
X137257469Y-133977652D01*
X137337900Y-133985574D01*
X137632900Y-133985574D01*
X137713331Y-133977652D01*
X137790670Y-133954192D01*
X137861947Y-133916093D01*
X137924422Y-133864822D01*
X137970400Y-133808797D01*
X138016378Y-133864822D01*
X138078853Y-133916093D01*
X138150130Y-133954192D01*
X138227469Y-133977652D01*
X138307900Y-133985574D01*
X138602900Y-133985574D01*
X138683331Y-133977652D01*
X138760670Y-133954192D01*
X138831947Y-133916093D01*
X138894422Y-133864822D01*
X138945693Y-133802347D01*
X138952667Y-133789300D01*
X138974133Y-133789300D01*
X138981107Y-133802347D01*
X139032378Y-133864822D01*
X139094853Y-133916093D01*
X139166130Y-133954192D01*
X139243469Y-133977652D01*
X139323900Y-133985574D01*
X139618900Y-133985574D01*
X139699331Y-133977652D01*
X139776670Y-133954192D01*
X139847947Y-133916093D01*
X139877718Y-133891661D01*
X139881131Y-133898047D01*
X139920807Y-133946393D01*
X139969153Y-133986069D01*
X140024310Y-134015551D01*
X140084159Y-134033706D01*
X140146400Y-134039836D01*
X140298525Y-134038300D01*
X140377900Y-133958925D01*
X140377900Y-133464300D01*
X140504900Y-133464300D01*
X140504900Y-133958925D01*
X140584275Y-134038300D01*
X140736400Y-134039836D01*
X140798641Y-134033706D01*
X140858490Y-134015551D01*
X140913647Y-133986069D01*
X140961993Y-133946393D01*
X141001669Y-133898047D01*
X141031151Y-133842890D01*
X141049306Y-133783041D01*
X141055436Y-133720800D01*
X141053900Y-133543675D01*
X140974525Y-133464300D01*
X140504900Y-133464300D01*
X140377900Y-133464300D01*
X140357900Y-133464300D01*
X140357900Y-133337300D01*
X140377900Y-133337300D01*
X140377900Y-132842675D01*
X140504900Y-132842675D01*
X140504900Y-133337300D01*
X140974525Y-133337300D01*
X141053900Y-133257925D01*
X141055436Y-133080800D01*
X141049306Y-133018559D01*
X141031151Y-132958710D01*
X141001669Y-132903553D01*
X140961993Y-132855207D01*
X140913647Y-132815531D01*
X140858490Y-132786049D01*
X140798641Y-132767894D01*
X140736400Y-132761764D01*
X140584275Y-132763300D01*
X140504900Y-132842675D01*
X140377900Y-132842675D01*
X140298525Y-132763300D01*
X140146400Y-132761764D01*
X140084159Y-132767894D01*
X140024310Y-132786049D01*
X139969153Y-132815531D01*
X139920807Y-132855207D01*
X139881131Y-132903553D01*
X139877718Y-132909939D01*
X139859900Y-132895316D01*
X139859900Y-132850521D01*
X141778407Y-130932015D01*
X141819051Y-130940100D01*
X141949749Y-130940100D01*
X142077936Y-130914602D01*
X142198685Y-130864586D01*
X142307356Y-130791974D01*
X142399774Y-130699556D01*
X142472386Y-130590885D01*
X142522402Y-130470136D01*
X142547900Y-130341949D01*
X142547900Y-130211251D01*
X142522402Y-130083064D01*
X142472386Y-129962315D01*
X142399774Y-129853644D01*
X142307356Y-129761226D01*
X142198685Y-129688614D01*
X142077936Y-129638598D01*
X141949749Y-129613100D01*
X141819051Y-129613100D01*
X141690864Y-129638598D01*
X141570115Y-129688614D01*
X141461444Y-129761226D01*
X141369026Y-129853644D01*
X141296414Y-129962315D01*
X141246398Y-130083064D01*
X141220900Y-130211251D01*
X141220900Y-130341949D01*
X141228985Y-130382593D01*
X139210187Y-132401392D01*
X139195360Y-132413560D01*
X139162949Y-132453054D01*
X139146812Y-132472717D01*
X139110738Y-132540208D01*
X139110737Y-132540209D01*
X139088522Y-132613442D01*
X139082900Y-132670522D01*
X139081021Y-132689600D01*
X139082900Y-132708676D01*
X139082900Y-132895316D01*
X139032378Y-132936778D01*
X138981107Y-132999253D01*
X138974133Y-133012300D01*
X138952667Y-133012300D01*
X138945693Y-132999253D01*
X138894422Y-132936778D01*
X138831947Y-132885507D01*
X138760670Y-132847408D01*
X138683331Y-132823948D01*
X138602900Y-132816026D01*
X138307900Y-132816026D01*
X138227469Y-132823948D01*
X138150130Y-132847408D01*
X138078853Y-132885507D01*
X138016378Y-132936778D01*
X137970400Y-132992803D01*
X137924422Y-132936778D01*
X137861947Y-132885507D01*
X137790670Y-132847408D01*
X137713331Y-132823948D01*
X137632900Y-132816026D01*
X137337900Y-132816026D01*
X137257469Y-132823948D01*
X137180130Y-132847408D01*
X137108853Y-132885507D01*
X137046378Y-132936778D01*
X136995107Y-132999253D01*
X136988133Y-133012300D01*
X136391674Y-133012300D01*
X136372599Y-133010421D01*
X136353524Y-133012300D01*
X136353522Y-133012300D01*
X136296441Y-133017922D01*
X136223208Y-133040137D01*
X136155717Y-133076212D01*
X136096560Y-133124760D01*
X136084396Y-133139582D01*
X135840100Y-133383879D01*
X135840100Y-127065921D01*
X146998322Y-115907700D01*
X147823003Y-115907700D01*
X147846026Y-115942156D01*
X147938444Y-116034574D01*
X148047115Y-116107186D01*
X148167864Y-116157202D01*
X148296051Y-116182700D01*
X148426749Y-116182700D01*
X148554936Y-116157202D01*
X148675685Y-116107186D01*
X148784356Y-116034574D01*
X148876774Y-115942156D01*
X148949386Y-115833485D01*
X148999402Y-115712736D01*
X149024900Y-115584549D01*
X149024900Y-115453851D01*
X148999402Y-115325664D01*
X148949386Y-115204915D01*
X148876774Y-115096244D01*
X148784356Y-115003826D01*
X148675685Y-114931214D01*
X148554936Y-114881198D01*
X148426749Y-114855700D01*
X148296051Y-114855700D01*
X148167864Y-114881198D01*
X148047115Y-114931214D01*
X147938444Y-115003826D01*
X147846026Y-115096244D01*
X147823003Y-115130700D01*
X146856475Y-115130700D01*
X146837400Y-115128821D01*
X146818325Y-115130700D01*
X146818322Y-115130700D01*
X146761241Y-115136322D01*
X146688008Y-115158537D01*
X146620517Y-115194612D01*
X146561360Y-115243160D01*
X146549197Y-115257981D01*
X135190387Y-126616792D01*
X135175560Y-126628960D01*
X135143149Y-126668454D01*
X135127012Y-126688117D01*
X135090938Y-126755608D01*
X135090937Y-126755609D01*
X135068722Y-126828842D01*
X135063100Y-126885922D01*
X135061221Y-126905000D01*
X135063100Y-126924075D01*
X135063101Y-147957018D01*
X135049945Y-147958314D01*
X135000275Y-147973381D01*
X134954499Y-147997848D01*
X134951600Y-148000227D01*
X134948701Y-147997848D01*
X134932300Y-147989082D01*
X134932300Y-118778921D01*
X137562007Y-116149215D01*
X137602651Y-116157300D01*
X137733349Y-116157300D01*
X137861536Y-116131802D01*
X137982285Y-116081786D01*
X138090956Y-116009174D01*
X138183374Y-115916756D01*
X138255986Y-115808085D01*
X138306002Y-115687336D01*
X138331500Y-115559149D01*
X138331500Y-115428451D01*
X138306002Y-115300264D01*
X138255986Y-115179515D01*
X138183374Y-115070844D01*
X138090956Y-114978426D01*
X137982285Y-114905814D01*
X137861536Y-114855798D01*
X137733349Y-114830300D01*
X137602651Y-114830300D01*
X137474464Y-114855798D01*
X137353715Y-114905814D01*
X137245044Y-114978426D01*
X137152626Y-115070844D01*
X137080014Y-115179515D01*
X137029998Y-115300264D01*
X137004500Y-115428451D01*
X137004500Y-115559149D01*
X137012585Y-115599793D01*
X134282587Y-118329792D01*
X134267760Y-118341960D01*
X134235349Y-118381454D01*
X134219212Y-118401117D01*
X134183138Y-118468608D01*
X134183137Y-118468609D01*
X134160922Y-118541842D01*
X134155300Y-118598922D01*
X134153421Y-118618000D01*
X134155300Y-118637075D01*
X134155301Y-147953226D01*
X134101600Y-147953226D01*
X134049945Y-147958314D01*
X134000275Y-147973381D01*
X133954499Y-147997848D01*
X133951600Y-148000227D01*
X133948701Y-147997848D01*
X133902925Y-147973381D01*
X133853255Y-147958314D01*
X133840100Y-147957018D01*
X133840100Y-116823121D01*
X135784007Y-114879215D01*
X135824651Y-114887300D01*
X135955349Y-114887300D01*
X136083536Y-114861802D01*
X136204285Y-114811786D01*
X136312956Y-114739174D01*
X136405374Y-114646756D01*
X136477986Y-114538085D01*
X136528002Y-114417336D01*
X136553500Y-114289149D01*
X136553500Y-114158451D01*
X136528002Y-114030264D01*
X136477986Y-113909515D01*
X136405374Y-113800844D01*
X136312956Y-113708426D01*
X136204285Y-113635814D01*
X136083536Y-113585798D01*
X135955349Y-113560300D01*
X135824651Y-113560300D01*
X135696464Y-113585798D01*
X135575715Y-113635814D01*
X135467044Y-113708426D01*
X135374626Y-113800844D01*
X135302014Y-113909515D01*
X135251998Y-114030264D01*
X135226500Y-114158451D01*
X135226500Y-114289149D01*
X135234585Y-114329793D01*
X133190382Y-116373997D01*
X133175561Y-116386160D01*
X133163399Y-116400980D01*
X133127012Y-116445317D01*
X133113569Y-116470468D01*
X133113315Y-110759200D01*
X145583564Y-110759200D01*
X145589694Y-110821441D01*
X145607849Y-110881290D01*
X145637331Y-110936447D01*
X145677007Y-110984793D01*
X145725353Y-111024469D01*
X145780510Y-111053951D01*
X145840359Y-111072106D01*
X145902600Y-111078236D01*
X146054725Y-111076700D01*
X146134100Y-110997325D01*
X146134100Y-110502700D01*
X145664475Y-110502700D01*
X145585100Y-110582075D01*
X145583564Y-110759200D01*
X133113315Y-110759200D01*
X133113261Y-109564400D01*
X144407564Y-109564400D01*
X144413694Y-109626641D01*
X144431849Y-109686490D01*
X144461331Y-109741647D01*
X144501007Y-109789993D01*
X144549353Y-109829669D01*
X144604510Y-109859151D01*
X144664359Y-109877306D01*
X144726600Y-109883436D01*
X145071225Y-109881900D01*
X145150600Y-109802525D01*
X145150600Y-108927900D01*
X145277600Y-108927900D01*
X145277600Y-109802525D01*
X145356975Y-109881900D01*
X145689466Y-109883382D01*
X145677007Y-109893607D01*
X145637331Y-109941953D01*
X145607849Y-109997110D01*
X145589694Y-110056959D01*
X145583564Y-110119200D01*
X145585100Y-110296325D01*
X145664475Y-110375700D01*
X146134100Y-110375700D01*
X146134100Y-109881075D01*
X146054725Y-109801700D01*
X145914651Y-109800286D01*
X145927193Y-109789993D01*
X145966869Y-109741647D01*
X145996351Y-109686490D01*
X146014506Y-109626641D01*
X146020636Y-109564400D01*
X146019100Y-109007275D01*
X145939725Y-108927900D01*
X145277600Y-108927900D01*
X145150600Y-108927900D01*
X144488475Y-108927900D01*
X144409100Y-109007275D01*
X144407564Y-109564400D01*
X133113261Y-109564400D01*
X133113199Y-108164400D01*
X144407564Y-108164400D01*
X144409100Y-108721525D01*
X144488475Y-108800900D01*
X145150600Y-108800900D01*
X145150600Y-107926275D01*
X145277600Y-107926275D01*
X145277600Y-108800900D01*
X145939725Y-108800900D01*
X146019100Y-108721525D01*
X146020636Y-108164400D01*
X146014506Y-108102159D01*
X145996351Y-108042310D01*
X145966869Y-107987153D01*
X145927193Y-107938807D01*
X145878847Y-107899131D01*
X145823690Y-107869649D01*
X145763841Y-107851494D01*
X145701600Y-107845364D01*
X145356975Y-107846900D01*
X145277600Y-107926275D01*
X145150600Y-107926275D01*
X145071225Y-107846900D01*
X144726600Y-107845364D01*
X144664359Y-107851494D01*
X144604510Y-107869649D01*
X144549353Y-107899131D01*
X144501007Y-107938807D01*
X144461331Y-107987153D01*
X144431849Y-108042310D01*
X144413694Y-108102159D01*
X144407564Y-108164400D01*
X133113199Y-108164400D01*
X133113016Y-104076500D01*
X151999901Y-104076500D01*
X151999902Y-146638300D01*
%TD*%
M02*
