%TF.GenerationSoftware,KiCad,Pcbnew,5.1.6*%
%TF.CreationDate,2020-07-27T19:16:26+00:00*%
%TF.ProjectId,SoundCard,536f756e-6443-4617-9264-2e6b69636164,rev?*%
%TF.SameCoordinates,Original*%
%TF.FileFunction,Legend,Bot*%
%TF.FilePolarity,Positive*%
%FSLAX46Y46*%
G04 Gerber Fmt 4.6, Leading zero omitted, Abs format (unit mm)*
G04 Created by KiCad (PCBNEW 5.1.6) date 2020-07-27 19:16:26*
%MOMM*%
%LPD*%
G01*
G04 APERTURE LIST*
%ADD10C,0.120000*%
%ADD11C,0.150000*%
G04 APERTURE END LIST*
D10*
%TO.C,C23*%
X146410178Y-108154400D02*
X145893022Y-108154400D01*
X146410178Y-109574400D02*
X145893022Y-109574400D01*
%TO.C,R9*%
D11*
X140123066Y-132683180D02*
X140456400Y-132206990D01*
X140694495Y-132683180D02*
X140694495Y-131683180D01*
X140313542Y-131683180D01*
X140218304Y-131730800D01*
X140170685Y-131778419D01*
X140123066Y-131873657D01*
X140123066Y-132016514D01*
X140170685Y-132111752D01*
X140218304Y-132159371D01*
X140313542Y-132206990D01*
X140694495Y-132206990D01*
X139646876Y-132683180D02*
X139456400Y-132683180D01*
X139361161Y-132635561D01*
X139313542Y-132587942D01*
X139218304Y-132445085D01*
X139170685Y-132254609D01*
X139170685Y-131873657D01*
X139218304Y-131778419D01*
X139265923Y-131730800D01*
X139361161Y-131683180D01*
X139551638Y-131683180D01*
X139646876Y-131730800D01*
X139694495Y-131778419D01*
X139742114Y-131873657D01*
X139742114Y-132111752D01*
X139694495Y-132206990D01*
X139646876Y-132254609D01*
X139551638Y-132302228D01*
X139361161Y-132302228D01*
X139265923Y-132254609D01*
X139218304Y-132206990D01*
X139170685Y-132111752D01*
%TO.C,R10*%
X138613257Y-132683180D02*
X138946590Y-132206990D01*
X139184685Y-132683180D02*
X139184685Y-131683180D01*
X138803733Y-131683180D01*
X138708495Y-131730800D01*
X138660876Y-131778419D01*
X138613257Y-131873657D01*
X138613257Y-132016514D01*
X138660876Y-132111752D01*
X138708495Y-132159371D01*
X138803733Y-132206990D01*
X139184685Y-132206990D01*
X137660876Y-132683180D02*
X138232304Y-132683180D01*
X137946590Y-132683180D02*
X137946590Y-131683180D01*
X138041828Y-131826038D01*
X138137066Y-131921276D01*
X138232304Y-131968895D01*
X137041828Y-131683180D02*
X136946590Y-131683180D01*
X136851352Y-131730800D01*
X136803733Y-131778419D01*
X136756114Y-131873657D01*
X136708495Y-132064133D01*
X136708495Y-132302228D01*
X136756114Y-132492704D01*
X136803733Y-132587942D01*
X136851352Y-132635561D01*
X136946590Y-132683180D01*
X137041828Y-132683180D01*
X137137066Y-132635561D01*
X137184685Y-132587942D01*
X137232304Y-132492704D01*
X137279923Y-132302228D01*
X137279923Y-132064133D01*
X137232304Y-131873657D01*
X137184685Y-131778419D01*
X137137066Y-131730800D01*
X137041828Y-131683180D01*
%TO.C,C23*%
X146794457Y-107571542D02*
X146842076Y-107619161D01*
X146984933Y-107666780D01*
X147080171Y-107666780D01*
X147223028Y-107619161D01*
X147318266Y-107523923D01*
X147365885Y-107428685D01*
X147413504Y-107238209D01*
X147413504Y-107095352D01*
X147365885Y-106904876D01*
X147318266Y-106809638D01*
X147223028Y-106714400D01*
X147080171Y-106666780D01*
X146984933Y-106666780D01*
X146842076Y-106714400D01*
X146794457Y-106762019D01*
X146413504Y-106762019D02*
X146365885Y-106714400D01*
X146270647Y-106666780D01*
X146032552Y-106666780D01*
X145937314Y-106714400D01*
X145889695Y-106762019D01*
X145842076Y-106857257D01*
X145842076Y-106952495D01*
X145889695Y-107095352D01*
X146461123Y-107666780D01*
X145842076Y-107666780D01*
X145508742Y-106666780D02*
X144889695Y-106666780D01*
X145223028Y-107047733D01*
X145080171Y-107047733D01*
X144984933Y-107095352D01*
X144937314Y-107142971D01*
X144889695Y-107238209D01*
X144889695Y-107476304D01*
X144937314Y-107571542D01*
X144984933Y-107619161D01*
X145080171Y-107666780D01*
X145365885Y-107666780D01*
X145461123Y-107619161D01*
X145508742Y-107571542D01*
%TO.C,C22*%
X147325457Y-111966342D02*
X147373076Y-112013961D01*
X147515933Y-112061580D01*
X147611171Y-112061580D01*
X147754028Y-112013961D01*
X147849266Y-111918723D01*
X147896885Y-111823485D01*
X147944504Y-111633009D01*
X147944504Y-111490152D01*
X147896885Y-111299676D01*
X147849266Y-111204438D01*
X147754028Y-111109200D01*
X147611171Y-111061580D01*
X147515933Y-111061580D01*
X147373076Y-111109200D01*
X147325457Y-111156819D01*
X146944504Y-111156819D02*
X146896885Y-111109200D01*
X146801647Y-111061580D01*
X146563552Y-111061580D01*
X146468314Y-111109200D01*
X146420695Y-111156819D01*
X146373076Y-111252057D01*
X146373076Y-111347295D01*
X146420695Y-111490152D01*
X146992123Y-112061580D01*
X146373076Y-112061580D01*
X145992123Y-111156819D02*
X145944504Y-111109200D01*
X145849266Y-111061580D01*
X145611171Y-111061580D01*
X145515933Y-111109200D01*
X145468314Y-111156819D01*
X145420695Y-111252057D01*
X145420695Y-111347295D01*
X145468314Y-111490152D01*
X146039742Y-112061580D01*
X145420695Y-112061580D01*
%TD*%
M02*
