M48
INCH,TZ
T1C0.0079
T2C0.0118
T3C0.0157
T4C0.0591
T5C0.0669
%
G90
G05
T1
X53626Y-54180
X53626Y-54613
X53626Y-55047
X54059Y-54180
X54059Y-54613
X54059Y-55047
X54492Y-54180
X54492Y-54613
X54492Y-55047
T2
X52766Y-51872
X52772Y-53134
X52774Y-48064
X52774Y-49846
X52780Y-46436
X52780Y-47286
X52780Y-48898
X52780Y-50824
X53436Y-46826
X53456Y-47616
X53478Y-48396
X53488Y-49362
X53712Y-57336
X53712Y-57630
X53712Y-57930
X53760Y-50874
X53774Y-56136
X53800Y-53126
X53858Y-58152
X53952Y-51396
X54152Y-50386
X54184Y-57706
X54214Y-50860
X54258Y-51820
X54394Y-57992
X54426Y-51386
X54518Y-48022
X54592Y-50330
X54598Y-50970
X54740Y-57592
X54848Y-57042
X54876Y-47020
X55046Y-58160
X55320Y-49988
X55320Y-50940
X55324Y-50420
X55328Y-49194
X55340Y-56988
X55456Y-55938
X55532Y-57726
X55568Y-48492
X55572Y-53484
X55660Y-46450
X55672Y-47544
X55778Y-49992
X55808Y-50566
X55820Y-51296
X55832Y-51804
X55834Y-52890
X55836Y-53320
X55876Y-56422
X55876Y-57898
X56032Y-57208
X56046Y-49244
X56114Y-43942
X56118Y-43118
X56204Y-52170
X56302Y-56950
X56354Y-56324
X56418Y-48480
X56432Y-47018
X56442Y-45170
X56452Y-45982
X56564Y-52838
X56570Y-53318
X56600Y-50408
X56608Y-49756
X56748Y-56946
X56794Y-56306
X56812Y-52840
X56816Y-53316
X56926Y-48948
X57028Y-45498
X57064Y-52840
X57068Y-46422
X57080Y-53312
X57110Y-47532
X57134Y-55990
X57320Y-53910
X57322Y-52844
X57324Y-53624
X57326Y-53316
X57328Y-54478
X57330Y-54188
X57336Y-54740
X57338Y-55016
X57392Y-49434
X57430Y-50924
X57434Y-50194
X57598Y-57114
X57654Y-52292
X57746Y-58018
X57838Y-48044
X57856Y-47002
X57998Y-52994
X57998Y-53294
X57998Y-53628
X58002Y-52650
X58008Y-57508
X58158Y-43122
X58276Y-57062
X58280Y-58006
X58548Y-56532
X58554Y-55098
X58566Y-57502
X58622Y-48678
X58630Y-49798
X58630Y-50844
X58634Y-47552
X58652Y-43894
X58676Y-45382
X58684Y-46438
X58732Y-56926
X58822Y-54618
X58822Y-58006
X58832Y-51780
X58848Y-53328
X58858Y-52524
X59036Y-43126
X59402Y-50292
X59406Y-53596
X59410Y-49222
X59416Y-51320
X59416Y-52824
X59466Y-57276
X59468Y-46944
X59490Y-45896
X59510Y-56648
X59594Y-58074
X59904Y-43108
X59968Y-47408
T3
X52734Y-54318
X52836Y-55070
X52960Y-54610
X53170Y-55454
X53238Y-53804
X53460Y-57056
X54930Y-55422
X54942Y-53788
X55516Y-53080
X57048Y-55502
X57686Y-46070
T4
X54136Y-44626
T5
X53136Y-43626
X53136Y-45626
X55136Y-43626
X55136Y-45626
T0
M30
