%TF.GenerationSoftware,KiCad,Pcbnew,5.1.6*%
%TF.CreationDate,2020-07-27T19:16:26+00:00*%
%TF.ProjectId,SoundCard,536f756e-6443-4617-9264-2e6b69636164,rev?*%
%TF.SameCoordinates,Original*%
%TF.FileFunction,Soldermask,Top*%
%TF.FilePolarity,Negative*%
%FSLAX46Y46*%
G04 Gerber Fmt 4.6, Leading zero omitted, Abs format (unit mm)*
G04 Created by KiCad (PCBNEW 5.1.6) date 2020-07-27 19:16:26*
%MOMM*%
%LPD*%
G01*
G04 APERTURE LIST*
%ADD10R,1.000000X0.900000*%
%ADD11C,2.150000*%
%ADD12C,2.350000*%
%ADD13R,2.800000X2.800000*%
%ADD14R,0.800000X4.400000*%
%ADD15R,0.800000X3.300000*%
%ADD16R,1.100000X1.600000*%
%ADD17R,1.550000X0.550000*%
%ADD18R,0.900000X1.000000*%
%ADD19R,1.600000X1.100000*%
G04 APERTURE END LIST*
D10*
%TO.C,D1*%
X139785600Y-119024400D03*
X137785600Y-119974400D03*
X137785600Y-118074400D03*
%TD*%
D11*
%TO.C,J1*%
X137109200Y-97993200D03*
D12*
X139649200Y-100533200D03*
X139649200Y-95453200D03*
X134569200Y-95453200D03*
X134569200Y-100533200D03*
%TD*%
%TO.C,R4*%
G36*
G01*
X147919000Y-123564000D02*
X147919000Y-123959000D01*
G75*
G02*
X147746500Y-124131500I-172500J0D01*
G01*
X147401500Y-124131500D01*
G75*
G02*
X147229000Y-123959000I0J172500D01*
G01*
X147229000Y-123564000D01*
G75*
G02*
X147401500Y-123391500I172500J0D01*
G01*
X147746500Y-123391500D01*
G75*
G02*
X147919000Y-123564000I0J-172500D01*
G01*
G37*
G36*
G01*
X148889000Y-123564000D02*
X148889000Y-123959000D01*
G75*
G02*
X148716500Y-124131500I-172500J0D01*
G01*
X148371500Y-124131500D01*
G75*
G02*
X148199000Y-123959000I0J172500D01*
G01*
X148199000Y-123564000D01*
G75*
G02*
X148371500Y-123391500I172500J0D01*
G01*
X148716500Y-123391500D01*
G75*
G02*
X148889000Y-123564000I0J-172500D01*
G01*
G37*
%TD*%
%TO.C,C16*%
G36*
G01*
X147919000Y-124694300D02*
X147919000Y-125089300D01*
G75*
G02*
X147746500Y-125261800I-172500J0D01*
G01*
X147401500Y-125261800D01*
G75*
G02*
X147229000Y-125089300I0J172500D01*
G01*
X147229000Y-124694300D01*
G75*
G02*
X147401500Y-124521800I172500J0D01*
G01*
X147746500Y-124521800D01*
G75*
G02*
X147919000Y-124694300I0J-172500D01*
G01*
G37*
G36*
G01*
X148889000Y-124694300D02*
X148889000Y-125089300D01*
G75*
G02*
X148716500Y-125261800I-172500J0D01*
G01*
X148371500Y-125261800D01*
G75*
G02*
X148199000Y-125089300I0J172500D01*
G01*
X148199000Y-124694300D01*
G75*
G02*
X148371500Y-124521800I172500J0D01*
G01*
X148716500Y-124521800D01*
G75*
G02*
X148889000Y-124694300I0J-172500D01*
G01*
G37*
%TD*%
%TO.C,U4*%
G36*
G01*
X142579260Y-137533660D02*
X142579260Y-137708660D01*
G75*
G02*
X142491760Y-137796160I-87500J0D01*
G01*
X141741760Y-137796160D01*
G75*
G02*
X141654260Y-137708660I0J87500D01*
G01*
X141654260Y-137533660D01*
G75*
G02*
X141741760Y-137446160I87500J0D01*
G01*
X142491760Y-137446160D01*
G75*
G02*
X142579260Y-137533660I0J-87500D01*
G01*
G37*
G36*
G01*
X142579260Y-137033660D02*
X142579260Y-137208660D01*
G75*
G02*
X142491760Y-137296160I-87500J0D01*
G01*
X141741760Y-137296160D01*
G75*
G02*
X141654260Y-137208660I0J87500D01*
G01*
X141654260Y-137033660D01*
G75*
G02*
X141741760Y-136946160I87500J0D01*
G01*
X142491760Y-136946160D01*
G75*
G02*
X142579260Y-137033660I0J-87500D01*
G01*
G37*
G36*
G01*
X142579260Y-136533660D02*
X142579260Y-136708660D01*
G75*
G02*
X142491760Y-136796160I-87500J0D01*
G01*
X141741760Y-136796160D01*
G75*
G02*
X141654260Y-136708660I0J87500D01*
G01*
X141654260Y-136533660D01*
G75*
G02*
X141741760Y-136446160I87500J0D01*
G01*
X142491760Y-136446160D01*
G75*
G02*
X142579260Y-136533660I0J-87500D01*
G01*
G37*
G36*
G01*
X142579260Y-136033660D02*
X142579260Y-136208660D01*
G75*
G02*
X142491760Y-136296160I-87500J0D01*
G01*
X141741760Y-136296160D01*
G75*
G02*
X141654260Y-136208660I0J87500D01*
G01*
X141654260Y-136033660D01*
G75*
G02*
X141741760Y-135946160I87500J0D01*
G01*
X142491760Y-135946160D01*
G75*
G02*
X142579260Y-136033660I0J-87500D01*
G01*
G37*
G36*
G01*
X142579260Y-135533660D02*
X142579260Y-135708660D01*
G75*
G02*
X142491760Y-135796160I-87500J0D01*
G01*
X141741760Y-135796160D01*
G75*
G02*
X141654260Y-135708660I0J87500D01*
G01*
X141654260Y-135533660D01*
G75*
G02*
X141741760Y-135446160I87500J0D01*
G01*
X142491760Y-135446160D01*
G75*
G02*
X142579260Y-135533660I0J-87500D01*
G01*
G37*
G36*
G01*
X142579260Y-135033660D02*
X142579260Y-135208660D01*
G75*
G02*
X142491760Y-135296160I-87500J0D01*
G01*
X141741760Y-135296160D01*
G75*
G02*
X141654260Y-135208660I0J87500D01*
G01*
X141654260Y-135033660D01*
G75*
G02*
X141741760Y-134946160I87500J0D01*
G01*
X142491760Y-134946160D01*
G75*
G02*
X142579260Y-135033660I0J-87500D01*
G01*
G37*
G36*
G01*
X141579260Y-134033660D02*
X141579260Y-134783660D01*
G75*
G02*
X141491760Y-134871160I-87500J0D01*
G01*
X141316760Y-134871160D01*
G75*
G02*
X141229260Y-134783660I0J87500D01*
G01*
X141229260Y-134033660D01*
G75*
G02*
X141316760Y-133946160I87500J0D01*
G01*
X141491760Y-133946160D01*
G75*
G02*
X141579260Y-134033660I0J-87500D01*
G01*
G37*
G36*
G01*
X141079260Y-134033660D02*
X141079260Y-134783660D01*
G75*
G02*
X140991760Y-134871160I-87500J0D01*
G01*
X140816760Y-134871160D01*
G75*
G02*
X140729260Y-134783660I0J87500D01*
G01*
X140729260Y-134033660D01*
G75*
G02*
X140816760Y-133946160I87500J0D01*
G01*
X140991760Y-133946160D01*
G75*
G02*
X141079260Y-134033660I0J-87500D01*
G01*
G37*
G36*
G01*
X140579260Y-134033660D02*
X140579260Y-134783660D01*
G75*
G02*
X140491760Y-134871160I-87500J0D01*
G01*
X140316760Y-134871160D01*
G75*
G02*
X140229260Y-134783660I0J87500D01*
G01*
X140229260Y-134033660D01*
G75*
G02*
X140316760Y-133946160I87500J0D01*
G01*
X140491760Y-133946160D01*
G75*
G02*
X140579260Y-134033660I0J-87500D01*
G01*
G37*
G36*
G01*
X140079260Y-134033660D02*
X140079260Y-134783660D01*
G75*
G02*
X139991760Y-134871160I-87500J0D01*
G01*
X139816760Y-134871160D01*
G75*
G02*
X139729260Y-134783660I0J87500D01*
G01*
X139729260Y-134033660D01*
G75*
G02*
X139816760Y-133946160I87500J0D01*
G01*
X139991760Y-133946160D01*
G75*
G02*
X140079260Y-134033660I0J-87500D01*
G01*
G37*
G36*
G01*
X139579260Y-134033660D02*
X139579260Y-134783660D01*
G75*
G02*
X139491760Y-134871160I-87500J0D01*
G01*
X139316760Y-134871160D01*
G75*
G02*
X139229260Y-134783660I0J87500D01*
G01*
X139229260Y-134033660D01*
G75*
G02*
X139316760Y-133946160I87500J0D01*
G01*
X139491760Y-133946160D01*
G75*
G02*
X139579260Y-134033660I0J-87500D01*
G01*
G37*
G36*
G01*
X139079260Y-134033660D02*
X139079260Y-134783660D01*
G75*
G02*
X138991760Y-134871160I-87500J0D01*
G01*
X138816760Y-134871160D01*
G75*
G02*
X138729260Y-134783660I0J87500D01*
G01*
X138729260Y-134033660D01*
G75*
G02*
X138816760Y-133946160I87500J0D01*
G01*
X138991760Y-133946160D01*
G75*
G02*
X139079260Y-134033660I0J-87500D01*
G01*
G37*
G36*
G01*
X138654260Y-135033660D02*
X138654260Y-135208660D01*
G75*
G02*
X138566760Y-135296160I-87500J0D01*
G01*
X137816760Y-135296160D01*
G75*
G02*
X137729260Y-135208660I0J87500D01*
G01*
X137729260Y-135033660D01*
G75*
G02*
X137816760Y-134946160I87500J0D01*
G01*
X138566760Y-134946160D01*
G75*
G02*
X138654260Y-135033660I0J-87500D01*
G01*
G37*
G36*
G01*
X138654260Y-135533660D02*
X138654260Y-135708660D01*
G75*
G02*
X138566760Y-135796160I-87500J0D01*
G01*
X137816760Y-135796160D01*
G75*
G02*
X137729260Y-135708660I0J87500D01*
G01*
X137729260Y-135533660D01*
G75*
G02*
X137816760Y-135446160I87500J0D01*
G01*
X138566760Y-135446160D01*
G75*
G02*
X138654260Y-135533660I0J-87500D01*
G01*
G37*
G36*
G01*
X138654260Y-136033660D02*
X138654260Y-136208660D01*
G75*
G02*
X138566760Y-136296160I-87500J0D01*
G01*
X137816760Y-136296160D01*
G75*
G02*
X137729260Y-136208660I0J87500D01*
G01*
X137729260Y-136033660D01*
G75*
G02*
X137816760Y-135946160I87500J0D01*
G01*
X138566760Y-135946160D01*
G75*
G02*
X138654260Y-136033660I0J-87500D01*
G01*
G37*
G36*
G01*
X138654260Y-136533660D02*
X138654260Y-136708660D01*
G75*
G02*
X138566760Y-136796160I-87500J0D01*
G01*
X137816760Y-136796160D01*
G75*
G02*
X137729260Y-136708660I0J87500D01*
G01*
X137729260Y-136533660D01*
G75*
G02*
X137816760Y-136446160I87500J0D01*
G01*
X138566760Y-136446160D01*
G75*
G02*
X138654260Y-136533660I0J-87500D01*
G01*
G37*
G36*
G01*
X138654260Y-137033660D02*
X138654260Y-137208660D01*
G75*
G02*
X138566760Y-137296160I-87500J0D01*
G01*
X137816760Y-137296160D01*
G75*
G02*
X137729260Y-137208660I0J87500D01*
G01*
X137729260Y-137033660D01*
G75*
G02*
X137816760Y-136946160I87500J0D01*
G01*
X138566760Y-136946160D01*
G75*
G02*
X138654260Y-137033660I0J-87500D01*
G01*
G37*
G36*
G01*
X138654260Y-137533660D02*
X138654260Y-137708660D01*
G75*
G02*
X138566760Y-137796160I-87500J0D01*
G01*
X137816760Y-137796160D01*
G75*
G02*
X137729260Y-137708660I0J87500D01*
G01*
X137729260Y-137533660D01*
G75*
G02*
X137816760Y-137446160I87500J0D01*
G01*
X138566760Y-137446160D01*
G75*
G02*
X138654260Y-137533660I0J-87500D01*
G01*
G37*
G36*
G01*
X139079260Y-137958660D02*
X139079260Y-138708660D01*
G75*
G02*
X138991760Y-138796160I-87500J0D01*
G01*
X138816760Y-138796160D01*
G75*
G02*
X138729260Y-138708660I0J87500D01*
G01*
X138729260Y-137958660D01*
G75*
G02*
X138816760Y-137871160I87500J0D01*
G01*
X138991760Y-137871160D01*
G75*
G02*
X139079260Y-137958660I0J-87500D01*
G01*
G37*
G36*
G01*
X139579260Y-137958660D02*
X139579260Y-138708660D01*
G75*
G02*
X139491760Y-138796160I-87500J0D01*
G01*
X139316760Y-138796160D01*
G75*
G02*
X139229260Y-138708660I0J87500D01*
G01*
X139229260Y-137958660D01*
G75*
G02*
X139316760Y-137871160I87500J0D01*
G01*
X139491760Y-137871160D01*
G75*
G02*
X139579260Y-137958660I0J-87500D01*
G01*
G37*
G36*
G01*
X140079260Y-137958660D02*
X140079260Y-138708660D01*
G75*
G02*
X139991760Y-138796160I-87500J0D01*
G01*
X139816760Y-138796160D01*
G75*
G02*
X139729260Y-138708660I0J87500D01*
G01*
X139729260Y-137958660D01*
G75*
G02*
X139816760Y-137871160I87500J0D01*
G01*
X139991760Y-137871160D01*
G75*
G02*
X140079260Y-137958660I0J-87500D01*
G01*
G37*
G36*
G01*
X140579260Y-137958660D02*
X140579260Y-138708660D01*
G75*
G02*
X140491760Y-138796160I-87500J0D01*
G01*
X140316760Y-138796160D01*
G75*
G02*
X140229260Y-138708660I0J87500D01*
G01*
X140229260Y-137958660D01*
G75*
G02*
X140316760Y-137871160I87500J0D01*
G01*
X140491760Y-137871160D01*
G75*
G02*
X140579260Y-137958660I0J-87500D01*
G01*
G37*
G36*
G01*
X141079260Y-137958660D02*
X141079260Y-138708660D01*
G75*
G02*
X140991760Y-138796160I-87500J0D01*
G01*
X140816760Y-138796160D01*
G75*
G02*
X140729260Y-138708660I0J87500D01*
G01*
X140729260Y-137958660D01*
G75*
G02*
X140816760Y-137871160I87500J0D01*
G01*
X140991760Y-137871160D01*
G75*
G02*
X141079260Y-137958660I0J-87500D01*
G01*
G37*
G36*
G01*
X141579260Y-137958660D02*
X141579260Y-138708660D01*
G75*
G02*
X141491760Y-138796160I-87500J0D01*
G01*
X141316760Y-138796160D01*
G75*
G02*
X141229260Y-138708660I0J87500D01*
G01*
X141229260Y-137958660D01*
G75*
G02*
X141316760Y-137871160I87500J0D01*
G01*
X141491760Y-137871160D01*
G75*
G02*
X141579260Y-137958660I0J-87500D01*
G01*
G37*
D13*
X140154260Y-136371160D03*
%TD*%
D14*
%TO.C,P1*%
X133451600Y-150368000D03*
X134451600Y-150368000D03*
X135451600Y-150368000D03*
X136451600Y-150368000D03*
X137451600Y-150368000D03*
X138451600Y-150368000D03*
X139451600Y-150368000D03*
X140451600Y-150368000D03*
X141451600Y-150368000D03*
X142451600Y-150368000D03*
X143451600Y-150368000D03*
X148451600Y-150368000D03*
X149451600Y-150368000D03*
X150451600Y-150368000D03*
D15*
X151451600Y-149818000D03*
D14*
X152451600Y-150368000D03*
X146451600Y-150368000D03*
X147451600Y-150368000D03*
%TD*%
%TO.C,C1*%
G36*
G01*
X138420000Y-139846700D02*
X138420000Y-139451700D01*
G75*
G02*
X138592500Y-139279200I172500J0D01*
G01*
X138937500Y-139279200D01*
G75*
G02*
X139110000Y-139451700I0J-172500D01*
G01*
X139110000Y-139846700D01*
G75*
G02*
X138937500Y-140019200I-172500J0D01*
G01*
X138592500Y-140019200D01*
G75*
G02*
X138420000Y-139846700I0J172500D01*
G01*
G37*
G36*
G01*
X137450000Y-139846700D02*
X137450000Y-139451700D01*
G75*
G02*
X137622500Y-139279200I172500J0D01*
G01*
X137967500Y-139279200D01*
G75*
G02*
X138140000Y-139451700I0J-172500D01*
G01*
X138140000Y-139846700D01*
G75*
G02*
X137967500Y-140019200I-172500J0D01*
G01*
X137622500Y-140019200D01*
G75*
G02*
X137450000Y-139846700I0J172500D01*
G01*
G37*
%TD*%
%TO.C,C2*%
G36*
G01*
X141950000Y-139451700D02*
X141950000Y-139846700D01*
G75*
G02*
X141777500Y-140019200I-172500J0D01*
G01*
X141432500Y-140019200D01*
G75*
G02*
X141260000Y-139846700I0J172500D01*
G01*
X141260000Y-139451700D01*
G75*
G02*
X141432500Y-139279200I172500J0D01*
G01*
X141777500Y-139279200D01*
G75*
G02*
X141950000Y-139451700I0J-172500D01*
G01*
G37*
G36*
G01*
X142920000Y-139451700D02*
X142920000Y-139846700D01*
G75*
G02*
X142747500Y-140019200I-172500J0D01*
G01*
X142402500Y-140019200D01*
G75*
G02*
X142230000Y-139846700I0J172500D01*
G01*
X142230000Y-139451700D01*
G75*
G02*
X142402500Y-139279200I172500J0D01*
G01*
X142747500Y-139279200D01*
G75*
G02*
X142920000Y-139451700I0J-172500D01*
G01*
G37*
%TD*%
%TO.C,C3*%
G36*
G01*
X137295700Y-140717350D02*
X137295700Y-141679850D01*
G75*
G02*
X137026950Y-141948600I-268750J0D01*
G01*
X136489450Y-141948600D01*
G75*
G02*
X136220700Y-141679850I0J268750D01*
G01*
X136220700Y-140717350D01*
G75*
G02*
X136489450Y-140448600I268750J0D01*
G01*
X137026950Y-140448600D01*
G75*
G02*
X137295700Y-140717350I0J-268750D01*
G01*
G37*
G36*
G01*
X139170700Y-140717350D02*
X139170700Y-141679850D01*
G75*
G02*
X138901950Y-141948600I-268750J0D01*
G01*
X138364450Y-141948600D01*
G75*
G02*
X138095700Y-141679850I0J268750D01*
G01*
X138095700Y-140717350D01*
G75*
G02*
X138364450Y-140448600I268750J0D01*
G01*
X138901950Y-140448600D01*
G75*
G02*
X139170700Y-140717350I0J-268750D01*
G01*
G37*
%TD*%
%TO.C,C4*%
G36*
G01*
X143094900Y-141679850D02*
X143094900Y-140717350D01*
G75*
G02*
X143363650Y-140448600I268750J0D01*
G01*
X143901150Y-140448600D01*
G75*
G02*
X144169900Y-140717350I0J-268750D01*
G01*
X144169900Y-141679850D01*
G75*
G02*
X143901150Y-141948600I-268750J0D01*
G01*
X143363650Y-141948600D01*
G75*
G02*
X143094900Y-141679850I0J268750D01*
G01*
G37*
G36*
G01*
X141219900Y-141679850D02*
X141219900Y-140717350D01*
G75*
G02*
X141488650Y-140448600I268750J0D01*
G01*
X142026150Y-140448600D01*
G75*
G02*
X142294900Y-140717350I0J-268750D01*
G01*
X142294900Y-141679850D01*
G75*
G02*
X142026150Y-141948600I-268750J0D01*
G01*
X141488650Y-141948600D01*
G75*
G02*
X141219900Y-141679850I0J268750D01*
G01*
G37*
%TD*%
%TO.C,C5*%
G36*
G01*
X143961500Y-138186000D02*
X143566500Y-138186000D01*
G75*
G02*
X143394000Y-138013500I0J172500D01*
G01*
X143394000Y-137668500D01*
G75*
G02*
X143566500Y-137496000I172500J0D01*
G01*
X143961500Y-137496000D01*
G75*
G02*
X144134000Y-137668500I0J-172500D01*
G01*
X144134000Y-138013500D01*
G75*
G02*
X143961500Y-138186000I-172500J0D01*
G01*
G37*
G36*
G01*
X143961500Y-139156000D02*
X143566500Y-139156000D01*
G75*
G02*
X143394000Y-138983500I0J172500D01*
G01*
X143394000Y-138638500D01*
G75*
G02*
X143566500Y-138466000I172500J0D01*
G01*
X143961500Y-138466000D01*
G75*
G02*
X144134000Y-138638500I0J-172500D01*
G01*
X144134000Y-138983500D01*
G75*
G02*
X143961500Y-139156000I-172500J0D01*
G01*
G37*
%TD*%
%TO.C,C6*%
G36*
G01*
X136962500Y-105522200D02*
X137357500Y-105522200D01*
G75*
G02*
X137530000Y-105694700I0J-172500D01*
G01*
X137530000Y-106039700D01*
G75*
G02*
X137357500Y-106212200I-172500J0D01*
G01*
X136962500Y-106212200D01*
G75*
G02*
X136790000Y-106039700I0J172500D01*
G01*
X136790000Y-105694700D01*
G75*
G02*
X136962500Y-105522200I172500J0D01*
G01*
G37*
G36*
G01*
X136962500Y-104552200D02*
X137357500Y-104552200D01*
G75*
G02*
X137530000Y-104724700I0J-172500D01*
G01*
X137530000Y-105069700D01*
G75*
G02*
X137357500Y-105242200I-172500J0D01*
G01*
X136962500Y-105242200D01*
G75*
G02*
X136790000Y-105069700I0J172500D01*
G01*
X136790000Y-104724700D01*
G75*
G02*
X136962500Y-104552200I172500J0D01*
G01*
G37*
%TD*%
%TO.C,C7*%
G36*
G01*
X145014300Y-136180000D02*
X145409300Y-136180000D01*
G75*
G02*
X145581800Y-136352500I0J-172500D01*
G01*
X145581800Y-136697500D01*
G75*
G02*
X145409300Y-136870000I-172500J0D01*
G01*
X145014300Y-136870000D01*
G75*
G02*
X144841800Y-136697500I0J172500D01*
G01*
X144841800Y-136352500D01*
G75*
G02*
X145014300Y-136180000I172500J0D01*
G01*
G37*
G36*
G01*
X145014300Y-135210000D02*
X145409300Y-135210000D01*
G75*
G02*
X145581800Y-135382500I0J-172500D01*
G01*
X145581800Y-135727500D01*
G75*
G02*
X145409300Y-135900000I-172500J0D01*
G01*
X145014300Y-135900000D01*
G75*
G02*
X144841800Y-135727500I0J172500D01*
G01*
X144841800Y-135382500D01*
G75*
G02*
X145014300Y-135210000I172500J0D01*
G01*
G37*
%TD*%
%TO.C,C8*%
G36*
G01*
X145213150Y-139361100D02*
X146175650Y-139361100D01*
G75*
G02*
X146444400Y-139629850I0J-268750D01*
G01*
X146444400Y-140167350D01*
G75*
G02*
X146175650Y-140436100I-268750J0D01*
G01*
X145213150Y-140436100D01*
G75*
G02*
X144944400Y-140167350I0J268750D01*
G01*
X144944400Y-139629850D01*
G75*
G02*
X145213150Y-139361100I268750J0D01*
G01*
G37*
G36*
G01*
X145213150Y-137486100D02*
X146175650Y-137486100D01*
G75*
G02*
X146444400Y-137754850I0J-268750D01*
G01*
X146444400Y-138292350D01*
G75*
G02*
X146175650Y-138561100I-268750J0D01*
G01*
X145213150Y-138561100D01*
G75*
G02*
X144944400Y-138292350I0J268750D01*
G01*
X144944400Y-137754850D01*
G75*
G02*
X145213150Y-137486100I268750J0D01*
G01*
G37*
%TD*%
%TO.C,C9*%
G36*
G01*
X135392000Y-107752500D02*
X135392000Y-108147500D01*
G75*
G02*
X135219500Y-108320000I-172500J0D01*
G01*
X134874500Y-108320000D01*
G75*
G02*
X134702000Y-108147500I0J172500D01*
G01*
X134702000Y-107752500D01*
G75*
G02*
X134874500Y-107580000I172500J0D01*
G01*
X135219500Y-107580000D01*
G75*
G02*
X135392000Y-107752500I0J-172500D01*
G01*
G37*
G36*
G01*
X136362000Y-107752500D02*
X136362000Y-108147500D01*
G75*
G02*
X136189500Y-108320000I-172500J0D01*
G01*
X135844500Y-108320000D01*
G75*
G02*
X135672000Y-108147500I0J172500D01*
G01*
X135672000Y-107752500D01*
G75*
G02*
X135844500Y-107580000I172500J0D01*
G01*
X136189500Y-107580000D01*
G75*
G02*
X136362000Y-107752500I0J-172500D01*
G01*
G37*
%TD*%
%TO.C,C10*%
G36*
G01*
X147318650Y-135035100D02*
X146356150Y-135035100D01*
G75*
G02*
X146087400Y-134766350I0J268750D01*
G01*
X146087400Y-134228850D01*
G75*
G02*
X146356150Y-133960100I268750J0D01*
G01*
X147318650Y-133960100D01*
G75*
G02*
X147587400Y-134228850I0J-268750D01*
G01*
X147587400Y-134766350D01*
G75*
G02*
X147318650Y-135035100I-268750J0D01*
G01*
G37*
G36*
G01*
X147318650Y-136910100D02*
X146356150Y-136910100D01*
G75*
G02*
X146087400Y-136641350I0J268750D01*
G01*
X146087400Y-136103850D01*
G75*
G02*
X146356150Y-135835100I268750J0D01*
G01*
X147318650Y-135835100D01*
G75*
G02*
X147587400Y-136103850I0J-268750D01*
G01*
X147587400Y-136641350D01*
G75*
G02*
X147318650Y-136910100I-268750J0D01*
G01*
G37*
%TD*%
%TO.C,C13*%
G36*
G01*
X143566500Y-136083200D02*
X143961500Y-136083200D01*
G75*
G02*
X144134000Y-136255700I0J-172500D01*
G01*
X144134000Y-136600700D01*
G75*
G02*
X143961500Y-136773200I-172500J0D01*
G01*
X143566500Y-136773200D01*
G75*
G02*
X143394000Y-136600700I0J172500D01*
G01*
X143394000Y-136255700D01*
G75*
G02*
X143566500Y-136083200I172500J0D01*
G01*
G37*
G36*
G01*
X143566500Y-135113200D02*
X143961500Y-135113200D01*
G75*
G02*
X144134000Y-135285700I0J-172500D01*
G01*
X144134000Y-135630700D01*
G75*
G02*
X143961500Y-135803200I-172500J0D01*
G01*
X143566500Y-135803200D01*
G75*
G02*
X143394000Y-135630700I0J172500D01*
G01*
X143394000Y-135285700D01*
G75*
G02*
X143566500Y-135113200I172500J0D01*
G01*
G37*
%TD*%
%TO.C,C19*%
G36*
G01*
X142227600Y-133242700D02*
X142227600Y-132847700D01*
G75*
G02*
X142400100Y-132675200I172500J0D01*
G01*
X142745100Y-132675200D01*
G75*
G02*
X142917600Y-132847700I0J-172500D01*
G01*
X142917600Y-133242700D01*
G75*
G02*
X142745100Y-133415200I-172500J0D01*
G01*
X142400100Y-133415200D01*
G75*
G02*
X142227600Y-133242700I0J172500D01*
G01*
G37*
G36*
G01*
X141257600Y-133242700D02*
X141257600Y-132847700D01*
G75*
G02*
X141430100Y-132675200I172500J0D01*
G01*
X141775100Y-132675200D01*
G75*
G02*
X141947600Y-132847700I0J-172500D01*
G01*
X141947600Y-133242700D01*
G75*
G02*
X141775100Y-133415200I-172500J0D01*
G01*
X141430100Y-133415200D01*
G75*
G02*
X141257600Y-133242700I0J172500D01*
G01*
G37*
%TD*%
%TO.C,R1*%
G36*
G01*
X150877350Y-98141500D02*
X151839850Y-98141500D01*
G75*
G02*
X152108600Y-98410250I0J-268750D01*
G01*
X152108600Y-98947750D01*
G75*
G02*
X151839850Y-99216500I-268750J0D01*
G01*
X150877350Y-99216500D01*
G75*
G02*
X150608600Y-98947750I0J268750D01*
G01*
X150608600Y-98410250D01*
G75*
G02*
X150877350Y-98141500I268750J0D01*
G01*
G37*
G36*
G01*
X150877350Y-96266500D02*
X151839850Y-96266500D01*
G75*
G02*
X152108600Y-96535250I0J-268750D01*
G01*
X152108600Y-97072750D01*
G75*
G02*
X151839850Y-97341500I-268750J0D01*
G01*
X150877350Y-97341500D01*
G75*
G02*
X150608600Y-97072750I0J268750D01*
G01*
X150608600Y-96535250D01*
G75*
G02*
X150877350Y-96266500I268750J0D01*
G01*
G37*
%TD*%
%TO.C,R2*%
G36*
G01*
X137357500Y-107325000D02*
X136962500Y-107325000D01*
G75*
G02*
X136790000Y-107152500I0J172500D01*
G01*
X136790000Y-106807500D01*
G75*
G02*
X136962500Y-106635000I172500J0D01*
G01*
X137357500Y-106635000D01*
G75*
G02*
X137530000Y-106807500I0J-172500D01*
G01*
X137530000Y-107152500D01*
G75*
G02*
X137357500Y-107325000I-172500J0D01*
G01*
G37*
G36*
G01*
X137357500Y-108295000D02*
X136962500Y-108295000D01*
G75*
G02*
X136790000Y-108122500I0J172500D01*
G01*
X136790000Y-107777500D01*
G75*
G02*
X136962500Y-107605000I172500J0D01*
G01*
X137357500Y-107605000D01*
G75*
G02*
X137530000Y-107777500I0J-172500D01*
G01*
X137530000Y-108122500D01*
G75*
G02*
X137357500Y-108295000I-172500J0D01*
G01*
G37*
%TD*%
%TO.C,U1*%
G36*
G01*
X142670660Y-96327160D02*
X142670660Y-95977160D01*
G75*
G02*
X142845660Y-95802160I175000J0D01*
G01*
X144545660Y-95802160D01*
G75*
G02*
X144720660Y-95977160I0J-175000D01*
G01*
X144720660Y-96327160D01*
G75*
G02*
X144545660Y-96502160I-175000J0D01*
G01*
X142845660Y-96502160D01*
G75*
G02*
X142670660Y-96327160I0J175000D01*
G01*
G37*
G36*
G01*
X142670660Y-97597160D02*
X142670660Y-97247160D01*
G75*
G02*
X142845660Y-97072160I175000J0D01*
G01*
X144545660Y-97072160D01*
G75*
G02*
X144720660Y-97247160I0J-175000D01*
G01*
X144720660Y-97597160D01*
G75*
G02*
X144545660Y-97772160I-175000J0D01*
G01*
X142845660Y-97772160D01*
G75*
G02*
X142670660Y-97597160I0J175000D01*
G01*
G37*
G36*
G01*
X142670660Y-98867160D02*
X142670660Y-98517160D01*
G75*
G02*
X142845660Y-98342160I175000J0D01*
G01*
X144545660Y-98342160D01*
G75*
G02*
X144720660Y-98517160I0J-175000D01*
G01*
X144720660Y-98867160D01*
G75*
G02*
X144545660Y-99042160I-175000J0D01*
G01*
X142845660Y-99042160D01*
G75*
G02*
X142670660Y-98867160I0J175000D01*
G01*
G37*
G36*
G01*
X142670660Y-100137160D02*
X142670660Y-99787160D01*
G75*
G02*
X142845660Y-99612160I175000J0D01*
G01*
X144545660Y-99612160D01*
G75*
G02*
X144720660Y-99787160I0J-175000D01*
G01*
X144720660Y-100137160D01*
G75*
G02*
X144545660Y-100312160I-175000J0D01*
G01*
X142845660Y-100312160D01*
G75*
G02*
X142670660Y-100137160I0J175000D01*
G01*
G37*
G36*
G01*
X147620660Y-100137160D02*
X147620660Y-99787160D01*
G75*
G02*
X147795660Y-99612160I175000J0D01*
G01*
X149495660Y-99612160D01*
G75*
G02*
X149670660Y-99787160I0J-175000D01*
G01*
X149670660Y-100137160D01*
G75*
G02*
X149495660Y-100312160I-175000J0D01*
G01*
X147795660Y-100312160D01*
G75*
G02*
X147620660Y-100137160I0J175000D01*
G01*
G37*
G36*
G01*
X147620660Y-98867160D02*
X147620660Y-98517160D01*
G75*
G02*
X147795660Y-98342160I175000J0D01*
G01*
X149495660Y-98342160D01*
G75*
G02*
X149670660Y-98517160I0J-175000D01*
G01*
X149670660Y-98867160D01*
G75*
G02*
X149495660Y-99042160I-175000J0D01*
G01*
X147795660Y-99042160D01*
G75*
G02*
X147620660Y-98867160I0J175000D01*
G01*
G37*
G36*
G01*
X147620660Y-97597160D02*
X147620660Y-97247160D01*
G75*
G02*
X147795660Y-97072160I175000J0D01*
G01*
X149495660Y-97072160D01*
G75*
G02*
X149670660Y-97247160I0J-175000D01*
G01*
X149670660Y-97597160D01*
G75*
G02*
X149495660Y-97772160I-175000J0D01*
G01*
X147795660Y-97772160D01*
G75*
G02*
X147620660Y-97597160I0J175000D01*
G01*
G37*
G36*
G01*
X147620660Y-96327160D02*
X147620660Y-95977160D01*
G75*
G02*
X147795660Y-95802160I175000J0D01*
G01*
X149495660Y-95802160D01*
G75*
G02*
X149670660Y-95977160I0J-175000D01*
G01*
X149670660Y-96327160D01*
G75*
G02*
X149495660Y-96502160I-175000J0D01*
G01*
X147795660Y-96502160D01*
G75*
G02*
X147620660Y-96327160I0J175000D01*
G01*
G37*
%TD*%
%TO.C,U2*%
G36*
G01*
X149039000Y-104238800D02*
X149039000Y-103888800D01*
G75*
G02*
X149214000Y-103713800I175000J0D01*
G01*
X151014000Y-103713800D01*
G75*
G02*
X151189000Y-103888800I0J-175000D01*
G01*
X151189000Y-104238800D01*
G75*
G02*
X151014000Y-104413800I-175000J0D01*
G01*
X149214000Y-104413800D01*
G75*
G02*
X149039000Y-104238800I0J175000D01*
G01*
G37*
G36*
G01*
X149039000Y-105508800D02*
X149039000Y-105158800D01*
G75*
G02*
X149214000Y-104983800I175000J0D01*
G01*
X151014000Y-104983800D01*
G75*
G02*
X151189000Y-105158800I0J-175000D01*
G01*
X151189000Y-105508800D01*
G75*
G02*
X151014000Y-105683800I-175000J0D01*
G01*
X149214000Y-105683800D01*
G75*
G02*
X149039000Y-105508800I0J175000D01*
G01*
G37*
G36*
G01*
X149039000Y-106778800D02*
X149039000Y-106428800D01*
G75*
G02*
X149214000Y-106253800I175000J0D01*
G01*
X151014000Y-106253800D01*
G75*
G02*
X151189000Y-106428800I0J-175000D01*
G01*
X151189000Y-106778800D01*
G75*
G02*
X151014000Y-106953800I-175000J0D01*
G01*
X149214000Y-106953800D01*
G75*
G02*
X149039000Y-106778800I0J175000D01*
G01*
G37*
G36*
G01*
X149039000Y-108048800D02*
X149039000Y-107698800D01*
G75*
G02*
X149214000Y-107523800I175000J0D01*
G01*
X151014000Y-107523800D01*
G75*
G02*
X151189000Y-107698800I0J-175000D01*
G01*
X151189000Y-108048800D01*
G75*
G02*
X151014000Y-108223800I-175000J0D01*
G01*
X149214000Y-108223800D01*
G75*
G02*
X149039000Y-108048800I0J175000D01*
G01*
G37*
G36*
G01*
X149039000Y-109318800D02*
X149039000Y-108968800D01*
G75*
G02*
X149214000Y-108793800I175000J0D01*
G01*
X151014000Y-108793800D01*
G75*
G02*
X151189000Y-108968800I0J-175000D01*
G01*
X151189000Y-109318800D01*
G75*
G02*
X151014000Y-109493800I-175000J0D01*
G01*
X149214000Y-109493800D01*
G75*
G02*
X149039000Y-109318800I0J175000D01*
G01*
G37*
G36*
G01*
X149039000Y-110588800D02*
X149039000Y-110238800D01*
G75*
G02*
X149214000Y-110063800I175000J0D01*
G01*
X151014000Y-110063800D01*
G75*
G02*
X151189000Y-110238800I0J-175000D01*
G01*
X151189000Y-110588800D01*
G75*
G02*
X151014000Y-110763800I-175000J0D01*
G01*
X149214000Y-110763800D01*
G75*
G02*
X149039000Y-110588800I0J175000D01*
G01*
G37*
G36*
G01*
X149039000Y-111858800D02*
X149039000Y-111508800D01*
G75*
G02*
X149214000Y-111333800I175000J0D01*
G01*
X151014000Y-111333800D01*
G75*
G02*
X151189000Y-111508800I0J-175000D01*
G01*
X151189000Y-111858800D01*
G75*
G02*
X151014000Y-112033800I-175000J0D01*
G01*
X149214000Y-112033800D01*
G75*
G02*
X149039000Y-111858800I0J175000D01*
G01*
G37*
G36*
G01*
X149039000Y-113128800D02*
X149039000Y-112778800D01*
G75*
G02*
X149214000Y-112603800I175000J0D01*
G01*
X151014000Y-112603800D01*
G75*
G02*
X151189000Y-112778800I0J-175000D01*
G01*
X151189000Y-113128800D01*
G75*
G02*
X151014000Y-113303800I-175000J0D01*
G01*
X149214000Y-113303800D01*
G75*
G02*
X149039000Y-113128800I0J175000D01*
G01*
G37*
G36*
G01*
X149039000Y-114398800D02*
X149039000Y-114048800D01*
G75*
G02*
X149214000Y-113873800I175000J0D01*
G01*
X151014000Y-113873800D01*
G75*
G02*
X151189000Y-114048800I0J-175000D01*
G01*
X151189000Y-114398800D01*
G75*
G02*
X151014000Y-114573800I-175000J0D01*
G01*
X149214000Y-114573800D01*
G75*
G02*
X149039000Y-114398800I0J175000D01*
G01*
G37*
G36*
G01*
X149039000Y-115668800D02*
X149039000Y-115318800D01*
G75*
G02*
X149214000Y-115143800I175000J0D01*
G01*
X151014000Y-115143800D01*
G75*
G02*
X151189000Y-115318800I0J-175000D01*
G01*
X151189000Y-115668800D01*
G75*
G02*
X151014000Y-115843800I-175000J0D01*
G01*
X149214000Y-115843800D01*
G75*
G02*
X149039000Y-115668800I0J175000D01*
G01*
G37*
G36*
G01*
X139739000Y-115668800D02*
X139739000Y-115318800D01*
G75*
G02*
X139914000Y-115143800I175000J0D01*
G01*
X141714000Y-115143800D01*
G75*
G02*
X141889000Y-115318800I0J-175000D01*
G01*
X141889000Y-115668800D01*
G75*
G02*
X141714000Y-115843800I-175000J0D01*
G01*
X139914000Y-115843800D01*
G75*
G02*
X139739000Y-115668800I0J175000D01*
G01*
G37*
G36*
G01*
X139739000Y-114398800D02*
X139739000Y-114048800D01*
G75*
G02*
X139914000Y-113873800I175000J0D01*
G01*
X141714000Y-113873800D01*
G75*
G02*
X141889000Y-114048800I0J-175000D01*
G01*
X141889000Y-114398800D01*
G75*
G02*
X141714000Y-114573800I-175000J0D01*
G01*
X139914000Y-114573800D01*
G75*
G02*
X139739000Y-114398800I0J175000D01*
G01*
G37*
G36*
G01*
X139739000Y-113128800D02*
X139739000Y-112778800D01*
G75*
G02*
X139914000Y-112603800I175000J0D01*
G01*
X141714000Y-112603800D01*
G75*
G02*
X141889000Y-112778800I0J-175000D01*
G01*
X141889000Y-113128800D01*
G75*
G02*
X141714000Y-113303800I-175000J0D01*
G01*
X139914000Y-113303800D01*
G75*
G02*
X139739000Y-113128800I0J175000D01*
G01*
G37*
G36*
G01*
X139739000Y-111858800D02*
X139739000Y-111508800D01*
G75*
G02*
X139914000Y-111333800I175000J0D01*
G01*
X141714000Y-111333800D01*
G75*
G02*
X141889000Y-111508800I0J-175000D01*
G01*
X141889000Y-111858800D01*
G75*
G02*
X141714000Y-112033800I-175000J0D01*
G01*
X139914000Y-112033800D01*
G75*
G02*
X139739000Y-111858800I0J175000D01*
G01*
G37*
G36*
G01*
X139739000Y-110588800D02*
X139739000Y-110238800D01*
G75*
G02*
X139914000Y-110063800I175000J0D01*
G01*
X141714000Y-110063800D01*
G75*
G02*
X141889000Y-110238800I0J-175000D01*
G01*
X141889000Y-110588800D01*
G75*
G02*
X141714000Y-110763800I-175000J0D01*
G01*
X139914000Y-110763800D01*
G75*
G02*
X139739000Y-110588800I0J175000D01*
G01*
G37*
G36*
G01*
X139739000Y-109318800D02*
X139739000Y-108968800D01*
G75*
G02*
X139914000Y-108793800I175000J0D01*
G01*
X141714000Y-108793800D01*
G75*
G02*
X141889000Y-108968800I0J-175000D01*
G01*
X141889000Y-109318800D01*
G75*
G02*
X141714000Y-109493800I-175000J0D01*
G01*
X139914000Y-109493800D01*
G75*
G02*
X139739000Y-109318800I0J175000D01*
G01*
G37*
G36*
G01*
X139739000Y-108048800D02*
X139739000Y-107698800D01*
G75*
G02*
X139914000Y-107523800I175000J0D01*
G01*
X141714000Y-107523800D01*
G75*
G02*
X141889000Y-107698800I0J-175000D01*
G01*
X141889000Y-108048800D01*
G75*
G02*
X141714000Y-108223800I-175000J0D01*
G01*
X139914000Y-108223800D01*
G75*
G02*
X139739000Y-108048800I0J175000D01*
G01*
G37*
G36*
G01*
X139739000Y-106778800D02*
X139739000Y-106428800D01*
G75*
G02*
X139914000Y-106253800I175000J0D01*
G01*
X141714000Y-106253800D01*
G75*
G02*
X141889000Y-106428800I0J-175000D01*
G01*
X141889000Y-106778800D01*
G75*
G02*
X141714000Y-106953800I-175000J0D01*
G01*
X139914000Y-106953800D01*
G75*
G02*
X139739000Y-106778800I0J175000D01*
G01*
G37*
G36*
G01*
X139739000Y-105508800D02*
X139739000Y-105158800D01*
G75*
G02*
X139914000Y-104983800I175000J0D01*
G01*
X141714000Y-104983800D01*
G75*
G02*
X141889000Y-105158800I0J-175000D01*
G01*
X141889000Y-105508800D01*
G75*
G02*
X141714000Y-105683800I-175000J0D01*
G01*
X139914000Y-105683800D01*
G75*
G02*
X139739000Y-105508800I0J175000D01*
G01*
G37*
G36*
G01*
X139739000Y-104238800D02*
X139739000Y-103888800D01*
G75*
G02*
X139914000Y-103713800I175000J0D01*
G01*
X141714000Y-103713800D01*
G75*
G02*
X141889000Y-103888800I0J-175000D01*
G01*
X141889000Y-104238800D01*
G75*
G02*
X141714000Y-104413800I-175000J0D01*
G01*
X139914000Y-104413800D01*
G75*
G02*
X139739000Y-104238800I0J175000D01*
G01*
G37*
%TD*%
D16*
%TO.C,J2*%
X144484400Y-128905000D03*
X143184400Y-128905000D03*
X141884400Y-128905000D03*
%TD*%
D17*
%TO.C,U3*%
X147452800Y-120330200D03*
X147452800Y-120980200D03*
X147452800Y-121630200D03*
X147452800Y-122280200D03*
X143052800Y-122280200D03*
X143052800Y-121630200D03*
X143052800Y-120980200D03*
X143052800Y-120330200D03*
%TD*%
%TO.C,R7*%
G36*
G01*
X138562700Y-122260800D02*
X138957700Y-122260800D01*
G75*
G02*
X139130200Y-122433300I0J-172500D01*
G01*
X139130200Y-122778300D01*
G75*
G02*
X138957700Y-122950800I-172500J0D01*
G01*
X138562700Y-122950800D01*
G75*
G02*
X138390200Y-122778300I0J172500D01*
G01*
X138390200Y-122433300D01*
G75*
G02*
X138562700Y-122260800I172500J0D01*
G01*
G37*
G36*
G01*
X138562700Y-121290800D02*
X138957700Y-121290800D01*
G75*
G02*
X139130200Y-121463300I0J-172500D01*
G01*
X139130200Y-121808300D01*
G75*
G02*
X138957700Y-121980800I-172500J0D01*
G01*
X138562700Y-121980800D01*
G75*
G02*
X138390200Y-121808300I0J172500D01*
G01*
X138390200Y-121463300D01*
G75*
G02*
X138562700Y-121290800I172500J0D01*
G01*
G37*
%TD*%
%TO.C,C24*%
G36*
G01*
X150532800Y-120808100D02*
X150532800Y-121203100D01*
G75*
G02*
X150360300Y-121375600I-172500J0D01*
G01*
X150015300Y-121375600D01*
G75*
G02*
X149842800Y-121203100I0J172500D01*
G01*
X149842800Y-120808100D01*
G75*
G02*
X150015300Y-120635600I172500J0D01*
G01*
X150360300Y-120635600D01*
G75*
G02*
X150532800Y-120808100I0J-172500D01*
G01*
G37*
G36*
G01*
X151502800Y-120808100D02*
X151502800Y-121203100D01*
G75*
G02*
X151330300Y-121375600I-172500J0D01*
G01*
X150985300Y-121375600D01*
G75*
G02*
X150812800Y-121203100I0J172500D01*
G01*
X150812800Y-120808100D01*
G75*
G02*
X150985300Y-120635600I172500J0D01*
G01*
X151330300Y-120635600D01*
G75*
G02*
X151502800Y-120808100I0J-172500D01*
G01*
G37*
%TD*%
%TO.C,R3*%
G36*
G01*
X140151500Y-121985600D02*
X139756500Y-121985600D01*
G75*
G02*
X139584000Y-121813100I0J172500D01*
G01*
X139584000Y-121468100D01*
G75*
G02*
X139756500Y-121295600I172500J0D01*
G01*
X140151500Y-121295600D01*
G75*
G02*
X140324000Y-121468100I0J-172500D01*
G01*
X140324000Y-121813100D01*
G75*
G02*
X140151500Y-121985600I-172500J0D01*
G01*
G37*
G36*
G01*
X140151500Y-122955600D02*
X139756500Y-122955600D01*
G75*
G02*
X139584000Y-122783100I0J172500D01*
G01*
X139584000Y-122438100D01*
G75*
G02*
X139756500Y-122265600I172500J0D01*
G01*
X140151500Y-122265600D01*
G75*
G02*
X140324000Y-122438100I0J-172500D01*
G01*
X140324000Y-122783100D01*
G75*
G02*
X140151500Y-122955600I-172500J0D01*
G01*
G37*
%TD*%
%TO.C,C18*%
G36*
G01*
X149946200Y-127539100D02*
X149946200Y-127934100D01*
G75*
G02*
X149773700Y-128106600I-172500J0D01*
G01*
X149428700Y-128106600D01*
G75*
G02*
X149256200Y-127934100I0J172500D01*
G01*
X149256200Y-127539100D01*
G75*
G02*
X149428700Y-127366600I172500J0D01*
G01*
X149773700Y-127366600D01*
G75*
G02*
X149946200Y-127539100I0J-172500D01*
G01*
G37*
G36*
G01*
X150916200Y-127539100D02*
X150916200Y-127934100D01*
G75*
G02*
X150743700Y-128106600I-172500J0D01*
G01*
X150398700Y-128106600D01*
G75*
G02*
X150226200Y-127934100I0J172500D01*
G01*
X150226200Y-127539100D01*
G75*
G02*
X150398700Y-127366600I172500J0D01*
G01*
X150743700Y-127366600D01*
G75*
G02*
X150916200Y-127539100I0J-172500D01*
G01*
G37*
%TD*%
%TO.C,C15*%
G36*
G01*
X141319900Y-121980800D02*
X140924900Y-121980800D01*
G75*
G02*
X140752400Y-121808300I0J172500D01*
G01*
X140752400Y-121463300D01*
G75*
G02*
X140924900Y-121290800I172500J0D01*
G01*
X141319900Y-121290800D01*
G75*
G02*
X141492400Y-121463300I0J-172500D01*
G01*
X141492400Y-121808300D01*
G75*
G02*
X141319900Y-121980800I-172500J0D01*
G01*
G37*
G36*
G01*
X141319900Y-122950800D02*
X140924900Y-122950800D01*
G75*
G02*
X140752400Y-122778300I0J172500D01*
G01*
X140752400Y-122433300D01*
G75*
G02*
X140924900Y-122260800I172500J0D01*
G01*
X141319900Y-122260800D01*
G75*
G02*
X141492400Y-122433300I0J-172500D01*
G01*
X141492400Y-122778300D01*
G75*
G02*
X141319900Y-122950800I-172500J0D01*
G01*
G37*
%TD*%
%TO.C,R8*%
G36*
G01*
X147081400Y-119145700D02*
X147081400Y-118750700D01*
G75*
G02*
X147253900Y-118578200I172500J0D01*
G01*
X147598900Y-118578200D01*
G75*
G02*
X147771400Y-118750700I0J-172500D01*
G01*
X147771400Y-119145700D01*
G75*
G02*
X147598900Y-119318200I-172500J0D01*
G01*
X147253900Y-119318200D01*
G75*
G02*
X147081400Y-119145700I0J172500D01*
G01*
G37*
G36*
G01*
X146111400Y-119145700D02*
X146111400Y-118750700D01*
G75*
G02*
X146283900Y-118578200I172500J0D01*
G01*
X146628900Y-118578200D01*
G75*
G02*
X146801400Y-118750700I0J-172500D01*
G01*
X146801400Y-119145700D01*
G75*
G02*
X146628900Y-119318200I-172500J0D01*
G01*
X146283900Y-119318200D01*
G75*
G02*
X146111400Y-119145700I0J172500D01*
G01*
G37*
%TD*%
D18*
%TO.C,D2*%
X150622000Y-117643400D03*
X151572000Y-119643400D03*
X149672000Y-119643400D03*
%TD*%
%TO.C,C17*%
G36*
G01*
X144277700Y-126761400D02*
X144672700Y-126761400D01*
G75*
G02*
X144845200Y-126933900I0J-172500D01*
G01*
X144845200Y-127278900D01*
G75*
G02*
X144672700Y-127451400I-172500J0D01*
G01*
X144277700Y-127451400D01*
G75*
G02*
X144105200Y-127278900I0J172500D01*
G01*
X144105200Y-126933900D01*
G75*
G02*
X144277700Y-126761400I172500J0D01*
G01*
G37*
G36*
G01*
X144277700Y-125791400D02*
X144672700Y-125791400D01*
G75*
G02*
X144845200Y-125963900I0J-172500D01*
G01*
X144845200Y-126308900D01*
G75*
G02*
X144672700Y-126481400I-172500J0D01*
G01*
X144277700Y-126481400D01*
G75*
G02*
X144105200Y-126308900I0J172500D01*
G01*
X144105200Y-125963900D01*
G75*
G02*
X144277700Y-125791400I172500J0D01*
G01*
G37*
%TD*%
%TO.C,C20*%
G36*
G01*
X138652900Y-126049600D02*
X138257900Y-126049600D01*
G75*
G02*
X138085400Y-125877100I0J172500D01*
G01*
X138085400Y-125532100D01*
G75*
G02*
X138257900Y-125359600I172500J0D01*
G01*
X138652900Y-125359600D01*
G75*
G02*
X138825400Y-125532100I0J-172500D01*
G01*
X138825400Y-125877100D01*
G75*
G02*
X138652900Y-126049600I-172500J0D01*
G01*
G37*
G36*
G01*
X138652900Y-127019600D02*
X138257900Y-127019600D01*
G75*
G02*
X138085400Y-126847100I0J172500D01*
G01*
X138085400Y-126502100D01*
G75*
G02*
X138257900Y-126329600I172500J0D01*
G01*
X138652900Y-126329600D01*
G75*
G02*
X138825400Y-126502100I0J-172500D01*
G01*
X138825400Y-126847100D01*
G75*
G02*
X138652900Y-127019600I-172500J0D01*
G01*
G37*
%TD*%
D19*
%TO.C,J3*%
X138455400Y-128219200D03*
X138455400Y-129519200D03*
X138455400Y-130819200D03*
%TD*%
M02*
