M48
INCH,TZ
T1C0.0157
T2C0.0591
T3C0.0669
%
G90
G05
T1
X53500Y-44970
X53820Y-53800
X53820Y-56250
X53830Y-54910
X53920Y-53390
X54010Y-54160
X54110Y-57320
X54140Y-54550
X54200Y-45470
X54500Y-51940
X54780Y-44480
X54790Y-57900
X55860Y-51290
X55870Y-56220
X55980Y-54600
X56540Y-56240
X56540Y-56960
X57560Y-39700
X58370Y-43480
X58410Y-45480
X59710Y-41970
X59710Y-44960
T2
X53980Y-38580
T3
X52980Y-37580
X52980Y-39580
X54980Y-37580
X54980Y-39580
T0
M30
