%TF.GenerationSoftware,KiCad,Pcbnew,5.1.6*%
%TF.CreationDate,2020-08-11T21:36:28+00:00*%
%TF.ProjectId,SoundCard,536f756e-6443-4617-9264-2e6b69636164,rev?*%
%TF.SameCoordinates,Original*%
%TF.FileFunction,Soldermask,Top*%
%TF.FilePolarity,Negative*%
%FSLAX46Y46*%
G04 Gerber Fmt 4.6, Leading zero omitted, Abs format (unit mm)*
G04 Created by KiCad (PCBNEW 5.1.6) date 2020-08-11 21:36:28*
%MOMM*%
%LPD*%
G01*
G04 APERTURE LIST*
%ADD10R,2.800000X2.800000*%
%ADD11R,0.800000X4.400000*%
%ADD12R,0.800000X3.300000*%
%ADD13R,1.300000X2.100000*%
%ADD14R,1.100000X1.600000*%
%ADD15R,1.000000X0.900000*%
%ADD16C,2.150000*%
%ADD17C,2.350000*%
%ADD18R,1.600000X1.100000*%
G04 APERTURE END LIST*
D10*
%TO.C,U3*%
X137309460Y-138718120D03*
G36*
G01*
X138734460Y-140305620D02*
X138734460Y-141055620D01*
G75*
G02*
X138646960Y-141143120I-87500J0D01*
G01*
X138471960Y-141143120D01*
G75*
G02*
X138384460Y-141055620I0J87500D01*
G01*
X138384460Y-140305620D01*
G75*
G02*
X138471960Y-140218120I87500J0D01*
G01*
X138646960Y-140218120D01*
G75*
G02*
X138734460Y-140305620I0J-87500D01*
G01*
G37*
G36*
G01*
X138234460Y-140305620D02*
X138234460Y-141055620D01*
G75*
G02*
X138146960Y-141143120I-87500J0D01*
G01*
X137971960Y-141143120D01*
G75*
G02*
X137884460Y-141055620I0J87500D01*
G01*
X137884460Y-140305620D01*
G75*
G02*
X137971960Y-140218120I87500J0D01*
G01*
X138146960Y-140218120D01*
G75*
G02*
X138234460Y-140305620I0J-87500D01*
G01*
G37*
G36*
G01*
X137734460Y-140305620D02*
X137734460Y-141055620D01*
G75*
G02*
X137646960Y-141143120I-87500J0D01*
G01*
X137471960Y-141143120D01*
G75*
G02*
X137384460Y-141055620I0J87500D01*
G01*
X137384460Y-140305620D01*
G75*
G02*
X137471960Y-140218120I87500J0D01*
G01*
X137646960Y-140218120D01*
G75*
G02*
X137734460Y-140305620I0J-87500D01*
G01*
G37*
G36*
G01*
X137234460Y-140305620D02*
X137234460Y-141055620D01*
G75*
G02*
X137146960Y-141143120I-87500J0D01*
G01*
X136971960Y-141143120D01*
G75*
G02*
X136884460Y-141055620I0J87500D01*
G01*
X136884460Y-140305620D01*
G75*
G02*
X136971960Y-140218120I87500J0D01*
G01*
X137146960Y-140218120D01*
G75*
G02*
X137234460Y-140305620I0J-87500D01*
G01*
G37*
G36*
G01*
X136734460Y-140305620D02*
X136734460Y-141055620D01*
G75*
G02*
X136646960Y-141143120I-87500J0D01*
G01*
X136471960Y-141143120D01*
G75*
G02*
X136384460Y-141055620I0J87500D01*
G01*
X136384460Y-140305620D01*
G75*
G02*
X136471960Y-140218120I87500J0D01*
G01*
X136646960Y-140218120D01*
G75*
G02*
X136734460Y-140305620I0J-87500D01*
G01*
G37*
G36*
G01*
X136234460Y-140305620D02*
X136234460Y-141055620D01*
G75*
G02*
X136146960Y-141143120I-87500J0D01*
G01*
X135971960Y-141143120D01*
G75*
G02*
X135884460Y-141055620I0J87500D01*
G01*
X135884460Y-140305620D01*
G75*
G02*
X135971960Y-140218120I87500J0D01*
G01*
X136146960Y-140218120D01*
G75*
G02*
X136234460Y-140305620I0J-87500D01*
G01*
G37*
G36*
G01*
X135809460Y-139880620D02*
X135809460Y-140055620D01*
G75*
G02*
X135721960Y-140143120I-87500J0D01*
G01*
X134971960Y-140143120D01*
G75*
G02*
X134884460Y-140055620I0J87500D01*
G01*
X134884460Y-139880620D01*
G75*
G02*
X134971960Y-139793120I87500J0D01*
G01*
X135721960Y-139793120D01*
G75*
G02*
X135809460Y-139880620I0J-87500D01*
G01*
G37*
G36*
G01*
X135809460Y-139380620D02*
X135809460Y-139555620D01*
G75*
G02*
X135721960Y-139643120I-87500J0D01*
G01*
X134971960Y-139643120D01*
G75*
G02*
X134884460Y-139555620I0J87500D01*
G01*
X134884460Y-139380620D01*
G75*
G02*
X134971960Y-139293120I87500J0D01*
G01*
X135721960Y-139293120D01*
G75*
G02*
X135809460Y-139380620I0J-87500D01*
G01*
G37*
G36*
G01*
X135809460Y-138880620D02*
X135809460Y-139055620D01*
G75*
G02*
X135721960Y-139143120I-87500J0D01*
G01*
X134971960Y-139143120D01*
G75*
G02*
X134884460Y-139055620I0J87500D01*
G01*
X134884460Y-138880620D01*
G75*
G02*
X134971960Y-138793120I87500J0D01*
G01*
X135721960Y-138793120D01*
G75*
G02*
X135809460Y-138880620I0J-87500D01*
G01*
G37*
G36*
G01*
X135809460Y-138380620D02*
X135809460Y-138555620D01*
G75*
G02*
X135721960Y-138643120I-87500J0D01*
G01*
X134971960Y-138643120D01*
G75*
G02*
X134884460Y-138555620I0J87500D01*
G01*
X134884460Y-138380620D01*
G75*
G02*
X134971960Y-138293120I87500J0D01*
G01*
X135721960Y-138293120D01*
G75*
G02*
X135809460Y-138380620I0J-87500D01*
G01*
G37*
G36*
G01*
X135809460Y-137880620D02*
X135809460Y-138055620D01*
G75*
G02*
X135721960Y-138143120I-87500J0D01*
G01*
X134971960Y-138143120D01*
G75*
G02*
X134884460Y-138055620I0J87500D01*
G01*
X134884460Y-137880620D01*
G75*
G02*
X134971960Y-137793120I87500J0D01*
G01*
X135721960Y-137793120D01*
G75*
G02*
X135809460Y-137880620I0J-87500D01*
G01*
G37*
G36*
G01*
X135809460Y-137380620D02*
X135809460Y-137555620D01*
G75*
G02*
X135721960Y-137643120I-87500J0D01*
G01*
X134971960Y-137643120D01*
G75*
G02*
X134884460Y-137555620I0J87500D01*
G01*
X134884460Y-137380620D01*
G75*
G02*
X134971960Y-137293120I87500J0D01*
G01*
X135721960Y-137293120D01*
G75*
G02*
X135809460Y-137380620I0J-87500D01*
G01*
G37*
G36*
G01*
X136234460Y-136380620D02*
X136234460Y-137130620D01*
G75*
G02*
X136146960Y-137218120I-87500J0D01*
G01*
X135971960Y-137218120D01*
G75*
G02*
X135884460Y-137130620I0J87500D01*
G01*
X135884460Y-136380620D01*
G75*
G02*
X135971960Y-136293120I87500J0D01*
G01*
X136146960Y-136293120D01*
G75*
G02*
X136234460Y-136380620I0J-87500D01*
G01*
G37*
G36*
G01*
X136734460Y-136380620D02*
X136734460Y-137130620D01*
G75*
G02*
X136646960Y-137218120I-87500J0D01*
G01*
X136471960Y-137218120D01*
G75*
G02*
X136384460Y-137130620I0J87500D01*
G01*
X136384460Y-136380620D01*
G75*
G02*
X136471960Y-136293120I87500J0D01*
G01*
X136646960Y-136293120D01*
G75*
G02*
X136734460Y-136380620I0J-87500D01*
G01*
G37*
G36*
G01*
X137234460Y-136380620D02*
X137234460Y-137130620D01*
G75*
G02*
X137146960Y-137218120I-87500J0D01*
G01*
X136971960Y-137218120D01*
G75*
G02*
X136884460Y-137130620I0J87500D01*
G01*
X136884460Y-136380620D01*
G75*
G02*
X136971960Y-136293120I87500J0D01*
G01*
X137146960Y-136293120D01*
G75*
G02*
X137234460Y-136380620I0J-87500D01*
G01*
G37*
G36*
G01*
X137734460Y-136380620D02*
X137734460Y-137130620D01*
G75*
G02*
X137646960Y-137218120I-87500J0D01*
G01*
X137471960Y-137218120D01*
G75*
G02*
X137384460Y-137130620I0J87500D01*
G01*
X137384460Y-136380620D01*
G75*
G02*
X137471960Y-136293120I87500J0D01*
G01*
X137646960Y-136293120D01*
G75*
G02*
X137734460Y-136380620I0J-87500D01*
G01*
G37*
G36*
G01*
X138234460Y-136380620D02*
X138234460Y-137130620D01*
G75*
G02*
X138146960Y-137218120I-87500J0D01*
G01*
X137971960Y-137218120D01*
G75*
G02*
X137884460Y-137130620I0J87500D01*
G01*
X137884460Y-136380620D01*
G75*
G02*
X137971960Y-136293120I87500J0D01*
G01*
X138146960Y-136293120D01*
G75*
G02*
X138234460Y-136380620I0J-87500D01*
G01*
G37*
G36*
G01*
X138734460Y-136380620D02*
X138734460Y-137130620D01*
G75*
G02*
X138646960Y-137218120I-87500J0D01*
G01*
X138471960Y-137218120D01*
G75*
G02*
X138384460Y-137130620I0J87500D01*
G01*
X138384460Y-136380620D01*
G75*
G02*
X138471960Y-136293120I87500J0D01*
G01*
X138646960Y-136293120D01*
G75*
G02*
X138734460Y-136380620I0J-87500D01*
G01*
G37*
G36*
G01*
X139734460Y-137380620D02*
X139734460Y-137555620D01*
G75*
G02*
X139646960Y-137643120I-87500J0D01*
G01*
X138896960Y-137643120D01*
G75*
G02*
X138809460Y-137555620I0J87500D01*
G01*
X138809460Y-137380620D01*
G75*
G02*
X138896960Y-137293120I87500J0D01*
G01*
X139646960Y-137293120D01*
G75*
G02*
X139734460Y-137380620I0J-87500D01*
G01*
G37*
G36*
G01*
X139734460Y-137880620D02*
X139734460Y-138055620D01*
G75*
G02*
X139646960Y-138143120I-87500J0D01*
G01*
X138896960Y-138143120D01*
G75*
G02*
X138809460Y-138055620I0J87500D01*
G01*
X138809460Y-137880620D01*
G75*
G02*
X138896960Y-137793120I87500J0D01*
G01*
X139646960Y-137793120D01*
G75*
G02*
X139734460Y-137880620I0J-87500D01*
G01*
G37*
G36*
G01*
X139734460Y-138380620D02*
X139734460Y-138555620D01*
G75*
G02*
X139646960Y-138643120I-87500J0D01*
G01*
X138896960Y-138643120D01*
G75*
G02*
X138809460Y-138555620I0J87500D01*
G01*
X138809460Y-138380620D01*
G75*
G02*
X138896960Y-138293120I87500J0D01*
G01*
X139646960Y-138293120D01*
G75*
G02*
X139734460Y-138380620I0J-87500D01*
G01*
G37*
G36*
G01*
X139734460Y-138880620D02*
X139734460Y-139055620D01*
G75*
G02*
X139646960Y-139143120I-87500J0D01*
G01*
X138896960Y-139143120D01*
G75*
G02*
X138809460Y-139055620I0J87500D01*
G01*
X138809460Y-138880620D01*
G75*
G02*
X138896960Y-138793120I87500J0D01*
G01*
X139646960Y-138793120D01*
G75*
G02*
X139734460Y-138880620I0J-87500D01*
G01*
G37*
G36*
G01*
X139734460Y-139380620D02*
X139734460Y-139555620D01*
G75*
G02*
X139646960Y-139643120I-87500J0D01*
G01*
X138896960Y-139643120D01*
G75*
G02*
X138809460Y-139555620I0J87500D01*
G01*
X138809460Y-139380620D01*
G75*
G02*
X138896960Y-139293120I87500J0D01*
G01*
X139646960Y-139293120D01*
G75*
G02*
X139734460Y-139380620I0J-87500D01*
G01*
G37*
G36*
G01*
X139734460Y-139880620D02*
X139734460Y-140055620D01*
G75*
G02*
X139646960Y-140143120I-87500J0D01*
G01*
X138896960Y-140143120D01*
G75*
G02*
X138809460Y-140055620I0J87500D01*
G01*
X138809460Y-139880620D01*
G75*
G02*
X138896960Y-139793120I87500J0D01*
G01*
X139646960Y-139793120D01*
G75*
G02*
X139734460Y-139880620I0J-87500D01*
G01*
G37*
%TD*%
%TO.C,R1*%
G36*
G01*
X143965350Y-110876260D02*
X144527850Y-110876260D01*
G75*
G02*
X144771600Y-111120010I0J-243750D01*
G01*
X144771600Y-111607510D01*
G75*
G02*
X144527850Y-111851260I-243750J0D01*
G01*
X143965350Y-111851260D01*
G75*
G02*
X143721600Y-111607510I0J243750D01*
G01*
X143721600Y-111120010D01*
G75*
G02*
X143965350Y-110876260I243750J0D01*
G01*
G37*
G36*
G01*
X143965350Y-109301260D02*
X144527850Y-109301260D01*
G75*
G02*
X144771600Y-109545010I0J-243750D01*
G01*
X144771600Y-110032510D01*
G75*
G02*
X144527850Y-110276260I-243750J0D01*
G01*
X143965350Y-110276260D01*
G75*
G02*
X143721600Y-110032510I0J243750D01*
G01*
X143721600Y-109545010D01*
G75*
G02*
X143965350Y-109301260I243750J0D01*
G01*
G37*
%TD*%
D11*
%TO.C,P1*%
X133451600Y-150368000D03*
X134451600Y-150368000D03*
X135451600Y-150368000D03*
X136451600Y-150368000D03*
X137451600Y-150368000D03*
X138451600Y-150368000D03*
X139451600Y-150368000D03*
X140451600Y-150368000D03*
X141451600Y-150368000D03*
X142451600Y-150368000D03*
X143451600Y-150368000D03*
X148451600Y-150368000D03*
X149451600Y-150368000D03*
X150451600Y-150368000D03*
D12*
X151451600Y-149818000D03*
D11*
X152451600Y-150368000D03*
X146451600Y-150368000D03*
X147451600Y-150368000D03*
%TD*%
D13*
%TO.C,U2*%
X148678240Y-141716880D03*
G36*
G01*
X149428240Y-140804380D02*
X149428240Y-140629380D01*
G75*
G02*
X149515740Y-140541880I87500J0D01*
G01*
X150265740Y-140541880D01*
G75*
G02*
X150353240Y-140629380I0J-87500D01*
G01*
X150353240Y-140804380D01*
G75*
G02*
X150265740Y-140891880I-87500J0D01*
G01*
X149515740Y-140891880D01*
G75*
G02*
X149428240Y-140804380I0J87500D01*
G01*
G37*
G36*
G01*
X149428240Y-141304380D02*
X149428240Y-141129380D01*
G75*
G02*
X149515740Y-141041880I87500J0D01*
G01*
X150265740Y-141041880D01*
G75*
G02*
X150353240Y-141129380I0J-87500D01*
G01*
X150353240Y-141304380D01*
G75*
G02*
X150265740Y-141391880I-87500J0D01*
G01*
X149515740Y-141391880D01*
G75*
G02*
X149428240Y-141304380I0J87500D01*
G01*
G37*
G36*
G01*
X149428240Y-141804380D02*
X149428240Y-141629380D01*
G75*
G02*
X149515740Y-141541880I87500J0D01*
G01*
X150265740Y-141541880D01*
G75*
G02*
X150353240Y-141629380I0J-87500D01*
G01*
X150353240Y-141804380D01*
G75*
G02*
X150265740Y-141891880I-87500J0D01*
G01*
X149515740Y-141891880D01*
G75*
G02*
X149428240Y-141804380I0J87500D01*
G01*
G37*
G36*
G01*
X149428240Y-142304380D02*
X149428240Y-142129380D01*
G75*
G02*
X149515740Y-142041880I87500J0D01*
G01*
X150265740Y-142041880D01*
G75*
G02*
X150353240Y-142129380I0J-87500D01*
G01*
X150353240Y-142304380D01*
G75*
G02*
X150265740Y-142391880I-87500J0D01*
G01*
X149515740Y-142391880D01*
G75*
G02*
X149428240Y-142304380I0J87500D01*
G01*
G37*
G36*
G01*
X149428240Y-142804380D02*
X149428240Y-142629380D01*
G75*
G02*
X149515740Y-142541880I87500J0D01*
G01*
X150265740Y-142541880D01*
G75*
G02*
X150353240Y-142629380I0J-87500D01*
G01*
X150353240Y-142804380D01*
G75*
G02*
X150265740Y-142891880I-87500J0D01*
G01*
X149515740Y-142891880D01*
G75*
G02*
X149428240Y-142804380I0J87500D01*
G01*
G37*
G36*
G01*
X147003240Y-142804380D02*
X147003240Y-142629380D01*
G75*
G02*
X147090740Y-142541880I87500J0D01*
G01*
X147840740Y-142541880D01*
G75*
G02*
X147928240Y-142629380I0J-87500D01*
G01*
X147928240Y-142804380D01*
G75*
G02*
X147840740Y-142891880I-87500J0D01*
G01*
X147090740Y-142891880D01*
G75*
G02*
X147003240Y-142804380I0J87500D01*
G01*
G37*
G36*
G01*
X147003240Y-142304380D02*
X147003240Y-142129380D01*
G75*
G02*
X147090740Y-142041880I87500J0D01*
G01*
X147840740Y-142041880D01*
G75*
G02*
X147928240Y-142129380I0J-87500D01*
G01*
X147928240Y-142304380D01*
G75*
G02*
X147840740Y-142391880I-87500J0D01*
G01*
X147090740Y-142391880D01*
G75*
G02*
X147003240Y-142304380I0J87500D01*
G01*
G37*
G36*
G01*
X147003240Y-141804380D02*
X147003240Y-141629380D01*
G75*
G02*
X147090740Y-141541880I87500J0D01*
G01*
X147840740Y-141541880D01*
G75*
G02*
X147928240Y-141629380I0J-87500D01*
G01*
X147928240Y-141804380D01*
G75*
G02*
X147840740Y-141891880I-87500J0D01*
G01*
X147090740Y-141891880D01*
G75*
G02*
X147003240Y-141804380I0J87500D01*
G01*
G37*
G36*
G01*
X147003240Y-141304380D02*
X147003240Y-141129380D01*
G75*
G02*
X147090740Y-141041880I87500J0D01*
G01*
X147840740Y-141041880D01*
G75*
G02*
X147928240Y-141129380I0J-87500D01*
G01*
X147928240Y-141304380D01*
G75*
G02*
X147840740Y-141391880I-87500J0D01*
G01*
X147090740Y-141391880D01*
G75*
G02*
X147003240Y-141304380I0J87500D01*
G01*
G37*
G36*
G01*
X147003240Y-140804380D02*
X147003240Y-140629380D01*
G75*
G02*
X147090740Y-140541880I87500J0D01*
G01*
X147840740Y-140541880D01*
G75*
G02*
X147928240Y-140629380I0J-87500D01*
G01*
X147928240Y-140804380D01*
G75*
G02*
X147840740Y-140891880I-87500J0D01*
G01*
X147090740Y-140891880D01*
G75*
G02*
X147003240Y-140804380I0J87500D01*
G01*
G37*
%TD*%
%TO.C,R6*%
G36*
G01*
X143895460Y-132882200D02*
X143500460Y-132882200D01*
G75*
G02*
X143327960Y-132709700I0J172500D01*
G01*
X143327960Y-132364700D01*
G75*
G02*
X143500460Y-132192200I172500J0D01*
G01*
X143895460Y-132192200D01*
G75*
G02*
X144067960Y-132364700I0J-172500D01*
G01*
X144067960Y-132709700D01*
G75*
G02*
X143895460Y-132882200I-172500J0D01*
G01*
G37*
G36*
G01*
X143895460Y-133852200D02*
X143500460Y-133852200D01*
G75*
G02*
X143327960Y-133679700I0J172500D01*
G01*
X143327960Y-133334700D01*
G75*
G02*
X143500460Y-133162200I172500J0D01*
G01*
X143895460Y-133162200D01*
G75*
G02*
X144067960Y-133334700I0J-172500D01*
G01*
X144067960Y-133679700D01*
G75*
G02*
X143895460Y-133852200I-172500J0D01*
G01*
G37*
%TD*%
%TO.C,R5*%
G36*
G01*
X146201780Y-141320360D02*
X145806780Y-141320360D01*
G75*
G02*
X145634280Y-141147860I0J172500D01*
G01*
X145634280Y-140802860D01*
G75*
G02*
X145806780Y-140630360I172500J0D01*
G01*
X146201780Y-140630360D01*
G75*
G02*
X146374280Y-140802860I0J-172500D01*
G01*
X146374280Y-141147860D01*
G75*
G02*
X146201780Y-141320360I-172500J0D01*
G01*
G37*
G36*
G01*
X146201780Y-142290360D02*
X145806780Y-142290360D01*
G75*
G02*
X145634280Y-142117860I0J172500D01*
G01*
X145634280Y-141772860D01*
G75*
G02*
X145806780Y-141600360I172500J0D01*
G01*
X146201780Y-141600360D01*
G75*
G02*
X146374280Y-141772860I0J-172500D01*
G01*
X146374280Y-142117860D01*
G75*
G02*
X146201780Y-142290360I-172500J0D01*
G01*
G37*
%TD*%
%TO.C,R4*%
G36*
G01*
X145806780Y-143571120D02*
X146201780Y-143571120D01*
G75*
G02*
X146374280Y-143743620I0J-172500D01*
G01*
X146374280Y-144088620D01*
G75*
G02*
X146201780Y-144261120I-172500J0D01*
G01*
X145806780Y-144261120D01*
G75*
G02*
X145634280Y-144088620I0J172500D01*
G01*
X145634280Y-143743620D01*
G75*
G02*
X145806780Y-143571120I172500J0D01*
G01*
G37*
G36*
G01*
X145806780Y-142601120D02*
X146201780Y-142601120D01*
G75*
G02*
X146374280Y-142773620I0J-172500D01*
G01*
X146374280Y-143118620D01*
G75*
G02*
X146201780Y-143291120I-172500J0D01*
G01*
X145806780Y-143291120D01*
G75*
G02*
X145634280Y-143118620I0J172500D01*
G01*
X145634280Y-142773620D01*
G75*
G02*
X145806780Y-142601120I172500J0D01*
G01*
G37*
%TD*%
%TO.C,R3*%
G36*
G01*
X143500460Y-129949240D02*
X143895460Y-129949240D01*
G75*
G02*
X144067960Y-130121740I0J-172500D01*
G01*
X144067960Y-130466740D01*
G75*
G02*
X143895460Y-130639240I-172500J0D01*
G01*
X143500460Y-130639240D01*
G75*
G02*
X143327960Y-130466740I0J172500D01*
G01*
X143327960Y-130121740D01*
G75*
G02*
X143500460Y-129949240I172500J0D01*
G01*
G37*
G36*
G01*
X143500460Y-128979240D02*
X143895460Y-128979240D01*
G75*
G02*
X144067960Y-129151740I0J-172500D01*
G01*
X144067960Y-129496740D01*
G75*
G02*
X143895460Y-129669240I-172500J0D01*
G01*
X143500460Y-129669240D01*
G75*
G02*
X143327960Y-129496740I0J172500D01*
G01*
X143327960Y-129151740D01*
G75*
G02*
X143500460Y-128979240I172500J0D01*
G01*
G37*
%TD*%
%TO.C,R2*%
G36*
G01*
X143072960Y-131298300D02*
X143072960Y-131693300D01*
G75*
G02*
X142900460Y-131865800I-172500J0D01*
G01*
X142555460Y-131865800D01*
G75*
G02*
X142382960Y-131693300I0J172500D01*
G01*
X142382960Y-131298300D01*
G75*
G02*
X142555460Y-131125800I172500J0D01*
G01*
X142900460Y-131125800D01*
G75*
G02*
X143072960Y-131298300I0J-172500D01*
G01*
G37*
G36*
G01*
X144042960Y-131298300D02*
X144042960Y-131693300D01*
G75*
G02*
X143870460Y-131865800I-172500J0D01*
G01*
X143525460Y-131865800D01*
G75*
G02*
X143352960Y-131693300I0J172500D01*
G01*
X143352960Y-131298300D01*
G75*
G02*
X143525460Y-131125800I172500J0D01*
G01*
X143870460Y-131125800D01*
G75*
G02*
X144042960Y-131298300I0J-172500D01*
G01*
G37*
%TD*%
D14*
%TO.C,J2*%
X142921200Y-113380520D03*
X144221200Y-113380520D03*
%TD*%
%TO.C,C15*%
G36*
G01*
X142036640Y-133304900D02*
X142036640Y-133699900D01*
G75*
G02*
X141864140Y-133872400I-172500J0D01*
G01*
X141519140Y-133872400D01*
G75*
G02*
X141346640Y-133699900I0J172500D01*
G01*
X141346640Y-133304900D01*
G75*
G02*
X141519140Y-133132400I172500J0D01*
G01*
X141864140Y-133132400D01*
G75*
G02*
X142036640Y-133304900I0J-172500D01*
G01*
G37*
G36*
G01*
X143006640Y-133304900D02*
X143006640Y-133699900D01*
G75*
G02*
X142834140Y-133872400I-172500J0D01*
G01*
X142489140Y-133872400D01*
G75*
G02*
X142316640Y-133699900I0J172500D01*
G01*
X142316640Y-133304900D01*
G75*
G02*
X142489140Y-133132400I172500J0D01*
G01*
X142834140Y-133132400D01*
G75*
G02*
X143006640Y-133304900I0J-172500D01*
G01*
G37*
%TD*%
%TO.C,C13*%
G36*
G01*
X147430410Y-138002300D02*
X146467910Y-138002300D01*
G75*
G02*
X146199160Y-137733550I0J268750D01*
G01*
X146199160Y-137196050D01*
G75*
G02*
X146467910Y-136927300I268750J0D01*
G01*
X147430410Y-136927300D01*
G75*
G02*
X147699160Y-137196050I0J-268750D01*
G01*
X147699160Y-137733550D01*
G75*
G02*
X147430410Y-138002300I-268750J0D01*
G01*
G37*
G36*
G01*
X147430410Y-139877300D02*
X146467910Y-139877300D01*
G75*
G02*
X146199160Y-139608550I0J268750D01*
G01*
X146199160Y-139071050D01*
G75*
G02*
X146467910Y-138802300I268750J0D01*
G01*
X147430410Y-138802300D01*
G75*
G02*
X147699160Y-139071050I0J-268750D01*
G01*
X147699160Y-139608550D01*
G75*
G02*
X147430410Y-139877300I-268750J0D01*
G01*
G37*
%TD*%
%TO.C,C9*%
G36*
G01*
X137024190Y-119899520D02*
X137986690Y-119899520D01*
G75*
G02*
X138255440Y-120168270I0J-268750D01*
G01*
X138255440Y-120705770D01*
G75*
G02*
X137986690Y-120974520I-268750J0D01*
G01*
X137024190Y-120974520D01*
G75*
G02*
X136755440Y-120705770I0J268750D01*
G01*
X136755440Y-120168270D01*
G75*
G02*
X137024190Y-119899520I268750J0D01*
G01*
G37*
G36*
G01*
X137024190Y-118024520D02*
X137986690Y-118024520D01*
G75*
G02*
X138255440Y-118293270I0J-268750D01*
G01*
X138255440Y-118830770D01*
G75*
G02*
X137986690Y-119099520I-268750J0D01*
G01*
X137024190Y-119099520D01*
G75*
G02*
X136755440Y-118830770I0J268750D01*
G01*
X136755440Y-118293270D01*
G75*
G02*
X137024190Y-118024520I268750J0D01*
G01*
G37*
%TD*%
%TO.C,C6*%
G36*
G01*
X151327500Y-142275400D02*
X150932500Y-142275400D01*
G75*
G02*
X150760000Y-142102900I0J172500D01*
G01*
X150760000Y-141757900D01*
G75*
G02*
X150932500Y-141585400I172500J0D01*
G01*
X151327500Y-141585400D01*
G75*
G02*
X151500000Y-141757900I0J-172500D01*
G01*
X151500000Y-142102900D01*
G75*
G02*
X151327500Y-142275400I-172500J0D01*
G01*
G37*
G36*
G01*
X151327500Y-143245400D02*
X150932500Y-143245400D01*
G75*
G02*
X150760000Y-143072900I0J172500D01*
G01*
X150760000Y-142727900D01*
G75*
G02*
X150932500Y-142555400I172500J0D01*
G01*
X151327500Y-142555400D01*
G75*
G02*
X151500000Y-142727900I0J-172500D01*
G01*
X151500000Y-143072900D01*
G75*
G02*
X151327500Y-143245400I-172500J0D01*
G01*
G37*
%TD*%
%TO.C,C1*%
G36*
G01*
X151108330Y-138042460D02*
X150145830Y-138042460D01*
G75*
G02*
X149877080Y-137773710I0J268750D01*
G01*
X149877080Y-137236210D01*
G75*
G02*
X150145830Y-136967460I268750J0D01*
G01*
X151108330Y-136967460D01*
G75*
G02*
X151377080Y-137236210I0J-268750D01*
G01*
X151377080Y-137773710D01*
G75*
G02*
X151108330Y-138042460I-268750J0D01*
G01*
G37*
G36*
G01*
X151108330Y-139917460D02*
X150145830Y-139917460D01*
G75*
G02*
X149877080Y-139648710I0J268750D01*
G01*
X149877080Y-139111210D01*
G75*
G02*
X150145830Y-138842460I268750J0D01*
G01*
X151108330Y-138842460D01*
G75*
G02*
X151377080Y-139111210I0J-268750D01*
G01*
X151377080Y-139648710D01*
G75*
G02*
X151108330Y-139917460I-268750J0D01*
G01*
G37*
%TD*%
D15*
%TO.C,D1*%
X137490200Y-123007120D03*
X139490200Y-122057120D03*
X139490200Y-123957120D03*
%TD*%
D16*
%TO.C,J1*%
X137505440Y-113350040D03*
D17*
X140045440Y-115890040D03*
X140045440Y-110810040D03*
X134965440Y-110810040D03*
X134965440Y-115890040D03*
%TD*%
%TO.C,C2*%
G36*
G01*
X135575200Y-142193660D02*
X135575200Y-141798660D01*
G75*
G02*
X135747700Y-141626160I172500J0D01*
G01*
X136092700Y-141626160D01*
G75*
G02*
X136265200Y-141798660I0J-172500D01*
G01*
X136265200Y-142193660D01*
G75*
G02*
X136092700Y-142366160I-172500J0D01*
G01*
X135747700Y-142366160D01*
G75*
G02*
X135575200Y-142193660I0J172500D01*
G01*
G37*
G36*
G01*
X134605200Y-142193660D02*
X134605200Y-141798660D01*
G75*
G02*
X134777700Y-141626160I172500J0D01*
G01*
X135122700Y-141626160D01*
G75*
G02*
X135295200Y-141798660I0J-172500D01*
G01*
X135295200Y-142193660D01*
G75*
G02*
X135122700Y-142366160I-172500J0D01*
G01*
X134777700Y-142366160D01*
G75*
G02*
X134605200Y-142193660I0J172500D01*
G01*
G37*
%TD*%
%TO.C,C3*%
G36*
G01*
X139105200Y-141798660D02*
X139105200Y-142193660D01*
G75*
G02*
X138932700Y-142366160I-172500J0D01*
G01*
X138587700Y-142366160D01*
G75*
G02*
X138415200Y-142193660I0J172500D01*
G01*
X138415200Y-141798660D01*
G75*
G02*
X138587700Y-141626160I172500J0D01*
G01*
X138932700Y-141626160D01*
G75*
G02*
X139105200Y-141798660I0J-172500D01*
G01*
G37*
G36*
G01*
X140075200Y-141798660D02*
X140075200Y-142193660D01*
G75*
G02*
X139902700Y-142366160I-172500J0D01*
G01*
X139557700Y-142366160D01*
G75*
G02*
X139385200Y-142193660I0J172500D01*
G01*
X139385200Y-141798660D01*
G75*
G02*
X139557700Y-141626160I172500J0D01*
G01*
X139902700Y-141626160D01*
G75*
G02*
X140075200Y-141798660I0J-172500D01*
G01*
G37*
%TD*%
%TO.C,C4*%
G36*
G01*
X134450900Y-143064310D02*
X134450900Y-144026810D01*
G75*
G02*
X134182150Y-144295560I-268750J0D01*
G01*
X133644650Y-144295560D01*
G75*
G02*
X133375900Y-144026810I0J268750D01*
G01*
X133375900Y-143064310D01*
G75*
G02*
X133644650Y-142795560I268750J0D01*
G01*
X134182150Y-142795560D01*
G75*
G02*
X134450900Y-143064310I0J-268750D01*
G01*
G37*
G36*
G01*
X136325900Y-143064310D02*
X136325900Y-144026810D01*
G75*
G02*
X136057150Y-144295560I-268750J0D01*
G01*
X135519650Y-144295560D01*
G75*
G02*
X135250900Y-144026810I0J268750D01*
G01*
X135250900Y-143064310D01*
G75*
G02*
X135519650Y-142795560I268750J0D01*
G01*
X136057150Y-142795560D01*
G75*
G02*
X136325900Y-143064310I0J-268750D01*
G01*
G37*
%TD*%
%TO.C,C5*%
G36*
G01*
X140250100Y-144026810D02*
X140250100Y-143064310D01*
G75*
G02*
X140518850Y-142795560I268750J0D01*
G01*
X141056350Y-142795560D01*
G75*
G02*
X141325100Y-143064310I0J-268750D01*
G01*
X141325100Y-144026810D01*
G75*
G02*
X141056350Y-144295560I-268750J0D01*
G01*
X140518850Y-144295560D01*
G75*
G02*
X140250100Y-144026810I0J268750D01*
G01*
G37*
G36*
G01*
X138375100Y-144026810D02*
X138375100Y-143064310D01*
G75*
G02*
X138643850Y-142795560I268750J0D01*
G01*
X139181350Y-142795560D01*
G75*
G02*
X139450100Y-143064310I0J-268750D01*
G01*
X139450100Y-144026810D01*
G75*
G02*
X139181350Y-144295560I-268750J0D01*
G01*
X138643850Y-144295560D01*
G75*
G02*
X138375100Y-144026810I0J268750D01*
G01*
G37*
%TD*%
%TO.C,C7*%
G36*
G01*
X141116700Y-140532960D02*
X140721700Y-140532960D01*
G75*
G02*
X140549200Y-140360460I0J172500D01*
G01*
X140549200Y-140015460D01*
G75*
G02*
X140721700Y-139842960I172500J0D01*
G01*
X141116700Y-139842960D01*
G75*
G02*
X141289200Y-140015460I0J-172500D01*
G01*
X141289200Y-140360460D01*
G75*
G02*
X141116700Y-140532960I-172500J0D01*
G01*
G37*
G36*
G01*
X141116700Y-141502960D02*
X140721700Y-141502960D01*
G75*
G02*
X140549200Y-141330460I0J172500D01*
G01*
X140549200Y-140985460D01*
G75*
G02*
X140721700Y-140812960I172500J0D01*
G01*
X141116700Y-140812960D01*
G75*
G02*
X141289200Y-140985460I0J-172500D01*
G01*
X141289200Y-141330460D01*
G75*
G02*
X141116700Y-141502960I-172500J0D01*
G01*
G37*
%TD*%
%TO.C,C8*%
G36*
G01*
X142169500Y-138526960D02*
X142564500Y-138526960D01*
G75*
G02*
X142737000Y-138699460I0J-172500D01*
G01*
X142737000Y-139044460D01*
G75*
G02*
X142564500Y-139216960I-172500J0D01*
G01*
X142169500Y-139216960D01*
G75*
G02*
X141997000Y-139044460I0J172500D01*
G01*
X141997000Y-138699460D01*
G75*
G02*
X142169500Y-138526960I172500J0D01*
G01*
G37*
G36*
G01*
X142169500Y-137556960D02*
X142564500Y-137556960D01*
G75*
G02*
X142737000Y-137729460I0J-172500D01*
G01*
X142737000Y-138074460D01*
G75*
G02*
X142564500Y-138246960I-172500J0D01*
G01*
X142169500Y-138246960D01*
G75*
G02*
X141997000Y-138074460I0J172500D01*
G01*
X141997000Y-137729460D01*
G75*
G02*
X142169500Y-137556960I172500J0D01*
G01*
G37*
%TD*%
%TO.C,C10*%
G36*
G01*
X142368350Y-141708060D02*
X143330850Y-141708060D01*
G75*
G02*
X143599600Y-141976810I0J-268750D01*
G01*
X143599600Y-142514310D01*
G75*
G02*
X143330850Y-142783060I-268750J0D01*
G01*
X142368350Y-142783060D01*
G75*
G02*
X142099600Y-142514310I0J268750D01*
G01*
X142099600Y-141976810D01*
G75*
G02*
X142368350Y-141708060I268750J0D01*
G01*
G37*
G36*
G01*
X142368350Y-139833060D02*
X143330850Y-139833060D01*
G75*
G02*
X143599600Y-140101810I0J-268750D01*
G01*
X143599600Y-140639310D01*
G75*
G02*
X143330850Y-140908060I-268750J0D01*
G01*
X142368350Y-140908060D01*
G75*
G02*
X142099600Y-140639310I0J268750D01*
G01*
X142099600Y-140101810D01*
G75*
G02*
X142368350Y-139833060I268750J0D01*
G01*
G37*
%TD*%
%TO.C,C14*%
G36*
G01*
X137830120Y-126711060D02*
X137830120Y-127106060D01*
G75*
G02*
X137657620Y-127278560I-172500J0D01*
G01*
X137312620Y-127278560D01*
G75*
G02*
X137140120Y-127106060I0J172500D01*
G01*
X137140120Y-126711060D01*
G75*
G02*
X137312620Y-126538560I172500J0D01*
G01*
X137657620Y-126538560D01*
G75*
G02*
X137830120Y-126711060I0J-172500D01*
G01*
G37*
G36*
G01*
X138800120Y-126711060D02*
X138800120Y-127106060D01*
G75*
G02*
X138627620Y-127278560I-172500J0D01*
G01*
X138282620Y-127278560D01*
G75*
G02*
X138110120Y-127106060I0J172500D01*
G01*
X138110120Y-126711060D01*
G75*
G02*
X138282620Y-126538560I172500J0D01*
G01*
X138627620Y-126538560D01*
G75*
G02*
X138800120Y-126711060I0J-172500D01*
G01*
G37*
%TD*%
%TO.C,C11*%
G36*
G01*
X144473850Y-137382060D02*
X143511350Y-137382060D01*
G75*
G02*
X143242600Y-137113310I0J268750D01*
G01*
X143242600Y-136575810D01*
G75*
G02*
X143511350Y-136307060I268750J0D01*
G01*
X144473850Y-136307060D01*
G75*
G02*
X144742600Y-136575810I0J-268750D01*
G01*
X144742600Y-137113310D01*
G75*
G02*
X144473850Y-137382060I-268750J0D01*
G01*
G37*
G36*
G01*
X144473850Y-139257060D02*
X143511350Y-139257060D01*
G75*
G02*
X143242600Y-138988310I0J268750D01*
G01*
X143242600Y-138450810D01*
G75*
G02*
X143511350Y-138182060I268750J0D01*
G01*
X144473850Y-138182060D01*
G75*
G02*
X144742600Y-138450810I0J-268750D01*
G01*
X144742600Y-138988310D01*
G75*
G02*
X144473850Y-139257060I-268750J0D01*
G01*
G37*
%TD*%
%TO.C,C12*%
G36*
G01*
X140721700Y-138430160D02*
X141116700Y-138430160D01*
G75*
G02*
X141289200Y-138602660I0J-172500D01*
G01*
X141289200Y-138947660D01*
G75*
G02*
X141116700Y-139120160I-172500J0D01*
G01*
X140721700Y-139120160D01*
G75*
G02*
X140549200Y-138947660I0J172500D01*
G01*
X140549200Y-138602660D01*
G75*
G02*
X140721700Y-138430160I172500J0D01*
G01*
G37*
G36*
G01*
X140721700Y-137460160D02*
X141116700Y-137460160D01*
G75*
G02*
X141289200Y-137632660I0J-172500D01*
G01*
X141289200Y-137977660D01*
G75*
G02*
X141116700Y-138150160I-172500J0D01*
G01*
X140721700Y-138150160D01*
G75*
G02*
X140549200Y-137977660I0J172500D01*
G01*
X140549200Y-137632660D01*
G75*
G02*
X140721700Y-137460160I172500J0D01*
G01*
G37*
%TD*%
%TO.C,C18*%
G36*
G01*
X139382800Y-135589660D02*
X139382800Y-135194660D01*
G75*
G02*
X139555300Y-135022160I172500J0D01*
G01*
X139900300Y-135022160D01*
G75*
G02*
X140072800Y-135194660I0J-172500D01*
G01*
X140072800Y-135589660D01*
G75*
G02*
X139900300Y-135762160I-172500J0D01*
G01*
X139555300Y-135762160D01*
G75*
G02*
X139382800Y-135589660I0J172500D01*
G01*
G37*
G36*
G01*
X138412800Y-135589660D02*
X138412800Y-135194660D01*
G75*
G02*
X138585300Y-135022160I172500J0D01*
G01*
X138930300Y-135022160D01*
G75*
G02*
X139102800Y-135194660I0J-172500D01*
G01*
X139102800Y-135589660D01*
G75*
G02*
X138930300Y-135762160I-172500J0D01*
G01*
X138585300Y-135762160D01*
G75*
G02*
X138412800Y-135589660I0J172500D01*
G01*
G37*
%TD*%
%TO.C,R7*%
G36*
G01*
X139780660Y-126288360D02*
X139385660Y-126288360D01*
G75*
G02*
X139213160Y-126115860I0J172500D01*
G01*
X139213160Y-125770860D01*
G75*
G02*
X139385660Y-125598360I172500J0D01*
G01*
X139780660Y-125598360D01*
G75*
G02*
X139953160Y-125770860I0J-172500D01*
G01*
X139953160Y-126115860D01*
G75*
G02*
X139780660Y-126288360I-172500J0D01*
G01*
G37*
G36*
G01*
X139780660Y-127258360D02*
X139385660Y-127258360D01*
G75*
G02*
X139213160Y-127085860I0J172500D01*
G01*
X139213160Y-126740860D01*
G75*
G02*
X139385660Y-126568360I172500J0D01*
G01*
X139780660Y-126568360D01*
G75*
G02*
X139953160Y-126740860I0J-172500D01*
G01*
X139953160Y-127085860D01*
G75*
G02*
X139780660Y-127258360I-172500J0D01*
G01*
G37*
%TD*%
%TO.C,U1*%
G36*
G01*
X145515460Y-111658600D02*
X145515460Y-111308600D01*
G75*
G02*
X145690460Y-111133600I175000J0D01*
G01*
X147390460Y-111133600D01*
G75*
G02*
X147565460Y-111308600I0J-175000D01*
G01*
X147565460Y-111658600D01*
G75*
G02*
X147390460Y-111833600I-175000J0D01*
G01*
X145690460Y-111833600D01*
G75*
G02*
X145515460Y-111658600I0J175000D01*
G01*
G37*
G36*
G01*
X145515460Y-112928600D02*
X145515460Y-112578600D01*
G75*
G02*
X145690460Y-112403600I175000J0D01*
G01*
X147390460Y-112403600D01*
G75*
G02*
X147565460Y-112578600I0J-175000D01*
G01*
X147565460Y-112928600D01*
G75*
G02*
X147390460Y-113103600I-175000J0D01*
G01*
X145690460Y-113103600D01*
G75*
G02*
X145515460Y-112928600I0J175000D01*
G01*
G37*
G36*
G01*
X145515460Y-114198600D02*
X145515460Y-113848600D01*
G75*
G02*
X145690460Y-113673600I175000J0D01*
G01*
X147390460Y-113673600D01*
G75*
G02*
X147565460Y-113848600I0J-175000D01*
G01*
X147565460Y-114198600D01*
G75*
G02*
X147390460Y-114373600I-175000J0D01*
G01*
X145690460Y-114373600D01*
G75*
G02*
X145515460Y-114198600I0J175000D01*
G01*
G37*
G36*
G01*
X145515460Y-115468600D02*
X145515460Y-115118600D01*
G75*
G02*
X145690460Y-114943600I175000J0D01*
G01*
X147390460Y-114943600D01*
G75*
G02*
X147565460Y-115118600I0J-175000D01*
G01*
X147565460Y-115468600D01*
G75*
G02*
X147390460Y-115643600I-175000J0D01*
G01*
X145690460Y-115643600D01*
G75*
G02*
X145515460Y-115468600I0J175000D01*
G01*
G37*
G36*
G01*
X150465460Y-115468600D02*
X150465460Y-115118600D01*
G75*
G02*
X150640460Y-114943600I175000J0D01*
G01*
X152340460Y-114943600D01*
G75*
G02*
X152515460Y-115118600I0J-175000D01*
G01*
X152515460Y-115468600D01*
G75*
G02*
X152340460Y-115643600I-175000J0D01*
G01*
X150640460Y-115643600D01*
G75*
G02*
X150465460Y-115468600I0J175000D01*
G01*
G37*
G36*
G01*
X150465460Y-114198600D02*
X150465460Y-113848600D01*
G75*
G02*
X150640460Y-113673600I175000J0D01*
G01*
X152340460Y-113673600D01*
G75*
G02*
X152515460Y-113848600I0J-175000D01*
G01*
X152515460Y-114198600D01*
G75*
G02*
X152340460Y-114373600I-175000J0D01*
G01*
X150640460Y-114373600D01*
G75*
G02*
X150465460Y-114198600I0J175000D01*
G01*
G37*
G36*
G01*
X150465460Y-112928600D02*
X150465460Y-112578600D01*
G75*
G02*
X150640460Y-112403600I175000J0D01*
G01*
X152340460Y-112403600D01*
G75*
G02*
X152515460Y-112578600I0J-175000D01*
G01*
X152515460Y-112928600D01*
G75*
G02*
X152340460Y-113103600I-175000J0D01*
G01*
X150640460Y-113103600D01*
G75*
G02*
X150465460Y-112928600I0J175000D01*
G01*
G37*
G36*
G01*
X150465460Y-111658600D02*
X150465460Y-111308600D01*
G75*
G02*
X150640460Y-111133600I175000J0D01*
G01*
X152340460Y-111133600D01*
G75*
G02*
X152515460Y-111308600I0J-175000D01*
G01*
X152515460Y-111658600D01*
G75*
G02*
X152340460Y-111833600I-175000J0D01*
G01*
X150640460Y-111833600D01*
G75*
G02*
X150465460Y-111658600I0J175000D01*
G01*
G37*
%TD*%
D18*
%TO.C,J3*%
X139562840Y-130586960D03*
X139562840Y-131886960D03*
X139562840Y-133186960D03*
%TD*%
%TO.C,C16*%
G36*
G01*
X142205060Y-136434000D02*
X142600060Y-136434000D01*
G75*
G02*
X142772560Y-136606500I0J-172500D01*
G01*
X142772560Y-136951500D01*
G75*
G02*
X142600060Y-137124000I-172500J0D01*
G01*
X142205060Y-137124000D01*
G75*
G02*
X142032560Y-136951500I0J172500D01*
G01*
X142032560Y-136606500D01*
G75*
G02*
X142205060Y-136434000I172500J0D01*
G01*
G37*
G36*
G01*
X142205060Y-135464000D02*
X142600060Y-135464000D01*
G75*
G02*
X142772560Y-135636500I0J-172500D01*
G01*
X142772560Y-135981500D01*
G75*
G02*
X142600060Y-136154000I-172500J0D01*
G01*
X142205060Y-136154000D01*
G75*
G02*
X142032560Y-135981500I0J172500D01*
G01*
X142032560Y-135636500D01*
G75*
G02*
X142205060Y-135464000I172500J0D01*
G01*
G37*
%TD*%
D15*
%TO.C,D2*%
X144979640Y-131495760D03*
X146979640Y-130545760D03*
X146979640Y-132445760D03*
%TD*%
%TO.C,C17*%
G36*
G01*
X139380580Y-128590200D02*
X139775580Y-128590200D01*
G75*
G02*
X139948080Y-128762700I0J-172500D01*
G01*
X139948080Y-129107700D01*
G75*
G02*
X139775580Y-129280200I-172500J0D01*
G01*
X139380580Y-129280200D01*
G75*
G02*
X139208080Y-129107700I0J172500D01*
G01*
X139208080Y-128762700D01*
G75*
G02*
X139380580Y-128590200I172500J0D01*
G01*
G37*
G36*
G01*
X139380580Y-127620200D02*
X139775580Y-127620200D01*
G75*
G02*
X139948080Y-127792700I0J-172500D01*
G01*
X139948080Y-128137700D01*
G75*
G02*
X139775580Y-128310200I-172500J0D01*
G01*
X139380580Y-128310200D01*
G75*
G02*
X139208080Y-128137700I0J172500D01*
G01*
X139208080Y-127792700D01*
G75*
G02*
X139380580Y-127620200I172500J0D01*
G01*
G37*
%TD*%
%TO.C,C19*%
G36*
G01*
X135808100Y-128401920D02*
X135413100Y-128401920D01*
G75*
G02*
X135240600Y-128229420I0J172500D01*
G01*
X135240600Y-127884420D01*
G75*
G02*
X135413100Y-127711920I172500J0D01*
G01*
X135808100Y-127711920D01*
G75*
G02*
X135980600Y-127884420I0J-172500D01*
G01*
X135980600Y-128229420D01*
G75*
G02*
X135808100Y-128401920I-172500J0D01*
G01*
G37*
G36*
G01*
X135808100Y-129371920D02*
X135413100Y-129371920D01*
G75*
G02*
X135240600Y-129199420I0J172500D01*
G01*
X135240600Y-128854420D01*
G75*
G02*
X135413100Y-128681920I172500J0D01*
G01*
X135808100Y-128681920D01*
G75*
G02*
X135980600Y-128854420I0J-172500D01*
G01*
X135980600Y-129199420D01*
G75*
G02*
X135808100Y-129371920I-172500J0D01*
G01*
G37*
%TD*%
D18*
%TO.C,J4*%
X135610600Y-130566160D03*
X135610600Y-131866160D03*
X135610600Y-133166160D03*
%TD*%
M02*
