%TF.GenerationSoftware,KiCad,Pcbnew,5.1.6*%
%TF.CreationDate,2020-07-27T19:16:26+00:00*%
%TF.ProjectId,SoundCard,536f756e-6443-4617-9264-2e6b69636164,rev?*%
%TF.SameCoordinates,Original*%
%TF.FileFunction,Paste,Bot*%
%TF.FilePolarity,Positive*%
%FSLAX46Y46*%
G04 Gerber Fmt 4.6, Leading zero omitted, Abs format (unit mm)*
G04 Created by KiCad (PCBNEW 5.1.6) date 2020-07-27 19:16:26*
%MOMM*%
%LPD*%
G01*
G04 APERTURE LIST*
G04 APERTURE END LIST*
%TO.C,R9*%
G36*
G01*
X139766400Y-133228300D02*
X139766400Y-133573300D01*
G75*
G02*
X139618900Y-133720800I-147500J0D01*
G01*
X139323900Y-133720800D01*
G75*
G02*
X139176400Y-133573300I0J147500D01*
G01*
X139176400Y-133228300D01*
G75*
G02*
X139323900Y-133080800I147500J0D01*
G01*
X139618900Y-133080800D01*
G75*
G02*
X139766400Y-133228300I0J-147500D01*
G01*
G37*
G36*
G01*
X140736400Y-133228300D02*
X140736400Y-133573300D01*
G75*
G02*
X140588900Y-133720800I-147500J0D01*
G01*
X140293900Y-133720800D01*
G75*
G02*
X140146400Y-133573300I0J147500D01*
G01*
X140146400Y-133228300D01*
G75*
G02*
X140293900Y-133080800I147500J0D01*
G01*
X140588900Y-133080800D01*
G75*
G02*
X140736400Y-133228300I0J-147500D01*
G01*
G37*
%TD*%
%TO.C,R10*%
G36*
G01*
X137780400Y-133228300D02*
X137780400Y-133573300D01*
G75*
G02*
X137632900Y-133720800I-147500J0D01*
G01*
X137337900Y-133720800D01*
G75*
G02*
X137190400Y-133573300I0J147500D01*
G01*
X137190400Y-133228300D01*
G75*
G02*
X137337900Y-133080800I147500J0D01*
G01*
X137632900Y-133080800D01*
G75*
G02*
X137780400Y-133228300I0J-147500D01*
G01*
G37*
G36*
G01*
X138750400Y-133228300D02*
X138750400Y-133573300D01*
G75*
G02*
X138602900Y-133720800I-147500J0D01*
G01*
X138307900Y-133720800D01*
G75*
G02*
X138160400Y-133573300I0J147500D01*
G01*
X138160400Y-133228300D01*
G75*
G02*
X138307900Y-133080800I147500J0D01*
G01*
X138602900Y-133080800D01*
G75*
G02*
X138750400Y-133228300I0J-147500D01*
G01*
G37*
%TD*%
%TO.C,C23*%
G36*
G01*
X145701600Y-108408150D02*
X145701600Y-109320650D01*
G75*
G02*
X145457850Y-109564400I-243750J0D01*
G01*
X144970350Y-109564400D01*
G75*
G02*
X144726600Y-109320650I0J243750D01*
G01*
X144726600Y-108408150D01*
G75*
G02*
X144970350Y-108164400I243750J0D01*
G01*
X145457850Y-108164400D01*
G75*
G02*
X145701600Y-108408150I0J-243750D01*
G01*
G37*
G36*
G01*
X147576600Y-108408150D02*
X147576600Y-109320650D01*
G75*
G02*
X147332850Y-109564400I-243750J0D01*
G01*
X146845350Y-109564400D01*
G75*
G02*
X146601600Y-109320650I0J243750D01*
G01*
X146601600Y-108408150D01*
G75*
G02*
X146845350Y-108164400I243750J0D01*
G01*
X147332850Y-108164400D01*
G75*
G02*
X147576600Y-108408150I0J-243750D01*
G01*
G37*
%TD*%
%TO.C,C22*%
G36*
G01*
X146872600Y-110611700D02*
X146872600Y-110266700D01*
G75*
G02*
X147020100Y-110119200I147500J0D01*
G01*
X147315100Y-110119200D01*
G75*
G02*
X147462600Y-110266700I0J-147500D01*
G01*
X147462600Y-110611700D01*
G75*
G02*
X147315100Y-110759200I-147500J0D01*
G01*
X147020100Y-110759200D01*
G75*
G02*
X146872600Y-110611700I0J147500D01*
G01*
G37*
G36*
G01*
X145902600Y-110611700D02*
X145902600Y-110266700D01*
G75*
G02*
X146050100Y-110119200I147500J0D01*
G01*
X146345100Y-110119200D01*
G75*
G02*
X146492600Y-110266700I0J-147500D01*
G01*
X146492600Y-110611700D01*
G75*
G02*
X146345100Y-110759200I-147500J0D01*
G01*
X146050100Y-110759200D01*
G75*
G02*
X145902600Y-110611700I0J147500D01*
G01*
G37*
%TD*%
M02*
