%TF.GenerationSoftware,KiCad,Pcbnew,5.1.6*%
%TF.CreationDate,2020-08-11T21:36:28+00:00*%
%TF.ProjectId,SoundCard,536f756e-6443-4617-9264-2e6b69636164,rev?*%
%TF.SameCoordinates,Original*%
%TF.FileFunction,Legend,Bot*%
%TF.FilePolarity,Positive*%
%FSLAX46Y46*%
G04 Gerber Fmt 4.6, Leading zero omitted, Abs format (unit mm)*
G04 Created by KiCad (PCBNEW 5.1.6) date 2020-08-11 21:36:28*
%MOMM*%
%LPD*%
G01*
G04 APERTURE LIST*
%ADD10C,0.150000*%
G04 APERTURE END LIST*
%TO.C,R8*%
D10*
X145703220Y-134069653D02*
X145227030Y-133736320D01*
X145703220Y-133498224D02*
X144703220Y-133498224D01*
X144703220Y-133879177D01*
X144750840Y-133974415D01*
X144798459Y-134022034D01*
X144893697Y-134069653D01*
X145036554Y-134069653D01*
X145131792Y-134022034D01*
X145179411Y-133974415D01*
X145227030Y-133879177D01*
X145227030Y-133498224D01*
X145131792Y-134641081D02*
X145084173Y-134545843D01*
X145036554Y-134498224D01*
X144941316Y-134450605D01*
X144893697Y-134450605D01*
X144798459Y-134498224D01*
X144750840Y-134545843D01*
X144703220Y-134641081D01*
X144703220Y-134831558D01*
X144750840Y-134926796D01*
X144798459Y-134974415D01*
X144893697Y-135022034D01*
X144941316Y-135022034D01*
X145036554Y-134974415D01*
X145084173Y-134926796D01*
X145131792Y-134831558D01*
X145131792Y-134641081D01*
X145179411Y-134545843D01*
X145227030Y-134498224D01*
X145322268Y-134450605D01*
X145512744Y-134450605D01*
X145607982Y-134498224D01*
X145655601Y-134545843D01*
X145703220Y-134641081D01*
X145703220Y-134831558D01*
X145655601Y-134926796D01*
X145607982Y-134974415D01*
X145512744Y-135022034D01*
X145322268Y-135022034D01*
X145227030Y-134974415D01*
X145179411Y-134926796D01*
X145131792Y-134831558D01*
%TO.C,R9*%
X145723540Y-136081333D02*
X145247350Y-135748000D01*
X145723540Y-135509904D02*
X144723540Y-135509904D01*
X144723540Y-135890857D01*
X144771160Y-135986095D01*
X144818779Y-136033714D01*
X144914017Y-136081333D01*
X145056874Y-136081333D01*
X145152112Y-136033714D01*
X145199731Y-135986095D01*
X145247350Y-135890857D01*
X145247350Y-135509904D01*
X145723540Y-136557523D02*
X145723540Y-136748000D01*
X145675921Y-136843238D01*
X145628302Y-136890857D01*
X145485445Y-136986095D01*
X145294969Y-137033714D01*
X144914017Y-137033714D01*
X144818779Y-136986095D01*
X144771160Y-136938476D01*
X144723540Y-136843238D01*
X144723540Y-136652761D01*
X144771160Y-136557523D01*
X144818779Y-136509904D01*
X144914017Y-136462285D01*
X145152112Y-136462285D01*
X145247350Y-136509904D01*
X145294969Y-136557523D01*
X145342588Y-136652761D01*
X145342588Y-136843238D01*
X145294969Y-136938476D01*
X145247350Y-136986095D01*
X145152112Y-137033714D01*
%TD*%
M02*
